<svg width="48.000000" height="48.000000" viewBox="0 0 48 48" fill="none" xmlns="http://www.w3.org/2000/svg" xmlns:xlink="http://www.w3.org/1999/xlink">
	<defs/>
	<path id="bg" d="M0 24C0 37.25 10.74 48 24 48C37.25 48 48 37.25 48 24C48 10.74 37.25 0 24 0C10.74 0 0 10.74 0 24Z" fill="#F00073" fill-opacity="1.000000" fill-rule="evenodd"/>
	<path id="instagram" d="M29.1 11.55L18.9 11.55C17.55 11.55 16.65 11.85 15.9 12.15C15.15 12.45 14.4 12.9 13.65 13.65C12.9 14.4 12.6 15 12.15 15.9C11.85 16.65 11.7 17.54 11.55 18.9L11.55 29.1C11.55 30.45 11.85 31.35 12.15 32.1C12.45 32.85 12.9 33.6 13.65 34.35C14.4 35.1 15 35.4 15.9 35.85C16.65 36.15 17.55 36.3 18.9 36.45L29.1 36.45C30.45 36.45 31.35 36.15 32.1 35.85C32.85 35.55 33.6 35.1 34.35 34.35C35.1 33.6 35.4 33 35.85 32.1C36.15 31.35 36.3 30.45 36.45 29.1L36.45 18.9C36.45 17.54 36.15 16.65 35.85 15.9C35.55 15.15 35.1 14.4 34.35 13.65C33.6 12.9 33 12.6 32.1 12.15C31.35 11.85 30.45 11.7 29.1 11.55ZM18.9 13.8L29.1 13.8C30.3 13.8 30.9 14.1 31.35 14.25C31.95 14.55 32.4 14.7 32.85 15.15C33.3 15.6 33.6 16.04 33.75 16.65C33.9 17.1 34.05 17.7 34.2 18.9L34.2 29.1C34.2 30.3 33.9 30.9 33.75 31.35C33.45 31.95 33.3 32.4 32.85 32.85C32.4 33.3 31.95 33.6 31.35 33.75C30.9 33.9 30.3 34.05 29.1 34.2L18.9 34.2C17.7 34.2 17.1 33.9 16.65 33.75C16.05 33.45 15.6 33.3 15.15 32.85C14.7 32.4 14.4 31.95 14.25 31.35C14.1 30.9 13.95 30.3 13.8 29.1L13.8 18.9C13.8 17.7 14.1 17.1 14.25 16.65C14.55 16.04 14.7 15.6 15.15 15.15C15.6 14.7 16.05 14.4 16.65 14.25C17.1 14.1 17.7 13.95 18.9 13.8ZM32.1 17.4C32.1 18.22 31.42 18.9 30.6 18.9C29.77 18.9 29.1 18.22 29.1 17.4C29.1 16.57 29.77 15.9 30.6 15.9C31.42 15.9 32.1 16.57 32.1 17.4ZM24 17.54C20.4 17.54 17.55 20.4 17.55 24C17.55 27.6 20.4 30.45 24 30.45C27.6 30.45 30.45 27.6 30.45 24C30.45 20.4 27.6 17.54 24 17.54ZM24 28.2C21.75 28.2 19.8 26.4 19.8 24C19.8 21.75 21.6 19.79 24 19.79C26.25 19.79 28.2 21.6 28.2 24C28.2 26.25 26.25 28.2 24 28.2Z" fill="#FFFDFD" fill-opacity="1.000000" fill-rule="evenodd"/>
</svg>
