<svg width="30" height="24" viewBox="0 0 30 24" fill="none" xmlns="http://www.w3.org/2000/svg">
<path d="M8.29593 11.9999L16.7879 3.27291C16.8578 3.20258 16.9131 3.11908 16.9506 3.02725C16.988 2.93542 17.0068 2.83708 17.006 2.73791C17.0052 2.63875 16.9847 2.54073 16.9458 2.44953C16.9068 2.35833 16.8501 2.27577 16.7791 2.20661C16.708 2.13745 16.6239 2.08308 16.5317 2.04663C16.4395 2.01018 16.3409 1.99239 16.2418 1.99428C16.1426 1.99616 16.0448 2.0177 15.954 2.05763C15.8633 2.09756 15.7813 2.1551 15.7129 2.22691L6.71293 11.4769C6.57671 11.6169 6.50049 11.8046 6.50049 11.9999C6.50049 12.1953 6.57671 12.3829 6.71293 12.5229L15.7129 21.7729C15.7813 21.8447 15.8633 21.9023 15.954 21.9422C16.0448 21.9821 16.1426 22.0037 16.2418 22.0055C16.3409 22.0074 16.4395 21.9896 16.5317 21.9532C16.6239 21.9167 16.708 21.8624 16.7791 21.7932C16.8501 21.7241 16.9068 21.6415 16.9458 21.5503C16.9847 21.4591 17.0052 21.3611 17.006 21.2619C17.0068 21.1627 16.988 21.0644 16.9506 20.9726C16.9131 20.8807 16.8578 20.7972 16.7879 20.7269L8.29593 11.9999Z" fill="#6EA6AA"/>
<path d="M14.2959 11.9999L22.7879 3.27291C22.8578 3.20258 22.9131 3.11908 22.9506 3.02725C22.988 2.93542 23.0068 2.83708 23.006 2.73791C23.0052 2.63875 22.9847 2.54073 22.9458 2.44953C22.9068 2.35833 22.8501 2.27577 22.7791 2.20661C22.708 2.13745 22.6239 2.08308 22.5317 2.04663C22.4395 2.01018 22.3409 1.99239 22.2418 1.99428C22.1426 1.99616 22.0448 2.0177 21.954 2.05763C21.8633 2.09756 21.7813 2.1551 21.7129 2.22691L12.7129 11.4769C12.5767 11.6169 12.5005 11.8046 12.5005 11.9999C12.5005 12.1953 12.5767 12.3829 12.7129 12.5229L21.7129 21.7729C21.7813 21.8447 21.8633 21.9023 21.954 21.9422C22.0448 21.9821 22.1426 22.0037 22.2418 22.0055C22.3409 22.0074 22.4395 21.9896 22.5317 21.9532C22.6239 21.9167 22.708 21.8624 22.7791 21.7932C22.8501 21.7241 22.9068 21.6415 22.9458 21.5503C22.9847 21.4591 23.0052 21.3611 23.006 21.2619C23.0068 21.1627 22.988 21.0644 22.9506 20.9726C22.9131 20.8807 22.8578 20.7972 22.7879 20.7269L14.2959 11.9999Z" fill="#6EA6AA"/>
</svg>
