<svg width="541" height="800" viewBox="0 0 541 800" fill="none" xmlns="http://www.w3.org/2000/svg">
<rect x="98.4424" y="205.803" width="10.9381" height="204.148" rx="5.46905" fill="#C9DFE7"/>
<rect x="231.383" y="89.3867" width="10.9381" height="204.148" rx="5.46905" fill="#C9DFE7"/>
<rect x="297.853" y="141.688" width="10.9381" height="268.26" rx="5.46905" fill="#C9DFE7"/>
<rect x="430.793" y="270.758" width="10.9381" height="139.192" rx="5.46905" fill="#C9DFE7"/>
<rect x="364.322" y="119.756" width="10.9381" height="204.148" rx="5.46905" fill="#C9DFE7"/>
<rect x="164.912" y="253.043" width="10.9381" height="80.1406" rx="5.46905" fill="#C9DFE7"/>
<rect x="164.912" y="147.594" width="10.9381" height="80.1406" rx="5.46905" fill="#C9DFE7"/>
<rect x="231.383" y="336.557" width="10.9381" height="73.3919" rx="5.46905" fill="#C9DFE7"/>
<rect x="430.793" y="199.896" width="10.9381" height="50.6151" rx="5.46905" fill="#C9DFE7"/>
<path d="M472.649 84.0283C462.613 82.4052 454.815 74.5989 453.194 64.5512C451.92 56.5903 450.028 51.5664 447.944 51.5664C445.859 51.5664 443.968 56.5903 442.694 64.5512C441.072 74.5989 433.275 82.4052 423.238 84.0283C415.286 85.3036 410.268 87.1972 410.268 89.2841C410.268 91.3709 415.286 93.2645 423.238 94.5398C433.275 96.1629 441.072 103.969 442.694 114.017C443.968 121.978 445.859 127.002 447.944 127.002C450.028 127.002 451.92 121.978 453.194 114.017C454.815 103.969 462.613 96.1629 472.649 94.5398C480.602 93.2645 485.62 91.3709 485.62 89.2841C485.62 87.1972 480.602 85.3036 472.649 84.0283Z" fill="#E2D9BA"/>
<path d="M354.139 9.48193C347.808 8.47716 342.867 3.53058 341.864 -2.80723C341.053 -7.8311 339.856 -11 338.544 -11C337.231 -11 336.035 -7.8311 335.224 -2.80723C334.22 3.53058 329.279 8.47716 322.948 9.48193C317.93 10.2935 314.765 11.4915 314.765 12.8054C314.765 14.1194 317.93 15.3174 322.948 16.1289C329.279 17.1337 334.22 22.0803 335.224 28.4181C336.035 33.4419 337.231 36.6108 338.544 36.6108C339.856 36.6108 341.053 33.4419 341.864 28.4181C342.867 22.0803 347.808 17.1337 354.139 16.1289C359.158 15.3174 362.323 14.1194 362.323 12.8054C362.323 11.4915 359.158 10.2935 354.139 9.48193Z" fill="#E2D9BA"/>
<path d="M39.3747 369.925C33.0438 368.921 28.1027 363.974 27.099 357.636C26.2884 352.612 25.0917 349.443 23.7792 349.443C22.4667 349.443 21.27 352.612 20.4594 357.636C19.4557 363.974 14.5146 368.921 8.18375 369.925C3.16542 370.737 0 371.935 0 373.249C0 374.563 3.16542 375.761 8.18375 376.572C14.5146 377.577 19.4557 382.524 20.4594 388.861C21.27 393.885 22.4667 397.054 23.7792 397.054C25.0917 397.054 26.2884 393.885 27.099 388.861C28.1027 382.524 33.0438 377.577 39.3747 376.572C44.393 375.761 47.5584 374.563 47.5584 373.249C47.5584 371.935 44.393 370.737 39.3747 369.925Z" fill="#E2D9BA"/>
<path d="M532.794 369.925C526.463 368.921 521.522 363.974 520.518 357.636C519.707 352.612 518.511 349.443 517.198 349.443C515.886 349.443 514.689 352.612 513.878 357.636C512.875 363.974 507.934 368.921 501.603 369.925C496.584 370.737 493.419 371.935 493.419 373.249C493.419 374.563 496.584 375.761 501.603 376.572C507.934 377.577 512.875 382.524 513.878 388.861C514.689 393.885 515.886 397.054 517.198 397.054C518.511 397.054 519.707 393.885 520.518 388.861C521.522 382.524 526.463 377.577 532.794 376.572C537.812 375.761 540.977 374.563 540.977 373.249C540.977 371.935 537.812 370.737 532.794 369.925Z" fill="#E2D9BA"/>
<path d="M109.014 124.992C92.8394 122.402 80.255 109.804 77.63 93.5731C75.5841 80.7815 72.5344 72.666 69.176 72.666C65.8176 72.666 62.768 80.7815 60.722 93.5731C58.1357 109.765 45.5512 122.364 29.3381 124.992C16.5607 127.04 8.4541 130.093 8.4541 133.455C8.4541 136.817 16.5607 139.87 29.3381 141.918C45.5126 144.507 58.0971 157.106 60.722 173.337C62.768 186.128 65.8176 194.244 69.176 194.244C72.5344 194.244 75.5841 186.128 77.63 173.337C80.2164 157.144 92.8008 144.546 109.014 141.918C121.791 139.87 129.898 136.817 129.898 133.455C129.898 130.093 121.791 127.04 109.014 124.992Z" fill="#E2D9BA"/>
<g clip-path="url(#clip0_1348_152949)">
<path d="M453.644 460.122C436.543 460.122 421.45 468.469 412.069 481.3C405.005 468.663 391.571 460.122 376.092 460.122C355.323 460.122 338.222 475.503 335.327 495.482C327.105 490.574 317.57 487.715 307.302 487.715C294.408 487.715 282.557 492.198 273.216 499.656C256.848 468.856 224.499 447.91 187.209 447.91C158.218 447.91 132.239 460.586 114.404 480.72C105.912 472.875 94.6013 468.006 82.1327 468.006C55.8443 468.006 34.4971 489.338 34.4971 515.694C34.4971 542.05 55.8057 563.382 82.1327 563.382C85.2981 563.382 88.3863 563.073 91.3973 562.454C99.4653 608.133 139.303 642.875 187.248 642.875C226.082 642.875 259.628 620.074 275.262 587.149C284.295 593.68 295.374 597.583 307.379 597.583C337.682 597.583 362.233 573.005 362.233 542.668C362.233 541.818 362.156 541.006 362.117 540.156C366.518 541.741 371.228 542.668 376.13 542.668C387.672 542.668 398.095 537.915 405.584 530.224C412.996 549.586 431.718 563.382 453.683 563.382C482.172 563.382 505.256 540.272 505.256 511.752C505.256 483.232 482.172 460.122 453.683 460.122H453.644ZM185.935 621.466H185.819C141.812 620.77 123.553 583.864 122.82 582.279C120.967 578.415 122.588 573.816 126.41 571.961C130.232 570.106 134.864 571.729 136.717 575.555C137.373 576.869 151.849 605.466 186.09 606.007C190.336 606.085 193.771 609.601 193.694 613.852C193.617 618.065 190.181 621.466 185.974 621.466H185.935ZM465.071 546.958C460.786 549.199 455.729 550.397 450.672 550.397C441.6 550.397 432.374 546.571 426.815 537.876C424.499 534.282 425.542 529.49 429.132 527.21C432.722 524.891 437.508 525.935 439.786 529.529C443.569 535.441 452.255 536.214 458.006 533.239C461.789 531.268 466.46 532.775 468.429 536.562C470.398 540.349 468.892 545.025 465.109 546.996L465.071 546.958Z" fill="#C9DFE7"/>
<path d="M436.891 594.027C431.602 574.125 411.181 562.3 391.301 567.633C371.421 572.927 359.608 593.37 364.935 613.273C370.224 633.175 390.645 645 410.525 639.667C430.405 634.373 442.218 613.929 436.891 594.027ZM421.372 619.919C417.782 623.166 413.227 625.639 408.325 626.953C399.562 629.31 389.68 627.996 382.036 621.04C378.871 618.18 378.639 613.273 381.535 610.104C384.391 606.935 389.294 606.703 392.459 609.601C397.632 614.316 406.24 612.847 411.027 608.48C414.192 605.621 419.056 605.853 421.951 608.983C424.808 612.152 424.576 617.021 421.45 619.919H421.372Z" fill="#C9DFE7"/>
<path d="M126.288 471.781C126.288 510.968 162.78 544.538 214.738 558.763C230.158 562.976 247.884 572.626 247.884 583.589H292.29C292.29 572.626 310.016 562.976 325.436 558.763C377.393 544.538 413.885 510.968 413.885 471.781H126.288ZM270.087 571.539C263.032 571.539 257.335 565.83 257.335 558.763C257.335 551.696 263.032 545.988 270.087 545.988C277.141 545.988 282.839 551.696 282.839 558.763C282.839 565.83 277.141 571.539 270.087 571.539Z" fill="#8FC4C8"/>
<path d="M21.876 436.943H518.298V447.816C518.298 461.045 507.581 471.781 494.377 471.781H45.7972C32.593 471.781 21.876 461.045 21.876 447.816V436.943Z" fill="#759EA0"/>
<path d="M295.364 583.589H244.809C242.276 583.589 240.196 585.628 240.196 588.21V769.785C240.196 786.321 253.581 799.73 270.087 799.73C286.592 799.73 299.977 786.321 299.977 769.785V588.21C299.977 585.673 297.942 583.589 295.364 583.589Z" fill="#759EA0"/>
</g>
<defs>
<clipPath id="clip0_1348_152949">
<rect width="496.422" height="362.742" fill="white" transform="translate(21.876 436.943)"/>
</clipPath>
</defs>
</svg>
