<svg width="362" height="222" viewBox="0 0 362 222" fill="none" xmlns="http://www.w3.org/2000/svg">
<path d="M85.846 24.4668C78.2093 24.4668 71.5531 25.8544 65.8772 28.6295C60.3045 31.3019 55.6606 34.8479 51.9455 39.2676C48.2303 43.5845 45.444 48.4667 43.5864 53.9142C41.8321 59.3617 40.9549 64.7578 40.9549 70.1026C40.9549 76.1668 42.1417 82.1282 44.5152 87.9869C46.8888 93.7427 50.1395 98.8819 54.2674 103.404C58.4985 107.824 63.4004 111.421 68.9731 114.197C74.5458 116.869 80.5829 118.205 87.0844 118.205C88.9419 118.205 91.1091 118 93.5858 117.588C96.1658 117.177 98.6941 116.406 101.171 115.276C103.648 114.042 105.918 112.347 107.982 110.188C110.149 108.03 111.8 105.203 112.935 101.708H114.483V118.822C112.935 118.822 111.284 119.027 109.53 119.439C107.879 119.85 106.021 120.312 103.957 120.826C101.274 121.546 98.2813 122.214 94.979 122.83C91.7799 123.447 88.3743 123.755 84.7624 123.755C75.7842 123.755 67.8895 122.214 61.0785 119.13C54.2674 116.047 48.5915 112.038 44.0508 107.105C39.5101 102.171 36.1046 96.6207 33.8342 90.4537C31.5639 84.1839 30.4287 77.8627 30.4287 71.4902C30.4287 65.1176 31.5639 58.7964 33.8342 52.5266C36.1046 46.2569 39.5617 40.6552 44.2056 35.7216C48.8495 30.6852 54.6802 26.6252 61.6977 23.5417C68.7151 20.4583 76.971 18.9165 86.4652 18.9165C89.8707 18.9165 92.915 19.2249 95.5982 19.8416C98.3845 20.4582 100.861 21.0749 103.028 21.6917C104.576 22.2056 105.97 22.6167 107.208 22.925C108.55 23.1306 109.839 23.2334 111.078 23.2334V40.3468H109.53C108.911 37.1605 107.776 34.5396 106.124 32.4839C104.473 30.3254 102.512 28.6809 100.242 27.5503C98.0749 26.4197 95.7014 25.6488 93.1214 25.2377C90.6447 24.7238 88.2195 24.4668 85.846 24.4668Z" fill="#21212F"/>
<path d="M133.833 98.3168C133.833 96.1327 134.188 93.8843 134.897 91.5717C135.671 89.1948 136.606 87.2998 137.703 85.8865C139.251 84.0235 140.992 82.5782 142.927 81.5503C144.927 80.5225 146.507 79.8801 147.668 79.6231C148.893 79.3662 149.506 79.1735 149.506 79.045C149.506 78.8523 149.119 78.3062 148.345 77.4069C147.571 76.4433 146.797 75.03 146.023 73.1671C145.249 71.2399 144.862 69.0557 144.862 66.6146C144.862 62.3748 146.733 59.195 150.474 57.075C154.215 54.8909 158.407 53.7988 163.051 53.7988C165.308 53.7988 167.437 54.1843 169.436 54.9551C171.436 55.6618 172.564 56.0151 172.822 56.0151C173.08 56.0151 173.403 55.983 173.79 55.9187C174.241 55.7903 174.628 55.726 174.951 55.726C175.983 55.726 176.499 56.4648 176.499 57.9423C176.499 58.0065 176.531 58.4562 176.596 59.2913C176.66 60.0622 176.725 60.9615 176.789 61.9894C176.854 63.0172 176.886 63.8523 176.886 64.4947C176.886 66.3577 176.821 67.4819 176.692 67.8673C176.628 68.2527 176.338 68.4454 175.822 68.4454C175.435 68.4454 174.757 67.8673 173.79 66.711C172.822 65.5547 171.79 64.302 170.694 62.953C169.598 61.5397 168.114 60.2549 166.244 59.0986C164.438 57.9423 162.567 57.3641 160.632 57.3641C157.601 57.3641 155.343 58.1671 153.86 59.7731C152.376 61.3149 151.635 62.9851 151.635 64.7838C151.635 66.3898 152.505 68.4776 154.247 71.0471C156.053 73.5525 157.859 75.7688 159.665 77.6959C161.535 79.6231 164.147 82.257 167.501 85.5974C172.339 90.4154 177.015 94.7516 181.53 98.6059C186.045 102.46 188.592 104.387 189.173 104.387C189.56 104.387 189.947 104.131 190.334 103.617C190.721 103.038 191.043 102.107 191.301 100.822C191.559 99.5374 191.688 98.0278 191.688 96.2933C191.688 93.9164 191.334 92.0214 190.624 90.6081C189.979 89.1306 189.399 88.2312 188.883 87.91C188.367 87.5246 187.464 87.0107 186.174 86.3683C185.722 86.1756 185.142 86.0471 184.432 85.9829C183.787 85.9186 183.304 85.8222 182.981 85.6938C182.659 85.5011 182.497 85.1477 182.497 84.6338C182.497 84.1841 182.626 83.8951 182.884 83.7666C183.207 83.6381 183.884 83.5739 184.916 83.5739C186.27 83.5739 187.754 83.606 189.366 83.6702C191.043 83.7345 194.365 83.7666 199.331 83.7666C200.557 83.7666 201.17 84.1841 201.17 85.0193C201.17 85.4689 200.976 85.8223 200.589 86.0792C200.267 86.2719 199.847 86.4325 199.331 86.561C198.88 86.6895 198.428 87.0749 197.977 87.7173C197.59 88.3597 197.364 89.2591 197.3 90.4154C197.235 91.1863 197.138 92.0535 197.009 93.0171C196.945 93.9807 196.848 94.9764 196.719 96.0042C196.59 96.9678 196.493 97.6423 196.429 98.0278C196.235 99.2483 195.848 100.565 195.268 101.979C194.688 103.392 194.139 104.58 193.623 105.544C193.172 106.507 192.946 107.086 192.946 107.278C192.946 107.856 194.849 109.366 198.654 111.807C202.524 114.184 206.426 116.336 210.361 118.263C211.651 118.906 213.037 119.227 214.521 119.227C214.972 119.227 215.585 119.195 216.359 119.13C217.133 119.002 217.681 118.938 218.004 118.938C218.842 118.938 219.262 119.227 219.262 119.805C219.262 120.833 218.326 121.7 216.456 122.407C214.65 123.113 212.457 123.467 209.877 123.467C207.362 123.467 204.943 123.113 202.621 122.407C200.299 121.764 198.332 120.993 196.719 120.094C195.107 119.13 193.688 118.167 192.462 117.203C191.237 116.24 190.237 115.437 189.463 114.794C188.754 114.088 188.334 113.734 188.205 113.734C187.947 113.734 187.431 114.088 186.657 114.794C185.948 115.437 184.98 116.272 183.755 117.3C182.53 118.263 181.046 119.259 179.305 120.287C177.563 121.25 175.241 122.053 172.339 122.696C169.436 123.402 166.244 123.756 162.761 123.756C160.697 123.756 158.633 123.595 156.569 123.274C154.505 123.017 152.022 122.375 149.119 121.347C146.281 120.319 143.766 118.938 141.573 117.203C139.444 115.469 137.606 112.963 136.058 109.687C134.575 106.411 133.833 102.621 133.833 98.3168ZM140.218 95.0406C140.218 97.289 140.767 99.6338 141.863 102.075C142.96 104.516 144.54 106.925 146.604 109.302C148.732 111.614 151.667 113.542 155.408 115.083C159.149 116.561 163.341 117.3 167.985 117.3C170.759 117.3 173.467 116.85 176.112 115.951C178.821 114.987 180.853 114.056 182.207 113.156C183.562 112.193 184.239 111.518 184.239 111.133C184.239 110.876 183.4 110.137 181.723 108.916C180.046 107.632 177.273 105.351 173.403 102.075C169.533 98.7986 165.599 95.1691 161.6 91.1863C160.697 90.2869 159.794 89.4197 158.891 88.5845C158.052 87.6852 157.343 86.9464 156.762 86.3683C156.182 85.7901 155.601 85.2441 155.021 84.7302C154.505 84.152 154.086 83.7023 153.763 83.3811C153.441 83.0599 153.118 82.7388 152.796 82.4176C152.538 82.0964 152.312 81.8715 152.118 81.743C151.925 81.6146 151.731 81.4861 151.538 81.3576C151.409 81.2291 151.28 81.1649 151.151 81.1649C151.022 81.1006 150.893 81.0685 150.764 81.0685C148.635 81.0685 146.346 82.4176 143.895 85.1156C141.444 87.8137 140.218 91.122 140.218 95.0406Z" fill="#21212F"/>
<path d="M312.063 119.13H312.837C313.56 119.13 314.231 118.822 314.85 118.205C315.469 117.588 315.985 116.869 316.398 116.047C316.914 115.224 317.275 114.351 317.481 113.426C317.688 112.398 317.791 111.473 317.791 110.651V29.5546L277.853 122.368L239.928 34.334V110.651C239.928 111.473 240.031 112.398 240.238 113.426C240.444 114.351 240.754 115.224 241.166 116.047C241.682 116.869 242.25 117.588 242.869 118.205C243.488 118.822 244.211 119.13 245.036 119.13H245.81V120.672H228.938V119.13H229.711C230.434 119.13 231.105 118.822 231.724 118.205C232.343 117.588 232.859 116.869 233.272 116.047C233.685 115.224 233.994 114.351 234.201 113.426C234.407 112.398 234.51 111.473 234.51 110.651V28.4753C234.51 27.7559 234.407 26.9336 234.201 26.0086C233.994 25.0835 233.685 24.2098 233.272 23.3876C232.859 22.5653 232.343 21.8972 231.724 21.3833C231.105 20.7666 230.434 20.4583 229.711 20.4583H228.938V18.9165H244.727L280.64 103.25L316.553 18.9165H334.045V20.4583H333.271C332.445 20.4583 331.723 20.7666 331.103 21.3833C330.484 21.8972 329.917 22.5653 329.401 23.3876C328.988 24.2098 328.678 25.0835 328.472 26.0086C328.265 26.9336 328.162 27.7559 328.162 28.4753V110.651C328.162 111.473 328.265 112.398 328.472 113.426C328.678 114.351 328.988 115.224 329.401 116.047C329.917 116.869 330.484 117.588 331.103 118.205C331.723 118.822 332.445 119.13 333.271 119.13H334.045V120.672H312.063V119.13Z" fill="#21212F"/>
<path d="M30.582 150.784H143.173V152.469H30.582V150.784Z" fill="#759EA0"/>
<path fill-rule="evenodd" clip-rule="evenodd" d="M201.886 143.206C202.036 143.331 202.127 143.511 202.139 143.705C202.401 147.845 201.505 151.783 199.763 155.24C196.386 161.938 189.718 166.827 181.68 167.798C181.474 167.905 181.227 167.905 181.019 167.796C180.789 167.674 180.643 167.437 180.64 167.177L180.64 167.137C180.155 158.987 184.045 151.616 190.355 147.175L190.359 147.172C193.515 144.981 197.241 143.514 201.349 143.046C201.542 143.024 201.737 143.082 201.886 143.206ZM182.029 166.322C189.355 165.265 195.398 160.739 198.491 154.604C200.019 151.572 200.852 148.152 200.754 144.553C197.187 145.078 193.947 146.409 191.174 148.334C185.435 152.374 181.841 158.978 182.029 166.322Z" fill="url(#paint0_linear_1259_132309)"/>
<path fill-rule="evenodd" clip-rule="evenodd" d="M160.756 142.614C160.909 142.492 161.105 142.438 161.299 142.465C165.384 143.03 169.081 144.572 172.164 146.853C178.349 151.408 182.048 158.905 181.397 167.026L181.397 167.051C181.4 167.312 181.259 167.554 181.031 167.68C180.802 167.806 180.523 167.798 180.303 167.658L180.281 167.644C172.295 166.454 165.808 161.442 162.611 154.685C160.951 151.201 160.161 147.221 160.492 143.11C160.508 142.916 160.603 142.737 160.756 142.614ZM180.025 166.168C180.36 158.84 176.933 152.127 171.317 147.992C168.618 145.995 165.41 144.596 161.863 143.987C161.701 147.573 162.444 151.029 163.897 154.079C166.83 160.28 172.728 164.926 180.025 166.168Z" fill="url(#paint1_linear_1259_132309)"/>
<path fill-rule="evenodd" clip-rule="evenodd" d="M181.292 134.669C181.488 134.671 181.674 134.753 181.807 134.896C184.613 137.907 186.496 141.43 187.435 145.139C189.334 152.564 187.437 160.7 181.775 166.581L181.759 166.6C181.596 166.803 181.333 166.903 181.076 166.857C180.819 166.81 180.608 166.628 180.526 166.381L180.518 166.356C175.089 160.403 173.247 152.434 175.062 145.187C175.99 141.443 177.905 137.863 180.772 134.887C180.908 134.746 181.096 134.668 181.292 134.669ZM181.258 165.052C186.171 159.587 187.78 152.228 186.056 145.488C185.234 142.24 183.638 139.136 181.277 136.429C178.875 139.105 177.255 142.25 176.444 145.528C174.777 152.179 176.394 159.493 181.258 165.052Z" fill="url(#paint2_linear_1259_132309)"/>
<path d="M221.296 150.784H333.887V152.469H221.296V150.784Z" fill="#759EA0"/>
<path d="M326.231 203.083C324.739 203.083 323.305 202.844 321.928 202.367C320.57 201.87 319.518 201.24 318.772 200.476L319.604 198.844C320.312 199.531 321.259 200.114 322.444 200.591C323.649 201.049 324.911 201.278 326.231 201.278C327.493 201.278 328.516 201.126 329.3 200.82C330.104 200.496 330.687 200.066 331.05 199.531C331.433 198.997 331.624 198.405 331.624 197.755C331.624 196.973 331.395 196.342 330.936 195.865C330.496 195.388 329.912 195.015 329.186 194.748C328.459 194.462 327.656 194.213 326.776 194.003C325.896 193.793 325.017 193.574 324.137 193.344C323.257 193.096 322.444 192.772 321.699 192.371C320.972 191.97 320.379 191.445 319.92 190.795C319.48 190.127 319.26 189.258 319.26 188.189C319.26 187.196 319.518 186.289 320.035 185.468C320.57 184.628 321.383 183.959 322.473 183.463C323.563 182.947 324.959 182.689 326.661 182.689C327.79 182.689 328.908 182.852 330.018 183.176C331.127 183.482 332.083 183.912 332.886 184.465L332.169 186.155C331.309 185.582 330.391 185.162 329.415 184.895C328.459 184.628 327.531 184.494 326.633 184.494C325.428 184.494 324.433 184.656 323.649 184.981C322.865 185.305 322.282 185.745 321.899 186.298C321.536 186.833 321.354 187.444 321.354 188.132C321.354 188.914 321.574 189.545 322.014 190.022C322.473 190.499 323.066 190.872 323.793 191.139C324.538 191.406 325.351 191.645 326.231 191.855C327.111 192.065 327.981 192.294 328.841 192.542C329.721 192.791 330.524 193.115 331.251 193.516C331.997 193.898 332.59 194.414 333.03 195.063C333.489 195.712 333.718 196.562 333.718 197.612C333.718 198.586 333.45 199.493 332.915 200.333C332.38 201.154 331.557 201.823 330.448 202.338C329.358 202.835 327.952 203.083 326.231 203.083Z" fill="black"/>
<path d="M303.397 191.826H314.011V193.631H303.397V191.826ZM303.627 201.078H315.704V202.911H301.504V182.861H315.274V184.694H303.627V201.078Z" fill="black"/>
<path d="M289.607 203.083C288.096 203.083 286.7 202.835 285.418 202.338C284.137 201.823 283.028 201.107 282.091 200.19C281.154 199.274 280.417 198.195 279.882 196.953C279.366 195.712 279.107 194.357 279.107 192.886C279.107 191.416 279.366 190.06 279.882 188.819C280.417 187.578 281.154 186.499 282.091 185.582C283.047 184.666 284.166 183.959 285.447 183.463C286.729 182.947 288.125 182.689 289.635 182.689C291.089 182.689 292.456 182.938 293.738 183.434C295.019 183.912 296.099 184.637 296.979 185.611L295.631 186.957C294.809 186.117 293.9 185.516 292.906 185.153C291.911 184.771 290.84 184.58 289.693 184.58C288.488 184.58 287.369 184.79 286.336 185.21C285.304 185.611 284.405 186.193 283.64 186.957C282.875 187.702 282.273 188.58 281.833 189.592C281.412 190.585 281.202 191.683 281.202 192.886C281.202 194.089 281.412 195.197 281.833 196.209C282.273 197.202 282.875 198.08 283.64 198.844C284.405 199.589 285.304 200.171 286.336 200.591C287.369 200.992 288.488 201.193 289.693 201.193C290.84 201.193 291.911 201.002 292.906 200.62C293.9 200.238 294.809 199.627 295.631 198.787L296.979 200.133C296.099 201.107 295.019 201.842 293.738 202.338C292.456 202.835 291.079 203.083 289.607 203.083Z" fill="black"/>
<path d="M272.228 202.911V182.861H274.35V202.911H272.228Z" fill="black"/>
<path d="M258.327 202.911L249.435 182.861H251.73L260.049 201.737H258.786L267.163 182.861H269.314L260.422 202.911H258.327Z" fill="black"/>
<path d="M231.888 202.911V182.861H239.404C241.106 182.861 242.569 183.138 243.793 183.692C245.017 184.227 245.954 185.01 246.604 186.041C247.273 187.053 247.608 188.284 247.608 189.736C247.608 191.149 247.273 192.371 246.604 193.402C245.954 194.414 245.017 195.197 243.793 195.75C242.569 196.285 241.106 196.552 239.404 196.552H233.064L234.011 195.579V202.911H231.888ZM245.6 202.911L240.436 195.636H242.731L247.924 202.911H245.6ZM234.011 195.75L233.064 194.748H239.346C241.354 194.748 242.875 194.309 243.907 193.43C244.959 192.552 245.485 191.32 245.485 189.736C245.485 188.132 244.959 186.89 243.907 186.012C242.875 185.134 241.354 184.694 239.346 184.694H233.064L234.011 183.692V195.75Z" fill="black"/>
<path d="M214.591 191.826H225.205V193.631H214.591V191.826ZM214.82 201.078H226.897V202.911H212.697V182.861H226.467V184.694H214.82V201.078Z" fill="black"/>
<path d="M200.588 203.083C199.097 203.083 197.662 202.844 196.285 202.367C194.928 201.87 193.876 201.24 193.13 200.476L193.962 198.844C194.669 199.531 195.616 200.114 196.802 200.591C198.007 201.049 199.269 201.278 200.588 201.278C201.851 201.278 202.874 201.126 203.658 200.82C204.461 200.496 205.044 200.066 205.408 199.531C205.79 198.997 205.982 198.405 205.982 197.755C205.982 196.973 205.752 196.342 205.293 195.865C204.853 195.388 204.27 195.015 203.543 194.748C202.816 194.462 202.013 194.213 201.133 194.003C200.254 193.793 199.374 193.574 198.494 193.344C197.615 193.096 196.802 192.772 196.056 192.371C195.329 191.97 194.736 191.445 194.277 190.795C193.837 190.127 193.618 189.258 193.618 188.189C193.618 187.196 193.876 186.289 194.392 185.468C194.928 184.628 195.74 183.959 196.83 183.463C197.921 182.947 199.317 182.689 201.019 182.689C202.147 182.689 203.266 182.852 204.375 183.176C205.484 183.482 206.44 183.912 207.244 184.465L206.527 186.155C205.666 185.582 204.748 185.162 203.773 184.895C202.816 184.628 201.889 184.494 200.99 184.494C199.785 184.494 198.791 184.656 198.007 184.981C197.223 185.305 196.639 185.745 196.257 186.298C195.893 186.833 195.712 187.444 195.712 188.132C195.712 188.914 195.932 189.545 196.371 190.022C196.83 190.499 197.423 190.872 198.15 191.139C198.896 191.406 199.709 191.645 200.588 191.855C201.468 192.065 202.338 192.294 203.199 192.542C204.079 192.791 204.882 193.115 205.609 193.516C206.354 193.898 206.947 194.414 207.387 195.063C207.846 195.712 208.076 196.562 208.076 197.612C208.076 198.586 207.808 199.493 207.272 200.333C206.737 201.154 205.915 201.823 204.805 202.338C203.715 202.835 202.31 203.083 200.588 203.083Z" fill="black"/>
<path d="M174.161 203.083C172.631 203.083 171.215 202.835 169.915 202.338C168.634 201.823 167.515 201.107 166.559 200.19C165.622 199.274 164.885 198.195 164.35 196.953C163.833 195.712 163.575 194.357 163.575 192.886C163.575 191.416 163.833 190.06 164.35 188.819C164.885 187.578 165.631 186.499 166.587 185.582C167.544 184.666 168.662 183.959 169.944 183.463C171.244 182.947 172.659 182.689 174.189 182.689C175.719 182.689 177.115 182.928 178.378 183.406C179.659 183.883 180.749 184.609 181.648 185.582L180.328 186.929C179.487 186.088 178.559 185.487 177.546 185.124C176.532 184.761 175.442 184.58 174.275 184.58C173.032 184.58 171.885 184.79 170.833 185.21C169.8 185.611 168.892 186.193 168.108 186.957C167.343 187.702 166.74 188.58 166.3 189.592C165.88 190.585 165.669 191.683 165.669 192.886C165.669 194.07 165.88 195.168 166.3 196.18C166.74 197.192 167.343 198.08 168.108 198.844C168.892 199.589 169.8 200.171 170.833 200.591C171.885 200.992 173.023 201.193 174.247 201.193C175.394 201.193 176.475 201.021 177.488 200.677C178.521 200.333 179.468 199.751 180.328 198.93L181.533 200.534C180.577 201.374 179.458 202.014 178.177 202.453C176.895 202.873 175.557 203.083 174.161 203.083ZM179.496 200.276V192.886H181.533V200.534L179.496 200.276Z" fill="black"/>
<path d="M142.017 202.911V182.861H143.766L157.622 200.276H156.704V182.861H158.798V202.911H157.048L143.221 185.496H144.139V202.911H142.017Z" fill="black"/>
<path d="M133.361 202.911V182.861H135.484V202.911H133.361Z" fill="black"/>
<path d="M110.026 202.911V182.861H111.776L125.632 200.276H124.714V182.861H126.808V202.911H125.058L111.231 185.496H112.149V202.911H110.026Z" fill="black"/>
<path d="M86.252 202.911L95.4317 182.861H97.5258L106.706 202.911H104.468L96.0341 184.093H96.8947L88.4608 202.911H86.252ZM89.8665 197.555L90.4976 195.836H102.173L102.804 197.555H89.8665Z" fill="black"/>
<path d="M72.1677 191.826H82.7818V193.631H72.1677V191.826ZM72.3972 201.078H84.4743V202.911H70.2744V182.861H84.044V184.694H72.3972V201.078Z" fill="black"/>
<path d="M53.3789 202.911V182.861H55.5017V201.078H66.7469V202.911H53.3789Z" fill="black"/>
<path d="M41.4837 203.083C39.9729 203.083 38.5768 202.835 37.2954 202.338C36.0141 201.823 34.9049 201.107 33.9678 200.19C33.0307 199.274 32.2944 198.195 31.7589 196.953C31.2426 195.712 30.9844 194.357 30.9844 192.886C30.9844 191.416 31.2426 190.06 31.7589 188.819C32.2944 187.578 33.0307 186.499 33.9678 185.582C34.924 184.666 36.0428 183.959 37.3241 183.463C38.6055 182.947 40.0016 182.689 41.5124 182.689C42.9658 182.689 44.3332 182.938 45.6146 183.434C46.8959 183.912 47.9764 184.637 48.8562 185.611L47.5079 186.957C46.6855 186.117 45.7771 185.516 44.7827 185.153C43.7882 184.771 42.7172 184.58 41.5698 184.58C40.3649 184.58 39.2461 184.79 38.2134 185.21C37.1807 185.611 36.2818 186.193 35.5169 186.957C34.7519 187.702 34.1495 188.58 33.7096 189.592C33.2889 190.585 33.0785 191.683 33.0785 192.886C33.0785 194.089 33.2889 195.197 33.7096 196.209C34.1495 197.202 34.7519 198.08 35.5169 198.844C36.2818 199.589 37.1807 200.171 38.2134 200.591C39.2461 200.992 40.3649 201.193 41.5698 201.193C42.7172 201.193 43.7882 201.002 44.7827 200.62C45.7771 200.238 46.6855 199.627 47.5079 198.787L48.8562 200.133C47.9764 201.107 46.8959 201.842 45.6146 202.338C44.3332 202.835 42.9563 203.083 41.4837 203.083Z" fill="black"/>
<defs>
<linearGradient id="paint0_linear_1259_132309" x1="179.065" y1="165.394" x2="203.213" y2="144.902" gradientUnits="userSpaceOnUse">
<stop stop-color="#AD9771"/>
<stop offset="1" stop-color="#AD9771"/>
</linearGradient>
<linearGradient id="paint1_linear_1259_132309" x1="158.884" y1="144.862" x2="182.521" y2="165.9" gradientUnits="userSpaceOnUse">
<stop stop-color="#AD9771"/>
<stop offset="1" stop-color="#AD9771"/>
</linearGradient>
<linearGradient id="paint2_linear_1259_132309" x1="178.414" y1="135.231" x2="183.447" y2="166.403" gradientUnits="userSpaceOnUse">
<stop stop-color="#AD9771"/>
<stop offset="1" stop-color="#AD9771"/>
</linearGradient>
</defs>
</svg>
