<svg width="219" height="242" viewBox="0 0 219 242" fill="none" xmlns="http://www.w3.org/2000/svg">
<mask id="mask0_1271_140647" style="mask-type:luminance" maskUnits="userSpaceOnUse" x="0" y="-49" width="323" height="291">
<path d="M322.108 233.99C297.358 242.66 269.738 244.19 244.858 235.89C219.978 227.59 198.218 208.97 188.368 184.66C184.228 174.44 182.148 163.35 176.778 153.71C165.038 132.61 140.158 122.66 116.518 117.78C92.868 112.9 67.988 111.31 46.548 100.22C19.798 86.38 1.40803 57.62 0.0780272 27.52C-1.25197 -2.56998 14.518 -32.85 39.938 -49H322.108V233.99Z" fill="white"/>
</mask>
<g mask="url(#mask0_1271_140647)">
<mask id="mask1_1271_140647" style="mask-type:luminance" maskUnits="userSpaceOnUse" x="155" y="-91" width="129" height="129">
<path d="M283.467 -90.7109H155.117V37.6391H283.467V-90.7109Z" fill="white"/>
</mask>
<g mask="url(#mask1_1271_140647)">
<mask id="mask2_1271_140647" style="mask-type:luminance" maskUnits="userSpaceOnUse" x="91" y="-28" width="129" height="130">
<path d="M219.397 -27.0117H91.0469V101.338H219.397V-27.0117Z" fill="white"/>
</mask>
<g mask="url(#mask2_1271_140647)">
<mask id="mask3_1271_140647" style="mask-type:luminance" maskUnits="userSpaceOnUse" x="218" y="-28" width="129" height="129">
<path d="M346.946 -27.9609H218.596V100.389H346.946V-27.9609Z" fill="white"/>
</mask>
<g mask="url(#mask3_1271_140647)">
<path d="M362.977 -44H202.547V116.43H362.977V-44Z" fill="#C9DFE7"/>
<g style="mix-blend-mode:screen" opacity="0.4">
<path d="M362.986 22.599H202.556C201.966 22.599 201.486 22.119 201.486 21.529C201.486 20.939 201.966 20.459 202.556 20.459H362.986C363.576 20.459 364.056 20.939 364.056 21.529C364.056 22.119 363.576 22.599 362.986 22.599Z" fill="#8FC4C8"/>
</g>
<path d="M362.977 19.6406H202.547V20.7106H362.977V19.6406Z" fill="#8FC4C8"/>
<g style="mix-blend-mode:multiply" opacity="0.3">
<path d="M212.105 50.2004H231.845C232.535 50.2004 233.095 49.6404 233.095 48.9504V30.4004L230.845 47.6704L212.105 50.1904V50.2004Z" fill="#8FC4C8"/>
</g>
<g style="mix-blend-mode:multiply" opacity="0.3">
<path d="M212.105 18.2102H231.845C232.535 18.2102 233.095 17.6502 233.095 16.9602V-1.58984L230.845 15.6802L212.105 18.2002V18.2102Z" fill="#8FC4C8"/>
</g>
</g>
<mask id="mask4_1271_140647" style="mask-type:luminance" maskUnits="userSpaceOnUse" x="90" y="-28" width="129" height="129">
<path d="M218.596 -27.9609H90.2461V100.389H218.596V-27.9609Z" fill="white"/>
</mask>
<g mask="url(#mask4_1271_140647)">
<path d="M234.637 -44H74.207V116.43H234.637V-44Z" fill="#C9DFE7"/>
<g style="mix-blend-mode:screen" opacity="0.4">
<path d="M234.637 22.599H74.2067C73.6167 22.599 73.1367 22.119 73.1367 21.529C73.1367 20.939 73.6167 20.459 74.2067 20.459H234.637C235.227 20.459 235.707 20.939 235.707 21.529C235.707 22.119 235.227 22.599 234.637 22.599Z" fill="#8FC4C8"/>
<path d="M204.156 118.859C203.566 118.859 203.086 118.379 203.086 117.789V-42.6409C203.086 -43.2309 203.566 -43.7109 204.156 -43.7109C204.746 -43.7109 205.226 -43.2309 205.226 -42.6409V117.789C205.226 118.379 204.746 118.859 204.156 118.859Z" fill="#8FC4C8"/>
<path d="M172.066 118.859C171.476 118.859 170.996 118.379 170.996 117.789V-42.6409C170.996 -43.2309 171.476 -43.7109 172.066 -43.7109C172.656 -43.7109 173.136 -43.2309 173.136 -42.6409V117.789C173.136 118.379 172.656 118.859 172.066 118.859Z" fill="#8FC4C8"/>
</g>
<path d="M170.996 -44H169.926V116.43H170.996V-44Z" fill="#8FC4C8"/>
<path d="M203.086 -44H202.016V116.43H203.086V-44Z" fill="#8FC4C8"/>
<path d="M234.637 19.6387H74.207V20.7087H234.637V19.6387Z" fill="#8FC4C8"/>
<g style="mix-blend-mode:multiply" opacity="0.3">
<path d="M147.637 50.2004H167.377C168.067 50.2004 168.627 49.6404 168.627 48.9504V30.4004L166.377 47.6704L147.637 50.1904V50.2004Z" fill="#8FC4C8"/>
</g>
<g style="mix-blend-mode:multiply" opacity="0.3">
<path d="M179.576 50.2004H199.316C200.006 50.2004 200.566 49.6404 200.566 48.9504V30.4004L198.316 47.6704L179.576 50.1904V50.2004Z" fill="#8FC4C8"/>
</g>
<g style="mix-blend-mode:multiply" opacity="0.3">
<path d="M211.527 50.2004H231.267C231.957 50.2004 232.517 49.6404 232.517 48.9504V30.4004L230.267 47.6704L211.527 50.1904V50.2004Z" fill="#8FC4C8"/>
</g>
<g style="mix-blend-mode:multiply" opacity="0.3">
<path d="M147.637 18.2102H167.377C168.067 18.2102 168.627 17.6502 168.627 16.9602V-1.58984L166.377 15.6802L147.637 18.2002V18.2102Z" fill="#8FC4C8"/>
</g>
<g style="mix-blend-mode:multiply" opacity="0.3">
<path d="M179.576 18.2102H199.316C200.006 18.2102 200.566 17.6502 200.566 16.9602V-1.58984L198.316 15.6802L179.576 18.2002V18.2102Z" fill="#8FC4C8"/>
</g>
<g style="mix-blend-mode:multiply" opacity="0.3">
<path d="M211.527 18.2102H231.267C231.957 18.2102 232.517 17.6502 232.517 16.9602V-1.58984L230.267 15.6802L211.527 18.2002V18.2102Z" fill="#8FC4C8"/>
</g>
</g>
</g>
</g>
<mask id="mask5_1271_140647" style="mask-type:luminance" maskUnits="userSpaceOnUse" x="155" y="37" width="129" height="129">
<path d="M283.467 37.6387H155.117V165.989H283.467V37.6387Z" fill="white"/>
</mask>
<g mask="url(#mask5_1271_140647)">
<mask id="mask6_1271_140647" style="mask-type:luminance" maskUnits="userSpaceOnUse" x="91" y="101" width="129" height="129">
<path d="M219.397 101.338H91.0469V229.688H219.397V101.338Z" fill="white"/>
</mask>
<g mask="url(#mask6_1271_140647)">
<mask id="mask7_1271_140647" style="mask-type:luminance" maskUnits="userSpaceOnUse" x="218" y="100" width="129" height="129">
<path d="M346.946 100.387H218.596V228.737H346.946V100.387Z" fill="white"/>
</mask>
<g mask="url(#mask7_1271_140647)">
<path d="M362.977 84.3477H202.547V244.778H362.977V84.3477Z" fill="#C9DFE7"/>
<g style="mix-blend-mode:screen" opacity="0.4">
<path d="M362.986 118.857H202.556C201.966 118.857 201.486 118.377 201.486 117.787C201.486 117.197 201.966 116.717 202.556 116.717H362.986C363.576 116.717 364.056 117.197 364.056 117.787C364.056 118.377 363.576 118.857 362.986 118.857Z" fill="#8FC4C8"/>
<path d="M362.986 150.947H202.556C201.966 150.947 201.486 150.467 201.486 149.877C201.486 149.287 201.966 148.807 202.556 148.807H362.986C363.576 148.807 364.056 149.287 364.056 149.877C364.056 150.467 363.576 150.947 362.986 150.947Z" fill="#8FC4C8"/>
</g>
<path d="M362.977 115.898H202.547V116.968H362.977V115.898Z" fill="#8FC4C8"/>
<path d="M362.977 147.988H202.547V149.058H362.977V147.988Z" fill="#8FC4C8"/>
<g style="mix-blend-mode:multiply" opacity="0.3">
<path d="M212.105 178.548H231.845C232.535 178.548 233.095 177.988 233.095 177.298V158.748L230.845 176.018L212.105 178.538V178.548Z" fill="#8FC4C8"/>
</g>
<g style="mix-blend-mode:multiply" opacity="0.3">
<path d="M212.105 146.558H231.845C232.535 146.558 233.095 145.998 233.095 145.308V126.758L230.845 144.028L212.105 146.548V146.558Z" fill="#8FC4C8"/>
</g>
<g style="mix-blend-mode:multiply" opacity="0.3">
<path d="M212.105 114.568H231.845C232.535 114.568 233.095 114.008 233.095 113.318V94.7676L230.845 112.038L212.105 114.558V114.568Z" fill="#8FC4C8"/>
</g>
</g>
<mask id="mask8_1271_140647" style="mask-type:luminance" maskUnits="userSpaceOnUse" x="90" y="100" width="129" height="129">
<path d="M218.596 100.387H90.2461V228.737H218.596V100.387Z" fill="white"/>
</mask>
<g mask="url(#mask8_1271_140647)">
<path d="M234.637 84.3477H74.207V244.778H234.637V84.3477Z" fill="#C9DFE7"/>
<g style="mix-blend-mode:screen" opacity="0.4">
<path d="M234.637 118.857H74.2067C73.6167 118.857 73.1367 118.377 73.1367 117.787C73.1367 117.197 73.6167 116.717 74.2067 116.717H234.637C235.227 116.717 235.707 117.197 235.707 117.787C235.707 118.377 235.227 118.857 234.637 118.857Z" fill="#8FC4C8"/>
<path d="M234.637 150.947H74.2067C73.6167 150.947 73.1367 150.467 73.1367 149.877C73.1367 149.287 73.6167 148.807 74.2067 148.807H234.637C235.227 148.807 235.707 149.287 235.707 149.877C235.707 150.467 235.227 150.947 234.637 150.947Z" fill="#8FC4C8"/>
<path d="M204.156 247.207C203.566 247.207 203.086 246.727 203.086 246.137V85.7067C203.086 85.1167 203.566 84.6367 204.156 84.6367C204.746 84.6367 205.226 85.1167 205.226 85.7067V246.137C205.226 246.727 204.746 247.207 204.156 247.207Z" fill="#8FC4C8"/>
<path d="M172.066 247.207C171.476 247.207 170.996 246.727 170.996 246.137V85.7067C170.996 85.1167 171.476 84.6367 172.066 84.6367C172.656 84.6367 173.136 85.1167 173.136 85.7067V246.137C173.136 246.727 172.656 247.207 172.066 247.207Z" fill="#8FC4C8"/>
</g>
<path d="M170.996 84.3477H169.926V244.778H170.996V84.3477Z" fill="#8FC4C8"/>
<path d="M203.086 84.3477H202.016V244.778H203.086V84.3477Z" fill="#8FC4C8"/>
<path d="M234.637 115.896H74.207V116.966H234.637V115.896Z" fill="#8FC4C8"/>
<path d="M234.637 147.986H74.207V149.056H234.637V147.986Z" fill="#8FC4C8"/>
<g style="mix-blend-mode:multiply" opacity="0.3">
<path d="M147.637 178.546H167.377C168.067 178.546 168.627 177.986 168.627 177.296V158.746L166.377 176.016L147.637 178.536V178.546Z" fill="#8FC4C8"/>
</g>
<g style="mix-blend-mode:multiply" opacity="0.3">
<path d="M179.576 178.546H199.316C200.006 178.546 200.566 177.986 200.566 177.296V158.746L198.316 176.016L179.576 178.536V178.546Z" fill="#8FC4C8"/>
</g>
<g style="mix-blend-mode:multiply" opacity="0.3">
<path d="M211.527 178.546H231.267C231.957 178.546 232.517 177.986 232.517 177.296V158.746L230.267 176.016L211.527 178.536V178.546Z" fill="#8FC4C8"/>
</g>
<g style="mix-blend-mode:multiply" opacity="0.3">
<path d="M147.637 146.556H167.377C168.067 146.556 168.627 145.996 168.627 145.306V126.756L166.377 144.026L147.637 146.546V146.556Z" fill="#8FC4C8"/>
</g>
<g style="mix-blend-mode:multiply" opacity="0.3">
<path d="M179.576 146.556H199.316C200.006 146.556 200.566 145.996 200.566 145.306V126.756L198.316 144.026L179.576 146.546V146.556Z" fill="#8FC4C8"/>
</g>
<g style="mix-blend-mode:multiply" opacity="0.3">
<path d="M211.527 146.556H231.267C231.957 146.556 232.517 145.996 232.517 145.306V126.756L230.267 144.026L211.527 146.546V146.556Z" fill="#8FC4C8"/>
</g>
<g style="mix-blend-mode:multiply" opacity="0.3">
<path d="M147.637 114.566H167.377C168.067 114.566 168.627 114.006 168.627 113.316V94.7656L166.377 112.036L147.637 114.556V114.566Z" fill="#8FC4C8"/>
</g>
<g style="mix-blend-mode:multiply" opacity="0.3">
<path d="M179.576 114.566H199.316C200.006 114.566 200.566 114.006 200.566 113.316V94.7656L198.316 112.036L179.576 114.556V114.566Z" fill="#8FC4C8"/>
</g>
<g style="mix-blend-mode:multiply" opacity="0.3">
<path d="M211.527 114.566H231.267C231.957 114.566 232.517 114.006 232.517 113.316V94.7656L230.267 112.036L211.527 114.556V114.566Z" fill="#8FC4C8"/>
</g>
</g>
</g>
<mask id="mask9_1271_140647" style="mask-type:luminance" maskUnits="userSpaceOnUse" x="91" y="-28" width="129" height="130">
<path d="M219.397 -27.0117H91.0469V101.338H219.397V-27.0117Z" fill="white"/>
</mask>
<g mask="url(#mask9_1271_140647)">
<mask id="mask10_1271_140647" style="mask-type:luminance" maskUnits="userSpaceOnUse" x="90" y="100" width="129" height="129">
<path d="M218.598 100.389H90.248V228.739H218.598V100.389Z" fill="white"/>
</mask>
<g mask="url(#mask10_1271_140647)">
<path d="M234.639 84.3477H74.209V244.778H234.639V84.3477Z" fill="#C9DFE7"/>
<g style="mix-blend-mode:screen" opacity="0.4">
<path d="M204.158 247.209C203.568 247.209 203.088 246.729 203.088 246.139V85.7087C203.088 85.1187 203.568 84.6387 204.158 84.6387C204.748 84.6387 205.228 85.1187 205.228 85.7087V246.139C205.228 246.729 204.748 247.209 204.158 247.209Z" fill="#8FC4C8"/>
<path d="M172.068 247.209C171.478 247.209 170.998 246.729 170.998 246.139V85.7087C170.998 85.1187 171.478 84.6387 172.068 84.6387C172.658 84.6387 173.138 85.1187 173.138 85.7087V246.139C173.138 246.729 172.658 247.209 172.068 247.209Z" fill="#8FC4C8"/>
</g>
<path d="M170.998 84.3477H169.928V244.778H170.998V84.3477Z" fill="#8FC4C8"/>
<path d="M203.088 84.3477H202.018V244.778H203.088V84.3477Z" fill="#8FC4C8"/>
<g style="mix-blend-mode:multiply" opacity="0.3">
<path d="M147.639 114.57H167.379C168.069 114.57 168.629 114.01 168.629 113.32V94.7695L166.379 112.04L147.639 114.56V114.57Z" fill="#8FC4C8"/>
</g>
<g style="mix-blend-mode:multiply" opacity="0.3">
<path d="M179.578 114.57H199.318C200.008 114.57 200.568 114.01 200.568 113.32V94.7695L198.318 112.04L179.578 114.56V114.57Z" fill="#8FC4C8"/>
</g>
<g style="mix-blend-mode:multiply" opacity="0.3">
<path d="M211.527 114.57H231.267C231.957 114.57 232.517 114.01 232.517 113.32V94.7695L230.267 112.04L211.527 114.56V114.57Z" fill="#8FC4C8"/>
</g>
</g>
<mask id="mask11_1271_140647" style="mask-type:luminance" maskUnits="userSpaceOnUse" x="218" y="-28" width="129" height="129">
<path d="M346.948 -27.9609H218.598V100.389H346.948V-27.9609Z" fill="white"/>
</mask>
<g mask="url(#mask11_1271_140647)">
<path d="M362.979 -44H202.549V116.43H362.979V-44Z" fill="#C9DFE7"/>
<g style="mix-blend-mode:screen" opacity="0.4">
<path d="M362.988 54.6888H202.558C201.968 54.6888 201.488 54.2088 201.488 53.6188C201.488 53.0288 201.968 52.5488 202.558 52.5488H362.988C363.578 52.5488 364.058 53.0288 364.058 53.6188C364.058 54.2088 363.578 54.6888 362.988 54.6888Z" fill="#8FC4C8"/>
<path d="M362.988 86.7689H202.558C201.968 86.7689 201.488 86.2889 201.488 85.6989C201.488 85.1089 201.968 84.6289 202.558 84.6289H362.988C363.578 84.6289 364.058 85.1089 364.058 85.6989C364.058 86.2889 363.578 86.7689 362.988 86.7689Z" fill="#8FC4C8"/>
</g>
<path d="M362.979 51.7305H202.549V52.8005H362.979V51.7305Z" fill="#8FC4C8"/>
<path d="M362.979 83.8105H202.549V84.8806H362.979V83.8105Z" fill="#8FC4C8"/>
<g style="mix-blend-mode:multiply" opacity="0.3">
<path d="M212.107 114.179H231.847C232.537 114.179 233.097 113.619 233.097 112.929V94.3789L230.847 111.649L212.107 114.169V114.179Z" fill="#8FC4C8"/>
</g>
<g style="mix-blend-mode:multiply" opacity="0.3">
<path d="M212.107 82.1906H231.847C232.537 82.1906 233.097 81.6306 233.097 80.9406V62.3906L230.847 79.6606L212.107 82.1806V82.1906Z" fill="#8FC4C8"/>
</g>
<g style="mix-blend-mode:multiply" opacity="0.3">
<path d="M212.107 50.2004H231.847C232.537 50.2004 233.097 49.6404 233.097 48.9504V30.4004L230.847 47.6704L212.107 50.1904V50.2004Z" fill="#8FC4C8"/>
</g>
</g>
<mask id="mask12_1271_140647" style="mask-type:luminance" maskUnits="userSpaceOnUse" x="89" y="-28" width="131" height="130">
<path d="M219.767 101.809L89.8574 101.689L90.2474 -27.9609H218.597L219.767 101.809Z" fill="white"/>
</mask>
<g mask="url(#mask12_1271_140647)">
<path d="M234.637 -44H74.207V116.43H234.637V-44Z" fill="#C9DFE7"/>
<g style="mix-blend-mode:screen" opacity="0.4">
<path d="M234.637 54.6888H74.2067C73.6167 54.6888 73.1367 54.2088 73.1367 53.6188C73.1367 53.0288 73.6167 52.5488 74.2067 52.5488H234.637C235.227 52.5488 235.707 53.0288 235.707 53.6188C235.707 54.2088 235.227 54.6888 234.637 54.6888Z" fill="#8FC4C8"/>
<path d="M234.637 86.7689H74.2067C73.6167 86.7689 73.1367 86.2889 73.1367 85.6989C73.1367 85.1089 73.6167 84.6289 74.2067 84.6289H234.637C235.227 84.6289 235.707 85.1089 235.707 85.6989C235.707 86.2889 235.227 86.7689 234.637 86.7689Z" fill="#8FC4C8"/>
<path d="M204.156 118.859C203.566 118.859 203.086 118.379 203.086 117.789V-42.6409C203.086 -43.2309 203.566 -43.7109 204.156 -43.7109C204.746 -43.7109 205.226 -43.2309 205.226 -42.6409V117.789C205.226 118.379 204.746 118.859 204.156 118.859Z" fill="#8FC4C8"/>
<path d="M172.066 118.859C171.476 118.859 170.996 118.379 170.996 117.789V-42.6409C170.996 -43.2309 171.476 -43.7109 172.066 -43.7109C172.656 -43.7109 173.136 -43.2309 173.136 -42.6409V117.789C173.136 118.379 172.656 118.859 172.066 118.859Z" fill="#8FC4C8"/>
</g>
<path d="M170.996 -44H169.926V116.43H170.996V-44Z" fill="#8FC4C8"/>
<path d="M203.086 -44H202.016V116.43H203.086V-44Z" fill="#8FC4C8"/>
<path d="M234.637 51.7285H74.207V52.7985H234.637V51.7285Z" fill="#8FC4C8"/>
<path d="M234.637 83.8086H74.207V84.8786H234.637V83.8086Z" fill="#8FC4C8"/>
<g style="mix-blend-mode:multiply" opacity="0.3">
<path d="M147.637 114.179H167.377C168.067 114.179 168.627 113.619 168.627 112.929V94.3789L166.377 111.649L147.637 114.169V114.179Z" fill="#8FC4C8"/>
</g>
<g style="mix-blend-mode:multiply" opacity="0.3">
<path d="M179.576 114.179H199.316C200.006 114.179 200.566 113.619 200.566 112.929V94.3789L198.316 111.649L179.576 114.169V114.179Z" fill="#8FC4C8"/>
</g>
<g style="mix-blend-mode:multiply" opacity="0.3">
<path d="M211.525 114.179H231.265C231.955 114.179 232.515 113.619 232.515 112.929V94.3789L230.265 111.649L211.525 114.169V114.179Z" fill="#8FC4C8"/>
</g>
<g style="mix-blend-mode:multiply" opacity="0.3">
<path d="M147.637 82.1906H167.377C168.067 82.1906 168.627 81.6306 168.627 80.9406V62.3906L166.377 79.6606L147.637 82.1806V82.1906Z" fill="#8FC4C8"/>
</g>
<g style="mix-blend-mode:multiply" opacity="0.3">
<path d="M179.576 82.1906H199.316C200.006 82.1906 200.566 81.6306 200.566 80.9406V62.3906L198.316 79.6606L179.576 82.1806V82.1906Z" fill="#8FC4C8"/>
</g>
<g style="mix-blend-mode:multiply" opacity="0.3">
<path d="M211.525 82.1906H231.265C231.955 82.1906 232.515 81.6306 232.515 80.9406V62.3906L230.265 79.6606L211.525 82.1806V82.1906Z" fill="#8FC4C8"/>
</g>
<g style="mix-blend-mode:multiply" opacity="0.3">
<path d="M147.637 50.2004H167.377C168.067 50.2004 168.627 49.6404 168.627 48.9504V30.4004L166.377 47.6704L147.637 50.1904V50.2004Z" fill="#8FC4C8"/>
</g>
<g style="mix-blend-mode:multiply" opacity="0.3">
<path d="M179.576 50.2004H199.316C200.006 50.2004 200.566 49.6404 200.566 48.9504V30.4004L198.316 47.6704L179.576 50.1904V50.2004Z" fill="#8FC4C8"/>
</g>
<g style="mix-blend-mode:multiply" opacity="0.3">
<path d="M211.525 50.2004H231.265C231.955 50.2004 232.515 49.6404 232.515 48.9504V30.4004L230.265 47.6704L211.525 50.1904V50.2004Z" fill="#8FC4C8"/>
</g>
</g>
</g>
</g>
<mask id="mask13_1271_140647" style="mask-type:luminance" maskUnits="userSpaceOnUse" x="155" y="165" width="129" height="130">
<path d="M283.467 165.98H155.117V294.33H283.467V165.98Z" fill="white"/>
</mask>
<g mask="url(#mask13_1271_140647)">
<mask id="mask14_1271_140647" style="mask-type:luminance" maskUnits="userSpaceOnUse" x="91" y="229" width="129" height="130">
<path d="M219.397 229.68H91.0469V358.03H219.397V229.68Z" fill="white"/>
</mask>
<g mask="url(#mask14_1271_140647)">
<mask id="mask15_1271_140647" style="mask-type:luminance" maskUnits="userSpaceOnUse" x="218" y="228" width="129" height="130">
<path d="M346.946 228.74H218.596V357.09H346.946V228.74Z" fill="white"/>
</mask>
<g mask="url(#mask15_1271_140647)">
<path d="M362.977 212.691H202.547V373.121H362.977V212.691Z" fill="#C9DFE7"/>
<g style="mix-blend-mode:screen" opacity="0.4">
</g>
<g style="mix-blend-mode:multiply" opacity="0.3">
<path d="M212.105 242.921H231.845C232.535 242.921 233.095 242.361 233.095 241.671V223.121L230.845 240.391L212.105 242.911V242.921Z" fill="#8FC4C8"/>
</g>
</g>
<mask id="mask16_1271_140647" style="mask-type:luminance" maskUnits="userSpaceOnUse" x="90" y="228" width="129" height="130">
<path d="M218.596 228.74H90.2461V357.09H218.596V228.74Z" fill="white"/>
</mask>
<g mask="url(#mask16_1271_140647)">
<path d="M234.637 212.689H74.207V373.119H234.637V212.689Z" fill="#C9DFE7"/>
<g style="mix-blend-mode:screen" opacity="0.4">
<path d="M204.156 375.56C203.566 375.56 203.086 375.08 203.086 374.49V214.06C203.086 213.47 203.566 212.99 204.156 212.99C204.746 212.99 205.226 213.47 205.226 214.06V374.49C205.226 375.08 204.746 375.56 204.156 375.56Z" fill="#8FC4C8"/>
<path d="M172.066 375.56C171.476 375.56 170.996 375.08 170.996 374.49V214.06C170.996 213.47 171.476 212.99 172.066 212.99C172.656 212.99 173.136 213.47 173.136 214.06V374.49C173.136 375.08 172.656 375.56 172.066 375.56Z" fill="#8FC4C8"/>
</g>
<path d="M170.996 212.689H169.926V373.119H170.996V212.689Z" fill="#8FC4C8"/>
<path d="M203.086 212.689H202.016V373.119H203.086V212.689Z" fill="#8FC4C8"/>
<g style="mix-blend-mode:multiply" opacity="0.3">
<path d="M147.637 242.921H167.377C168.067 242.921 168.627 242.361 168.627 241.671V223.121L166.377 240.391L147.637 242.911V242.921Z" fill="#8FC4C8"/>
</g>
<g style="mix-blend-mode:multiply" opacity="0.3">
<path d="M179.576 242.921H199.316C200.006 242.921 200.566 242.361 200.566 241.671V223.121L198.316 240.391L179.576 242.911V242.921Z" fill="#8FC4C8"/>
</g>
<g style="mix-blend-mode:multiply" opacity="0.3">
<path d="M211.527 242.921H231.267C231.957 242.921 232.517 242.361 232.517 241.671V223.121L230.267 240.391L211.527 242.911V242.921Z" fill="#8FC4C8"/>
</g>
</g>
</g>
<mask id="mask17_1271_140647" style="mask-type:luminance" maskUnits="userSpaceOnUse" x="91" y="101" width="129" height="129">
<path d="M219.397 101.34H91.0469V229.69H219.397V101.34Z" fill="white"/>
</mask>
<g mask="url(#mask17_1271_140647)">
<mask id="mask18_1271_140647" style="mask-type:luminance" maskUnits="userSpaceOnUse" x="90" y="228" width="129" height="130">
<path d="M218.596 228.74H90.2461V357.09H218.596V228.74Z" fill="white"/>
</mask>
<g mask="url(#mask18_1271_140647)">
<path d="M234.637 212.689H74.207V373.119H234.637V212.689Z" fill="#C9DFE7"/>
<g style="mix-blend-mode:screen" opacity="0.4">
<path d="M204.156 375.56C203.566 375.56 203.086 375.08 203.086 374.49V214.06C203.086 213.47 203.566 212.99 204.156 212.99C204.746 212.99 205.226 213.47 205.226 214.06V374.49C205.226 375.08 204.746 375.56 204.156 375.56Z" fill="#8FC4C8"/>
<path d="M172.066 375.56C171.476 375.56 170.996 375.08 170.996 374.49V214.06C170.996 213.47 171.476 212.99 172.066 212.99C172.656 212.99 173.136 213.47 173.136 214.06V374.49C173.136 375.08 172.656 375.56 172.066 375.56Z" fill="#8FC4C8"/>
</g>
<path d="M170.996 212.689H169.926V373.119H170.996V212.689Z" fill="#8FC4C8"/>
<path d="M203.086 212.689H202.016V373.119H203.086V212.689Z" fill="#8FC4C8"/>
<g style="mix-blend-mode:multiply" opacity="0.3">
<path d="M147.637 242.921H167.377C168.067 242.921 168.627 242.361 168.627 241.671V223.121L166.377 240.391L147.637 242.911V242.921Z" fill="#8FC4C8"/>
</g>
<g style="mix-blend-mode:multiply" opacity="0.3">
<path d="M179.576 242.921H199.316C200.006 242.921 200.566 242.361 200.566 241.671V223.121L198.316 240.391L179.576 242.911V242.921Z" fill="#8FC4C8"/>
</g>
<g style="mix-blend-mode:multiply" opacity="0.3">
<path d="M211.525 242.921H231.265C231.955 242.921 232.515 242.361 232.515 241.671V223.121L230.265 240.391L211.525 242.911V242.921Z" fill="#8FC4C8"/>
</g>
</g>
<mask id="mask19_1271_140647" style="mask-type:luminance" maskUnits="userSpaceOnUse" x="218" y="100" width="129" height="129">
<path d="M346.946 100.391H218.596V228.741H346.946V100.391Z" fill="white"/>
</mask>
<g mask="url(#mask19_1271_140647)">
<path d="M362.977 84.3516H202.547V244.782H362.977V84.3516Z" fill="#C9DFE7"/>
<g style="mix-blend-mode:screen" opacity="0.4">
<path d="M362.986 183.04H202.556C201.966 183.04 201.486 182.56 201.486 181.97C201.486 181.38 201.966 180.9 202.556 180.9H362.986C363.576 180.9 364.056 181.38 364.056 181.97C364.056 182.56 363.576 183.04 362.986 183.04Z" fill="#8FC4C8"/>
<path d="M362.986 215.12H202.556C201.966 215.12 201.486 214.64 201.486 214.05C201.486 213.46 201.966 212.98 202.556 212.98H362.986C363.576 212.98 364.056 213.46 364.056 214.05C364.056 214.64 363.576 215.12 362.986 215.12Z" fill="#8FC4C8"/>
</g>
<path d="M362.977 180.072H202.547V181.142H362.977V180.072Z" fill="#8FC4C8"/>
<path d="M362.977 212.162H202.547V213.232H362.977V212.162Z" fill="#8FC4C8"/>
<g style="mix-blend-mode:multiply" opacity="0.3">
<path d="M212.105 242.532H231.845C232.535 242.532 233.095 241.972 233.095 241.282V222.732L230.845 240.002L212.105 242.522V242.532Z" fill="#8FC4C8"/>
</g>
<g style="mix-blend-mode:multiply" opacity="0.3">
<path d="M212.105 210.542H231.845C232.535 210.542 233.095 209.982 233.095 209.292V190.742L230.845 208.012L212.105 210.532V210.542Z" fill="#8FC4C8"/>
</g>
<g style="mix-blend-mode:multiply" opacity="0.3">
<path d="M212.105 178.552H231.845C232.535 178.552 233.095 177.992 233.095 177.302V158.752L230.845 176.022L212.105 178.542V178.552Z" fill="#8FC4C8"/>
</g>
</g>
<mask id="mask20_1271_140647" style="mask-type:luminance" maskUnits="userSpaceOnUse" x="90" y="100" width="129" height="129">
<path d="M218.596 100.391H90.2461V228.741H218.596V100.391Z" fill="white"/>
</mask>
<g mask="url(#mask20_1271_140647)">
<path d="M234.637 84.3516H74.207V244.782H234.637V84.3516Z" fill="#C9DFE7"/>
<g style="mix-blend-mode:screen" opacity="0.4">
<path d="M234.637 183.04H74.2067C73.6167 183.04 73.1367 182.56 73.1367 181.97C73.1367 181.38 73.6167 180.9 74.2067 180.9H234.637C235.227 180.9 235.707 181.38 235.707 181.97C235.707 182.56 235.227 183.04 234.637 183.04Z" fill="#8FC4C8"/>
<path d="M234.637 215.12H74.2067C73.6167 215.12 73.1367 214.64 73.1367 214.05C73.1367 213.46 73.6167 212.98 74.2067 212.98H234.637C235.227 212.98 235.707 213.46 235.707 214.05C235.707 214.64 235.227 215.12 234.637 215.12Z" fill="#8FC4C8"/>
<path d="M204.156 247.211C203.566 247.211 203.086 246.731 203.086 246.141V85.7106C203.086 85.1206 203.566 84.6406 204.156 84.6406C204.746 84.6406 205.226 85.1206 205.226 85.7106V246.141C205.226 246.731 204.746 247.211 204.156 247.211Z" fill="#8FC4C8"/>
<path d="M172.066 247.211C171.476 247.211 170.996 246.731 170.996 246.141V85.7106C170.996 85.1206 171.476 84.6406 172.066 84.6406C172.656 84.6406 173.136 85.1206 173.136 85.7106V246.141C173.136 246.731 172.656 247.211 172.066 247.211Z" fill="#8FC4C8"/>
</g>
<path d="M170.996 84.3516H169.926V244.782H170.996V84.3516Z" fill="#8FC4C8"/>
<path d="M203.086 84.3516H202.016V244.782H203.086V84.3516Z" fill="#8FC4C8"/>
<path d="M234.637 180.07H74.207V181.14H234.637V180.07Z" fill="#8FC4C8"/>
<path d="M234.637 212.16H74.207V213.23H234.637V212.16Z" fill="#8FC4C8"/>
<g style="mix-blend-mode:multiply" opacity="0.3">
<path d="M147.637 242.53H167.377C168.067 242.53 168.627 241.97 168.627 241.28V222.73L166.377 240L147.637 242.52V242.53Z" fill="#8FC4C8"/>
</g>
<g style="mix-blend-mode:multiply" opacity="0.3">
<path d="M179.576 242.53H199.316C200.006 242.53 200.566 241.97 200.566 241.28V222.73L198.316 240L179.576 242.52V242.53Z" fill="#8FC4C8"/>
</g>
<g style="mix-blend-mode:multiply" opacity="0.3">
<path d="M211.525 242.53H231.265C231.955 242.53 232.515 241.97 232.515 241.28V222.73L230.265 240L211.525 242.52V242.53Z" fill="#8FC4C8"/>
</g>
<g style="mix-blend-mode:multiply" opacity="0.3">
<path d="M147.637 210.54H167.377C168.067 210.54 168.627 209.98 168.627 209.29V190.74L166.377 208.01L147.637 210.53V210.54Z" fill="#8FC4C8"/>
</g>
<g style="mix-blend-mode:multiply" opacity="0.3">
<path d="M179.576 210.54H199.316C200.006 210.54 200.566 209.98 200.566 209.29V190.74L198.316 208.01L179.576 210.53V210.54Z" fill="#8FC4C8"/>
</g>
<g style="mix-blend-mode:multiply" opacity="0.3">
<path d="M211.525 210.54H231.265C231.955 210.54 232.515 209.98 232.515 209.29V190.74L230.265 208.01L211.525 210.53V210.54Z" fill="#8FC4C8"/>
</g>
<g style="mix-blend-mode:multiply" opacity="0.3">
<path d="M147.637 178.55H167.377C168.067 178.55 168.627 177.99 168.627 177.3V158.75L166.377 176.02L147.637 178.54V178.55Z" fill="#8FC4C8"/>
</g>
<g style="mix-blend-mode:multiply" opacity="0.3">
<path d="M179.576 178.55H199.316C200.006 178.55 200.566 177.99 200.566 177.3V158.75L198.316 176.02L179.576 178.54V178.55Z" fill="#8FC4C8"/>
</g>
<g style="mix-blend-mode:multiply" opacity="0.3">
<path d="M211.525 178.55H231.265C231.955 178.55 232.515 177.99 232.515 177.3V158.75L230.265 176.02L211.525 178.54V178.55Z" fill="#8FC4C8"/>
</g>
</g>
</g>
</g>
<mask id="mask21_1271_140647" style="mask-type:luminance" maskUnits="userSpaceOnUse" x="26" y="-91" width="130" height="129">
<path d="M155.118 -90.7109H26.7676V37.6391H155.118V-90.7109Z" fill="white"/>
</mask>
<g mask="url(#mask21_1271_140647)">
<mask id="mask22_1271_140647" style="mask-type:luminance" maskUnits="userSpaceOnUse" x="91" y="-28" width="129" height="130">
<path d="M219.397 -27.0117H91.0469V101.338H219.397V-27.0117Z" fill="white"/>
</mask>
<g mask="url(#mask22_1271_140647)">
<mask id="mask23_1271_140647" style="mask-type:luminance" maskUnits="userSpaceOnUse" x="90" y="-28" width="129" height="129">
<path d="M218.596 -27.9609H90.2461V100.389H218.596V-27.9609Z" fill="white"/>
</mask>
<g mask="url(#mask23_1271_140647)">
<path d="M234.637 -44H74.207V116.43H234.637V-44Z" fill="#C9DFE7"/>
<g style="mix-blend-mode:screen" opacity="0.4">
<path d="M234.637 22.599H74.2067C73.6167 22.599 73.1367 22.119 73.1367 21.529C73.1367 20.939 73.6167 20.459 74.2067 20.459H234.637C235.227 20.459 235.707 20.939 235.707 21.529C235.707 22.119 235.227 22.599 234.637 22.599Z" fill="#8FC4C8"/>
<path d="M139.976 118.859C139.386 118.859 138.906 118.379 138.906 117.789V-42.6409C138.906 -43.2309 139.386 -43.7109 139.976 -43.7109C140.566 -43.7109 141.046 -43.2309 141.046 -42.6409V117.789C141.046 118.379 140.566 118.859 139.976 118.859Z" fill="#8FC4C8"/>
<path d="M107.896 118.859C107.306 118.859 106.826 118.379 106.826 117.789V-42.6409C106.826 -43.2309 107.306 -43.7109 107.896 -43.7109C108.486 -43.7109 108.966 -43.2309 108.966 -42.6409V117.789C108.966 118.379 108.486 118.859 107.896 118.859Z" fill="#8FC4C8"/>
</g>
<path d="M106.826 -44H105.756V116.43H106.826V-44Z" fill="#8FC4C8"/>
<path d="M138.906 -44H137.836V116.43H138.906V-44Z" fill="#8FC4C8"/>
<path d="M234.637 19.6387H74.207V20.7087H234.637V19.6387Z" fill="#8FC4C8"/>
<g style="mix-blend-mode:multiply" opacity="0.3">
<path d="M83.7559 50.2004H103.496C104.186 50.2004 104.746 49.6404 104.746 48.9504V30.4004L102.496 47.6704L83.7559 50.1904V50.2004Z" fill="#8FC4C8"/>
</g>
<g style="mix-blend-mode:multiply" opacity="0.3">
<path d="M115.695 50.2004H135.435C136.125 50.2004 136.685 49.6404 136.685 48.9504V30.4004L134.435 47.6704L115.695 50.1904V50.2004Z" fill="#8FC4C8"/>
</g>
<g style="mix-blend-mode:multiply" opacity="0.3">
<path d="M147.637 50.2004H167.377C168.067 50.2004 168.627 49.6404 168.627 48.9504V30.4004L166.377 47.6704L147.637 50.1904V50.2004Z" fill="#8FC4C8"/>
</g>
<g style="mix-blend-mode:multiply" opacity="0.3">
<path d="M83.7559 18.2102H103.496C104.186 18.2102 104.746 17.6502 104.746 16.9602V-1.58984L102.496 15.6802L83.7559 18.2002V18.2102Z" fill="#8FC4C8"/>
</g>
<g style="mix-blend-mode:multiply" opacity="0.3">
<path d="M115.695 18.2102H135.435C136.125 18.2102 136.685 17.6502 136.685 16.9602V-1.58984L134.435 15.6802L115.695 18.2002V18.2102Z" fill="#8FC4C8"/>
</g>
<g style="mix-blend-mode:multiply" opacity="0.3">
<path d="M147.637 18.2102H167.377C168.067 18.2102 168.627 17.6502 168.627 16.9602V-1.58984L166.377 15.6802L147.637 18.2002V18.2102Z" fill="#8FC4C8"/>
</g>
</g>
</g>
<mask id="mask24_1271_140647" style="mask-type:luminance" maskUnits="userSpaceOnUse" x="-38" y="-28" width="130" height="130">
<path d="M91.0473 -27.0117H-37.3027V101.338H91.0473V-27.0117Z" fill="white"/>
</mask>
<g mask="url(#mask24_1271_140647)">
<mask id="mask25_1271_140647" style="mask-type:luminance" maskUnits="userSpaceOnUse" x="90" y="-28" width="129" height="129">
<path d="M218.596 -27.9609H90.2461V100.389H218.596V-27.9609Z" fill="white"/>
</mask>
<g mask="url(#mask25_1271_140647)">
<path d="M234.637 -44H74.207V116.43H234.637V-44Z" fill="#C9DFE7"/>
<g style="mix-blend-mode:screen" opacity="0.4">
<path d="M234.637 22.599H74.2067C73.6167 22.599 73.1367 22.119 73.1367 21.529C73.1367 20.939 73.6167 20.459 74.2067 20.459H234.637C235.227 20.459 235.707 20.939 235.707 21.529C235.707 22.119 235.227 22.599 234.637 22.599Z" fill="#8FC4C8"/>
</g>
<path d="M234.637 19.6406H74.207V20.7106H234.637V19.6406Z" fill="#8FC4C8"/>
<g style="mix-blend-mode:multiply" opacity="0.3">
<path d="M83.7559 50.2004H103.496C104.186 50.2004 104.746 49.6404 104.746 48.9504V30.4004L102.496 47.6704L83.7559 50.1904V50.2004Z" fill="#8FC4C8"/>
</g>
<g style="mix-blend-mode:multiply" opacity="0.3">
<path d="M83.7559 18.2102H103.496C104.186 18.2102 104.746 17.6502 104.746 16.9602V-1.58984L102.496 15.6802L83.7559 18.2002V18.2102Z" fill="#8FC4C8"/>
</g>
</g>
<mask id="mask26_1271_140647" style="mask-type:luminance" maskUnits="userSpaceOnUse" x="-39" y="-28" width="130" height="129">
<path d="M90.2465 -27.9609H-38.1035V100.389H90.2465V-27.9609Z" fill="white"/>
</mask>
<g mask="url(#mask26_1271_140647)">
<path d="M106.287 -44H-54.1426V116.43H106.287V-44Z" fill="#C9DFE7"/>
<g style="mix-blend-mode:screen" opacity="0.4">
<path d="M106.287 22.599H-54.1429C-54.7329 22.599 -55.2129 22.119 -55.2129 21.529C-55.2129 20.939 -54.7329 20.459 -54.1429 20.459H106.287C106.877 20.459 107.357 20.939 107.357 21.529C107.357 22.119 106.877 22.599 106.287 22.599Z" fill="#8FC4C8"/>
<path d="M75.8063 118.859C75.2163 118.859 74.7363 118.379 74.7363 117.789V-42.6409C74.7363 -43.2309 75.2163 -43.7109 75.8063 -43.7109C76.3963 -43.7109 76.8763 -43.2309 76.8763 -42.6409V117.789C76.8763 118.379 76.3963 118.859 75.8063 118.859Z" fill="#8FC4C8"/>
<path d="M43.7165 118.859C43.1265 118.859 42.6465 118.379 42.6465 117.789V-42.6409C42.6465 -43.2309 43.1265 -43.7109 43.7165 -43.7109C44.3065 -43.7109 44.7865 -43.2309 44.7865 -42.6409V117.789C44.7865 118.379 44.3065 118.859 43.7165 118.859Z" fill="#8FC4C8"/>
</g>
<path d="M42.6462 -44H41.5762V116.43H42.6462V-44Z" fill="#8FC4C8"/>
<path d="M74.736 -44H73.666V116.43H74.736V-44Z" fill="#8FC4C8"/>
<path d="M106.287 19.6387H-54.1426V20.7087H106.287V19.6387Z" fill="#8FC4C8"/>
<g style="mix-blend-mode:multiply" opacity="0.3">
<path d="M19.2871 50.2004H39.0271C39.7171 50.2004 40.2771 49.6404 40.2771 48.9504V30.4004L38.0271 47.6704L19.2871 50.1904V50.2004Z" fill="#8FC4C8"/>
</g>
<g style="mix-blend-mode:multiply" opacity="0.3">
<path d="M51.2363 50.2004H70.9763C71.6663 50.2004 72.2263 49.6404 72.2263 48.9504V30.4004L69.9763 47.6704L51.2363 50.1904V50.2004Z" fill="#8FC4C8"/>
</g>
<g style="mix-blend-mode:multiply" opacity="0.3">
<path d="M83.1777 50.2004H102.918C103.608 50.2004 104.168 49.6404 104.168 48.9504V30.4004L101.918 47.6704L83.1777 50.1904V50.2004Z" fill="#8FC4C8"/>
</g>
<g style="mix-blend-mode:multiply" opacity="0.3">
<path d="M19.2871 18.2102H39.0271C39.7171 18.2102 40.2771 17.6502 40.2771 16.9602V-1.58984L38.0271 15.6802L19.2871 18.2002V18.2102Z" fill="#8FC4C8"/>
</g>
<g style="mix-blend-mode:multiply" opacity="0.3">
<path d="M51.2363 18.2102H70.9763C71.6663 18.2102 72.2263 17.6502 72.2263 16.9602V-1.58984L69.9763 15.6802L51.2363 18.2002V18.2102Z" fill="#8FC4C8"/>
</g>
<g style="mix-blend-mode:multiply" opacity="0.3">
<path d="M83.1777 18.2102H102.918C103.608 18.2102 104.168 17.6502 104.168 16.9602V-1.58984L101.918 15.6802L83.1777 18.2002V18.2102Z" fill="#8FC4C8"/>
</g>
</g>
</g>
</g>
<mask id="mask27_1271_140647" style="mask-type:luminance" maskUnits="userSpaceOnUse" x="26" y="37" width="130" height="129">
<path d="M155.118 37.6387H26.7676V165.989H155.118V37.6387Z" fill="white"/>
</mask>
<g mask="url(#mask27_1271_140647)">
<mask id="mask28_1271_140647" style="mask-type:luminance" maskUnits="userSpaceOnUse" x="91" y="101" width="129" height="129">
<path d="M219.397 101.338H91.0469V229.688H219.397V101.338Z" fill="white"/>
</mask>
<g mask="url(#mask28_1271_140647)">
<mask id="mask29_1271_140647" style="mask-type:luminance" maskUnits="userSpaceOnUse" x="90" y="100" width="129" height="129">
<path d="M218.596 100.387H90.2461V228.737H218.596V100.387Z" fill="white"/>
</mask>
<g mask="url(#mask29_1271_140647)">
<path d="M234.637 84.3477H74.207V244.778H234.637V84.3477Z" fill="#C9DFE7"/>
<g style="mix-blend-mode:screen" opacity="0.4">
<path d="M234.637 118.857H74.2067C73.6167 118.857 73.1367 118.377 73.1367 117.787C73.1367 117.197 73.6167 116.717 74.2067 116.717H234.637C235.227 116.717 235.707 117.197 235.707 117.787C235.707 118.377 235.227 118.857 234.637 118.857Z" fill="#8FC4C8"/>
<path d="M234.637 150.947H74.2067C73.6167 150.947 73.1367 150.467 73.1367 149.877C73.1367 149.287 73.6167 148.807 74.2067 148.807H234.637C235.227 148.807 235.707 149.287 235.707 149.877C235.707 150.467 235.227 150.947 234.637 150.947Z" fill="#8FC4C8"/>
<path d="M139.976 247.207C139.386 247.207 138.906 246.727 138.906 246.137V85.7067C138.906 85.1167 139.386 84.6367 139.976 84.6367C140.566 84.6367 141.046 85.1167 141.046 85.7067V246.137C141.046 246.727 140.566 247.207 139.976 247.207Z" fill="#8FC4C8"/>
<path d="M107.896 247.207C107.306 247.207 106.826 246.727 106.826 246.137V85.7067C106.826 85.1167 107.306 84.6367 107.896 84.6367C108.486 84.6367 108.966 85.1167 108.966 85.7067V246.137C108.966 246.727 108.486 247.207 107.896 247.207Z" fill="#8FC4C8"/>
</g>
<path d="M106.826 84.3477H105.756V244.778H106.826V84.3477Z" fill="#8FC4C8"/>
<path d="M138.906 84.3477H137.836V244.778H138.906V84.3477Z" fill="#8FC4C8"/>
<path d="M234.637 115.896H74.207V116.966H234.637V115.896Z" fill="#8FC4C8"/>
<path d="M234.637 147.986H74.207V149.056H234.637V147.986Z" fill="#8FC4C8"/>
<g style="mix-blend-mode:multiply" opacity="0.3">
<path d="M83.7559 178.546H103.496C104.186 178.546 104.746 177.986 104.746 177.296V158.746L102.496 176.016L83.7559 178.536V178.546Z" fill="#8FC4C8"/>
</g>
<g style="mix-blend-mode:multiply" opacity="0.3">
<path d="M115.695 178.546H135.435C136.125 178.546 136.685 177.986 136.685 177.296V158.746L134.435 176.016L115.695 178.536V178.546Z" fill="#8FC4C8"/>
</g>
<g style="mix-blend-mode:multiply" opacity="0.3">
<path d="M147.637 178.546H167.377C168.067 178.546 168.627 177.986 168.627 177.296V158.746L166.377 176.016L147.637 178.536V178.546Z" fill="#8FC4C8"/>
</g>
<g style="mix-blend-mode:multiply" opacity="0.3">
<path d="M83.7559 146.556H103.496C104.186 146.556 104.746 145.996 104.746 145.306V126.756L102.496 144.026L83.7559 146.546V146.556Z" fill="#8FC4C8"/>
</g>
<g style="mix-blend-mode:multiply" opacity="0.3">
<path d="M115.695 146.556H135.435C136.125 146.556 136.685 145.996 136.685 145.306V126.756L134.435 144.026L115.695 146.546V146.556Z" fill="#8FC4C8"/>
</g>
<g style="mix-blend-mode:multiply" opacity="0.3">
<path d="M147.637 146.556H167.377C168.067 146.556 168.627 145.996 168.627 145.306V126.756L166.377 144.026L147.637 146.546V146.556Z" fill="#8FC4C8"/>
</g>
<g style="mix-blend-mode:multiply" opacity="0.3">
<path d="M83.7559 114.566H103.496C104.186 114.566 104.746 114.006 104.746 113.316V94.7656L102.496 112.036L83.7559 114.556V114.566Z" fill="#8FC4C8"/>
</g>
<g style="mix-blend-mode:multiply" opacity="0.3">
<path d="M115.695 114.566H135.435C136.125 114.566 136.685 114.006 136.685 113.316V94.7656L134.435 112.036L115.695 114.556V114.566Z" fill="#8FC4C8"/>
</g>
<g style="mix-blend-mode:multiply" opacity="0.3">
<path d="M147.637 114.566H167.377C168.067 114.566 168.627 114.006 168.627 113.316V94.7656L166.377 112.036L147.637 114.556V114.566Z" fill="#8FC4C8"/>
</g>
</g>
</g>
<mask id="mask30_1271_140647" style="mask-type:luminance" maskUnits="userSpaceOnUse" x="-38" y="101" width="130" height="129">
<path d="M91.0473 101.338H-37.3027V229.688H91.0473V101.338Z" fill="white"/>
</mask>
<g mask="url(#mask30_1271_140647)">
<mask id="mask31_1271_140647" style="mask-type:luminance" maskUnits="userSpaceOnUse" x="90" y="100" width="129" height="129">
<path d="M218.596 100.387H90.2461V228.737H218.596V100.387Z" fill="white"/>
</mask>
<g mask="url(#mask31_1271_140647)">
<path d="M234.637 84.3477H74.207V244.778H234.637V84.3477Z" fill="#C9DFE7"/>
<g style="mix-blend-mode:screen" opacity="0.4">
<path d="M234.637 118.857H74.2067C73.6167 118.857 73.1367 118.377 73.1367 117.787C73.1367 117.197 73.6167 116.717 74.2067 116.717H234.637C235.227 116.717 235.707 117.197 235.707 117.787C235.707 118.377 235.227 118.857 234.637 118.857Z" fill="#8FC4C8"/>
<path d="M234.637 150.947H74.2067C73.6167 150.947 73.1367 150.467 73.1367 149.877C73.1367 149.287 73.6167 148.807 74.2067 148.807H234.637C235.227 148.807 235.707 149.287 235.707 149.877C235.707 150.467 235.227 150.947 234.637 150.947Z" fill="#8FC4C8"/>
</g>
<path d="M234.637 115.898H74.207V116.968H234.637V115.898Z" fill="#8FC4C8"/>
<path d="M234.637 147.988H74.207V149.058H234.637V147.988Z" fill="#8FC4C8"/>
<g style="mix-blend-mode:multiply" opacity="0.3">
<path d="M83.7559 178.548H103.496C104.186 178.548 104.746 177.988 104.746 177.298V158.748L102.496 176.018L83.7559 178.538V178.548Z" fill="#8FC4C8"/>
</g>
<g style="mix-blend-mode:multiply" opacity="0.3">
<path d="M83.7559 146.558H103.496C104.186 146.558 104.746 145.998 104.746 145.308V126.758L102.496 144.028L83.7559 146.548V146.558Z" fill="#8FC4C8"/>
</g>
<g style="mix-blend-mode:multiply" opacity="0.3">
<path d="M83.7559 114.568H103.496C104.186 114.568 104.746 114.008 104.746 113.318V94.7676L102.496 112.038L83.7559 114.558V114.568Z" fill="#8FC4C8"/>
</g>
</g>
<mask id="mask32_1271_140647" style="mask-type:luminance" maskUnits="userSpaceOnUse" x="-39" y="100" width="130" height="129">
<path d="M90.2465 100.387H-38.1035V228.737H90.2465V100.387Z" fill="white"/>
</mask>
<g mask="url(#mask32_1271_140647)">
<path d="M106.287 84.3477H-54.1426V244.778H106.287V84.3477Z" fill="#C9DFE7"/>
<g style="mix-blend-mode:screen" opacity="0.4">
<path d="M106.287 118.857H-54.1429C-54.7329 118.857 -55.2129 118.377 -55.2129 117.787C-55.2129 117.197 -54.7329 116.717 -54.1429 116.717H106.287C106.877 116.717 107.357 117.197 107.357 117.787C107.357 118.377 106.877 118.857 106.287 118.857Z" fill="#8FC4C8"/>
<path d="M106.287 150.947H-54.1429C-54.7329 150.947 -55.2129 150.467 -55.2129 149.877C-55.2129 149.287 -54.7329 148.807 -54.1429 148.807H106.287C106.877 148.807 107.357 149.287 107.357 149.877C107.357 150.467 106.877 150.947 106.287 150.947Z" fill="#8FC4C8"/>
<path d="M75.8063 247.207C75.2163 247.207 74.7363 246.727 74.7363 246.137V85.7067C74.7363 85.1167 75.2163 84.6367 75.8063 84.6367C76.3963 84.6367 76.8763 85.1167 76.8763 85.7067V246.137C76.8763 246.727 76.3963 247.207 75.8063 247.207Z" fill="#8FC4C8"/>
<path d="M43.7165 247.207C43.1265 247.207 42.6465 246.727 42.6465 246.137V85.7067C42.6465 85.1167 43.1265 84.6367 43.7165 84.6367C44.3065 84.6367 44.7865 85.1167 44.7865 85.7067V246.137C44.7865 246.727 44.3065 247.207 43.7165 247.207Z" fill="#8FC4C8"/>
</g>
<path d="M42.6462 84.3477H41.5762V244.778H42.6462V84.3477Z" fill="#8FC4C8"/>
<path d="M74.736 84.3477H73.666V244.778H74.736V84.3477Z" fill="#8FC4C8"/>
<path d="M106.287 115.896H-54.1426V116.966H106.287V115.896Z" fill="#8FC4C8"/>
<path d="M106.287 147.986H-54.1426V149.056H106.287V147.986Z" fill="#8FC4C8"/>
<g style="mix-blend-mode:multiply" opacity="0.3">
<path d="M19.2871 178.546H39.0271C39.7171 178.546 40.2771 177.986 40.2771 177.296V158.746L38.0271 176.016L19.2871 178.536V178.546Z" fill="#8FC4C8"/>
</g>
<g style="mix-blend-mode:multiply" opacity="0.3">
<path d="M51.2363 178.546H70.9763C71.6663 178.546 72.2263 177.986 72.2263 177.296V158.746L69.9763 176.016L51.2363 178.536V178.546Z" fill="#8FC4C8"/>
</g>
<g style="mix-blend-mode:multiply" opacity="0.3">
<path d="M83.1777 178.546H102.918C103.608 178.546 104.168 177.986 104.168 177.296V158.746L101.918 176.016L83.1777 178.536V178.546Z" fill="#8FC4C8"/>
</g>
<g style="mix-blend-mode:multiply" opacity="0.3">
<path d="M19.2871 146.556H39.0271C39.7171 146.556 40.2771 145.996 40.2771 145.306V126.756L38.0271 144.026L19.2871 146.546V146.556Z" fill="#8FC4C8"/>
</g>
<g style="mix-blend-mode:multiply" opacity="0.3">
<path d="M51.2363 146.556H70.9763C71.6663 146.556 72.2263 145.996 72.2263 145.306V126.756L69.9763 144.026L51.2363 146.546V146.556Z" fill="#8FC4C8"/>
</g>
<g style="mix-blend-mode:multiply" opacity="0.3">
<path d="M83.1777 146.556H102.918C103.608 146.556 104.168 145.996 104.168 145.306V126.756L101.918 144.026L83.1777 146.546V146.556Z" fill="#8FC4C8"/>
</g>
<g style="mix-blend-mode:multiply" opacity="0.3">
<path d="M19.2871 114.566H39.0271C39.7171 114.566 40.2771 114.006 40.2771 113.316V94.7656L38.0271 112.036L19.2871 114.556V114.566Z" fill="#8FC4C8"/>
</g>
<g style="mix-blend-mode:multiply" opacity="0.3">
<path d="M51.2363 114.566H70.9763C71.6663 114.566 72.2263 114.006 72.2263 113.316V94.7656L69.9763 112.036L51.2363 114.556V114.566Z" fill="#8FC4C8"/>
</g>
<g style="mix-blend-mode:multiply" opacity="0.3">
<path d="M83.1777 114.566H102.918C103.608 114.566 104.168 114.006 104.168 113.316V94.7656L101.918 112.036L83.1777 114.556V114.566Z" fill="#8FC4C8"/>
</g>
</g>
</g>
<mask id="mask33_1271_140647" style="mask-type:luminance" maskUnits="userSpaceOnUse" x="89" y="-28" width="131" height="132">
<path d="M91.0473 -27.0117H219.397V101.338L89.2773 103.438L91.0473 -27.0117Z" fill="white"/>
</mask>
<g mask="url(#mask33_1271_140647)">
<mask id="mask34_1271_140647" style="mask-type:luminance" maskUnits="userSpaceOnUse" x="90" y="100" width="129" height="129">
<path d="M218.598 100.389H90.248V228.739H218.598V100.389Z" fill="white"/>
</mask>
<g mask="url(#mask34_1271_140647)">
<path d="M234.639 84.3477H74.209V244.778H234.639V84.3477Z" fill="#C9DFE7"/>
<g style="mix-blend-mode:screen" opacity="0.4">
<path d="M139.978 247.209C139.388 247.209 138.908 246.729 138.908 246.139V85.7087C138.908 85.1187 139.388 84.6387 139.978 84.6387C140.568 84.6387 141.048 85.1187 141.048 85.7087V246.139C141.048 246.729 140.568 247.209 139.978 247.209Z" fill="#8FC4C8"/>
<path d="M107.898 247.209C107.308 247.209 106.828 246.729 106.828 246.139V85.7087C106.828 85.1187 107.308 84.6387 107.898 84.6387C108.488 84.6387 108.968 85.1187 108.968 85.7087V246.139C108.968 246.729 108.488 247.209 107.898 247.209Z" fill="#8FC4C8"/>
</g>
<path d="M106.828 84.3477H105.758V244.778H106.828V84.3477Z" fill="#8FC4C8"/>
<path d="M138.908 84.3477H137.838V244.778H138.908V84.3477Z" fill="#8FC4C8"/>
<g style="mix-blend-mode:multiply" opacity="0.3">
<path d="M83.7578 114.57H103.498C104.188 114.57 104.748 114.01 104.748 113.32V94.7695L102.498 112.04L83.7578 114.56V114.57Z" fill="#8FC4C8"/>
</g>
<g style="mix-blend-mode:multiply" opacity="0.3">
<path d="M115.697 114.57H135.437C136.127 114.57 136.687 114.01 136.687 113.32V94.7695L134.437 112.04L115.697 114.56V114.57Z" fill="#8FC4C8"/>
</g>
<g style="mix-blend-mode:multiply" opacity="0.3">
<path d="M147.639 114.57H167.379C168.069 114.57 168.629 114.01 168.629 113.32V94.7695L166.379 112.04L147.639 114.56V114.57Z" fill="#8FC4C8"/>
</g>
</g>
<mask id="mask35_1271_140647" style="mask-type:luminance" maskUnits="userSpaceOnUse" x="90" y="-28" width="129" height="129">
<path d="M218.598 -27.9609H90.248V100.389H218.598V-27.9609Z" fill="white"/>
</mask>
<g mask="url(#mask35_1271_140647)">
<path d="M234.639 -44H74.209V116.43H234.639V-44Z" fill="#C9DFE7"/>
<g style="mix-blend-mode:screen" opacity="0.4">
<path d="M234.639 54.6888H74.2086C73.6186 54.6888 73.1387 54.2088 73.1387 53.6188C73.1387 53.0288 73.6186 52.5488 74.2086 52.5488H234.639C235.229 52.5488 235.709 53.0288 235.709 53.6188C235.709 54.2088 235.229 54.6888 234.639 54.6888Z" fill="#8FC4C8"/>
<path d="M234.639 86.7689H74.2086C73.6186 86.7689 73.1387 86.2889 73.1387 85.6989C73.1387 85.1089 73.6186 84.6289 74.2086 84.6289H234.639C235.229 84.6289 235.709 85.1089 235.709 85.6989C235.709 86.2889 235.229 86.7689 234.639 86.7689Z" fill="#8FC4C8"/>
<path d="M139.978 118.859C139.388 118.859 138.908 118.379 138.908 117.789V-42.6409C138.908 -43.2309 139.388 -43.7109 139.978 -43.7109C140.568 -43.7109 141.048 -43.2309 141.048 -42.6409V117.789C141.048 118.379 140.568 118.859 139.978 118.859Z" fill="#8FC4C8"/>
<path d="M107.898 118.859C107.308 118.859 106.828 118.379 106.828 117.789V-42.6409C106.828 -43.2309 107.308 -43.7109 107.898 -43.7109C108.488 -43.7109 108.968 -43.2309 108.968 -42.6409V117.789C108.968 118.379 108.488 118.859 107.898 118.859Z" fill="#8FC4C8"/>
</g>
<path d="M106.828 -44H105.758V116.43H106.828V-44Z" fill="#8FC4C8"/>
<path d="M138.908 -44H137.838V116.43H138.908V-44Z" fill="#8FC4C8"/>
<path d="M234.639 51.7305H74.209V52.8005H234.639V51.7305Z" fill="#8FC4C8"/>
<path d="M234.639 83.8105H74.209V84.8806H234.639V83.8105Z" fill="#8FC4C8"/>
<g style="mix-blend-mode:multiply" opacity="0.3">
<path d="M83.7578 114.181H103.498C104.188 114.181 104.748 113.621 104.748 112.931V94.3809L102.498 111.651L83.7578 114.171V114.181Z" fill="#8FC4C8"/>
</g>
<g style="mix-blend-mode:multiply" opacity="0.3">
<path d="M115.697 114.181H135.437C136.127 114.181 136.687 113.621 136.687 112.931V94.3809L134.437 111.651L115.697 114.171V114.181Z" fill="#8FC4C8"/>
</g>
<g style="mix-blend-mode:multiply" opacity="0.3">
<path d="M147.639 114.181H167.379C168.069 114.181 168.629 113.621 168.629 112.931V94.3809L166.379 111.651L147.639 114.171V114.181Z" fill="#8FC4C8"/>
</g>
<g style="mix-blend-mode:multiply" opacity="0.3">
<path d="M83.7578 82.1906H103.498C104.188 82.1906 104.748 81.6306 104.748 80.9406V62.3906L102.498 79.6606L83.7578 82.1806V82.1906Z" fill="#8FC4C8"/>
</g>
<g style="mix-blend-mode:multiply" opacity="0.3">
<path d="M115.697 82.1906H135.437C136.127 82.1906 136.687 81.6306 136.687 80.9406V62.3906L134.437 79.6606L115.697 82.1806V82.1906Z" fill="#8FC4C8"/>
</g>
<g style="mix-blend-mode:multiply" opacity="0.3">
<path d="M147.639 82.1906H167.379C168.069 82.1906 168.629 81.6306 168.629 80.9406V62.3906L166.379 79.6606L147.639 82.1806V82.1906Z" fill="#8FC4C8"/>
</g>
<g style="mix-blend-mode:multiply" opacity="0.3">
<path d="M83.7578 50.2004H103.498C104.188 50.2004 104.748 49.6404 104.748 48.9504V30.4004L102.498 47.6704L83.7578 50.1904V50.2004Z" fill="#8FC4C8"/>
</g>
<g style="mix-blend-mode:multiply" opacity="0.3">
<path d="M115.697 50.2004H135.437C136.127 50.2004 136.687 49.6404 136.687 48.9504V30.4004L134.437 47.6704L115.697 50.1904V50.2004Z" fill="#8FC4C8"/>
</g>
<g style="mix-blend-mode:multiply" opacity="0.3">
<path d="M147.639 50.2004H167.379C168.069 50.2004 168.629 49.6404 168.629 48.9504V30.4004L166.379 47.6704L147.639 50.1904V50.2004Z" fill="#8FC4C8"/>
</g>
</g>
</g>
<mask id="mask36_1271_140647" style="mask-type:luminance" maskUnits="userSpaceOnUse" x="-38" y="-28" width="130" height="130">
<path d="M-37.3027 -27.0117H91.0473L90.2473 101.548L-37.3027 101.338V-27.0117Z" fill="white"/>
</mask>
<g mask="url(#mask36_1271_140647)">
<mask id="mask37_1271_140647" style="mask-type:luminance" maskUnits="userSpaceOnUse" x="-39" y="100" width="130" height="129">
<path d="M90.2465 100.389H-38.1035V228.739H90.2465V100.389Z" fill="white"/>
</mask>
<g mask="url(#mask37_1271_140647)">
<path d="M106.287 84.3477H-54.1426V244.778H106.287V84.3477Z" fill="#C9DFE7"/>
<g style="mix-blend-mode:screen" opacity="0.4">
<path d="M75.8063 247.209C75.2163 247.209 74.7363 246.729 74.7363 246.139V85.7087C74.7363 85.1187 75.2163 84.6387 75.8063 84.6387C76.3963 84.6387 76.8763 85.1187 76.8763 85.7087V246.139C76.8763 246.729 76.3963 247.209 75.8063 247.209Z" fill="#8FC4C8"/>
<path d="M43.7165 247.209C43.1265 247.209 42.6465 246.729 42.6465 246.139V85.7087C42.6465 85.1187 43.1265 84.6387 43.7165 84.6387C44.3065 84.6387 44.7865 85.1187 44.7865 85.7087V246.139C44.7865 246.729 44.3065 247.209 43.7165 247.209Z" fill="#8FC4C8"/>
</g>
<path d="M42.6462 84.3477H41.5762V244.778H42.6462V84.3477Z" fill="#8FC4C8"/>
<path d="M74.736 84.3477H73.666V244.778H74.736V84.3477Z" fill="#8FC4C8"/>
<g style="mix-blend-mode:multiply" opacity="0.3">
<path d="M19.2871 114.57H39.0271C39.7171 114.57 40.2771 114.01 40.2771 113.32V94.7695L38.0271 112.04L19.2871 114.56V114.57Z" fill="#8FC4C8"/>
</g>
<g style="mix-blend-mode:multiply" opacity="0.3">
<path d="M51.2363 114.57H70.9763C71.6663 114.57 72.2263 114.01 72.2263 113.32V94.7695L69.9763 112.04L51.2363 114.56V114.57Z" fill="#8FC4C8"/>
</g>
<g style="mix-blend-mode:multiply" opacity="0.3">
<path d="M83.1758 114.57H102.916C103.606 114.57 104.166 114.01 104.166 113.32V94.7695L101.916 112.04L83.1758 114.56V114.57Z" fill="#8FC4C8"/>
</g>
</g>
<mask id="mask38_1271_140647" style="mask-type:luminance" maskUnits="userSpaceOnUse" x="90" y="-28" width="129" height="129">
<path d="M218.596 -27.9609H90.2461V100.389H218.596V-27.9609Z" fill="white"/>
</mask>
<g mask="url(#mask38_1271_140647)">
<path d="M234.637 -44H74.207V116.43H234.637V-44Z" fill="#C9DFE7"/>
<g style="mix-blend-mode:screen" opacity="0.4">
<path d="M234.637 54.6888H74.2067C73.6167 54.6888 73.1367 54.2088 73.1367 53.6188C73.1367 53.0288 73.6167 52.5488 74.2067 52.5488H234.637C235.227 52.5488 235.707 53.0288 235.707 53.6188C235.707 54.2088 235.227 54.6888 234.637 54.6888Z" fill="#8FC4C8"/>
<path d="M234.637 86.7689H74.2067C73.6167 86.7689 73.1367 86.2889 73.1367 85.6989C73.1367 85.1089 73.6167 84.6289 74.2067 84.6289H234.637C235.227 84.6289 235.707 85.1089 235.707 85.6989C235.707 86.2889 235.227 86.7689 234.637 86.7689Z" fill="#8FC4C8"/>
</g>
<path d="M234.637 51.7305H74.207V52.8005H234.637V51.7305Z" fill="#8FC4C8"/>
<path d="M234.637 83.8105H74.207V84.8806H234.637V83.8105Z" fill="#8FC4C8"/>
<g style="mix-blend-mode:multiply" opacity="0.3">
<path d="M83.7559 114.179H103.496C104.186 114.179 104.746 113.619 104.746 112.929V94.3789L102.496 111.649L83.7559 114.169V114.179Z" fill="#8FC4C8"/>
</g>
<g style="mix-blend-mode:multiply" opacity="0.3">
<path d="M83.7559 82.1906H103.496C104.186 82.1906 104.746 81.6306 104.746 80.9406V62.3906L102.496 79.6606L83.7559 82.1806V82.1906Z" fill="#8FC4C8"/>
</g>
<g style="mix-blend-mode:multiply" opacity="0.3">
<path d="M83.7559 50.2004H103.496C104.186 50.2004 104.746 49.6404 104.746 48.9504V30.4004L102.496 47.6704L83.7559 50.1904V50.2004Z" fill="#8FC4C8"/>
</g>
</g>
<mask id="mask39_1271_140647" style="mask-type:luminance" maskUnits="userSpaceOnUse" x="-39" y="-28" width="130" height="129">
<path d="M90.2465 -27.9609H-38.1035V100.389H90.2465V-27.9609Z" fill="white"/>
</mask>
<g mask="url(#mask39_1271_140647)">
<path d="M106.287 -43.9004H-54.1426V116.53H106.287V-43.9004Z" fill="#C9DFE7"/>
<g style="mix-blend-mode:screen" opacity="0.4">
<path d="M106.287 54.6888H-54.1429C-54.7329 54.6888 -55.2129 54.2088 -55.2129 53.6188C-55.2129 53.0288 -54.7329 52.5488 -54.1429 52.5488H106.287C106.877 52.5488 107.357 53.0288 107.357 53.6188C107.357 54.2088 106.877 54.6888 106.287 54.6888Z" fill="#8FC4C8"/>
<path d="M106.287 86.7689H-54.1429C-54.7329 86.7689 -55.2129 86.2889 -55.2129 85.6989C-55.2129 85.1089 -54.7329 84.6289 -54.1429 84.6289H106.287C106.877 84.6289 107.357 85.1089 107.357 85.6989C107.357 86.2889 106.877 86.7689 106.287 86.7689Z" fill="#8FC4C8"/>
<path d="M75.8063 118.859C75.2163 118.859 74.7363 118.379 74.7363 117.789V-42.6409C74.7363 -43.2309 75.2163 -43.7109 75.8063 -43.7109C76.3963 -43.7109 76.8763 -43.2309 76.8763 -42.6409V117.789C76.8763 118.379 76.3963 118.859 75.8063 118.859Z" fill="#8FC4C8"/>
<path d="M43.7165 118.859C43.1265 118.859 42.6465 118.379 42.6465 117.789V-42.6409C42.6465 -43.2309 43.1265 -43.7109 43.7165 -43.7109C44.3065 -43.7109 44.7865 -43.2309 44.7865 -42.6409V117.789C44.7865 118.379 44.3065 118.859 43.7165 118.859Z" fill="#8FC4C8"/>
</g>
<path d="M42.6462 -44H41.5762V116.43H42.6462V-44Z" fill="#8FC4C8"/>
<path d="M74.736 -44H73.666V116.43H74.736V-44Z" fill="#8FC4C8"/>
<path d="M106.287 51.7285H-54.1426V52.7985H106.287V51.7285Z" fill="#8FC4C8"/>
<path d="M106.287 83.8086H-54.1426V84.8786H106.287V83.8086Z" fill="#8FC4C8"/>
<g style="mix-blend-mode:multiply" opacity="0.3">
<path d="M19.2871 114.179H39.0271C39.7171 114.179 40.2771 113.619 40.2771 112.929V94.3789L38.0271 111.649L19.2871 114.169V114.179Z" fill="#8FC4C8"/>
</g>
<g style="mix-blend-mode:multiply" opacity="0.3">
<path d="M51.2363 114.179H70.9763C71.6663 114.179 72.2263 113.619 72.2263 112.929V94.3789L69.9763 111.649L51.2363 114.169V114.179Z" fill="#8FC4C8"/>
</g>
<g style="mix-blend-mode:multiply" opacity="0.3">
<path d="M83.1758 114.179H102.916C103.606 114.179 104.166 113.619 104.166 112.929V94.3789L101.916 111.649L83.1758 114.169V114.179Z" fill="#8FC4C8"/>
</g>
<g style="mix-blend-mode:multiply" opacity="0.3">
<path d="M19.2871 82.1906H39.0271C39.7171 82.1906 40.2771 81.6306 40.2771 80.9406V62.3906L38.0271 79.6606L19.2871 82.1806V82.1906Z" fill="#8FC4C8"/>
</g>
<g style="mix-blend-mode:multiply" opacity="0.3">
<path d="M51.2363 82.1906H70.9763C71.6663 82.1906 72.2263 81.6306 72.2263 80.9406V62.3906L69.9763 79.6606L51.2363 82.1806V82.1906Z" fill="#8FC4C8"/>
</g>
<g style="mix-blend-mode:multiply" opacity="0.3">
<path d="M83.1758 82.1906H102.916C103.606 82.1906 104.166 81.6306 104.166 80.9406V62.3906L101.916 79.6606L83.1758 82.1806V82.1906Z" fill="#8FC4C8"/>
</g>
<g style="mix-blend-mode:multiply" opacity="0.3">
<path d="M19.2871 50.2004H39.0271C39.7171 50.2004 40.2771 49.6404 40.2771 48.9504V30.4004L38.0271 47.6704L19.2871 50.1904V50.2004Z" fill="#8FC4C8"/>
</g>
<g style="mix-blend-mode:multiply" opacity="0.3">
<path d="M51.2363 50.2004H70.9763C71.6663 50.2004 72.2263 49.6404 72.2263 48.9504V30.4004L69.9763 47.6704L51.2363 50.1904V50.2004Z" fill="#8FC4C8"/>
</g>
<g style="mix-blend-mode:multiply" opacity="0.3">
<path d="M83.1758 50.2004H102.916C103.606 50.2004 104.166 49.6404 104.166 48.9504V30.4004L101.916 47.6704L83.1758 50.1904V50.2004Z" fill="#8FC4C8"/>
</g>
</g>
</g>
</g>
<mask id="mask40_1271_140647" style="mask-type:luminance" maskUnits="userSpaceOnUse" x="26" y="165" width="130" height="130">
<path d="M155.118 165.98H26.7676V294.33H155.118V165.98Z" fill="white"/>
</mask>
<g mask="url(#mask40_1271_140647)">
<mask id="mask41_1271_140647" style="mask-type:luminance" maskUnits="userSpaceOnUse" x="91" y="229" width="129" height="130">
<path d="M219.397 229.68H91.0469V358.03H219.397V229.68Z" fill="white"/>
</mask>
<g mask="url(#mask41_1271_140647)">
<mask id="mask42_1271_140647" style="mask-type:luminance" maskUnits="userSpaceOnUse" x="90" y="228" width="129" height="130">
<path d="M218.596 228.74H90.2461V357.09H218.596V228.74Z" fill="white"/>
</mask>
<g mask="url(#mask42_1271_140647)">
<path d="M234.637 212.689H74.207V373.119H234.637V212.689Z" fill="#C9DFE7"/>
<g style="mix-blend-mode:screen" opacity="0.4">
<path d="M139.976 375.56C139.386 375.56 138.906 375.08 138.906 374.49V214.06C138.906 213.47 139.386 212.99 139.976 212.99C140.566 212.99 141.046 213.47 141.046 214.06V374.49C141.046 375.08 140.566 375.56 139.976 375.56Z" fill="#8FC4C8"/>
<path d="M107.896 375.56C107.306 375.56 106.826 375.08 106.826 374.49V214.06C106.826 213.47 107.306 212.99 107.896 212.99C108.486 212.99 108.966 213.47 108.966 214.06V374.49C108.966 375.08 108.486 375.56 107.896 375.56Z" fill="#8FC4C8"/>
</g>
<path d="M106.826 212.689H105.756V373.119H106.826V212.689Z" fill="#8FC4C8"/>
<path d="M138.906 212.689H137.836V373.119H138.906V212.689Z" fill="#8FC4C8"/>
<g style="mix-blend-mode:multiply" opacity="0.3">
<path d="M83.7559 242.921H103.496C104.186 242.921 104.746 242.361 104.746 241.671V223.121L102.496 240.391L83.7559 242.911V242.921Z" fill="#8FC4C8"/>
</g>
<g style="mix-blend-mode:multiply" opacity="0.3">
<path d="M115.695 242.921H135.435C136.125 242.921 136.685 242.361 136.685 241.671V223.121L134.435 240.391L115.695 242.911V242.921Z" fill="#8FC4C8"/>
</g>
<g style="mix-blend-mode:multiply" opacity="0.3">
<path d="M147.637 242.921H167.377C168.067 242.921 168.627 242.361 168.627 241.671V223.121L166.377 240.391L147.637 242.911V242.921Z" fill="#8FC4C8"/>
</g>
</g>
</g>
<mask id="mask43_1271_140647" style="mask-type:luminance" maskUnits="userSpaceOnUse" x="-38" y="229" width="130" height="130">
<path d="M91.0473 229.68H-37.3027V358.03H91.0473V229.68Z" fill="white"/>
</mask>
<g mask="url(#mask43_1271_140647)">
<mask id="mask44_1271_140647" style="mask-type:luminance" maskUnits="userSpaceOnUse" x="90" y="228" width="129" height="130">
<path d="M218.596 228.74H90.2461V357.09H218.596V228.74Z" fill="white"/>
</mask>
<g mask="url(#mask44_1271_140647)">
<path d="M234.637 212.691H74.207V373.121H234.637V212.691Z" fill="#C9DFE7"/>
<g style="mix-blend-mode:screen" opacity="0.4">
</g>
<g style="mix-blend-mode:multiply" opacity="0.3">
<path d="M83.7559 242.921H103.496C104.186 242.921 104.746 242.361 104.746 241.671V223.121L102.496 240.391L83.7559 242.911V242.921Z" fill="#8FC4C8"/>
</g>
</g>
<mask id="mask45_1271_140647" style="mask-type:luminance" maskUnits="userSpaceOnUse" x="-39" y="228" width="130" height="130">
<path d="M90.2465 228.74H-38.1035V357.09H90.2465V228.74Z" fill="white"/>
</mask>
<g mask="url(#mask45_1271_140647)">
<path d="M106.287 212.689H-54.1426V373.119H106.287V212.689Z" fill="#C9DFE7"/>
<g style="mix-blend-mode:screen" opacity="0.4">
<path d="M75.8063 375.56C75.2163 375.56 74.7363 375.08 74.7363 374.49V214.06C74.7363 213.47 75.2163 212.99 75.8063 212.99C76.3963 212.99 76.8763 213.47 76.8763 214.06V374.49C76.8763 375.08 76.3963 375.56 75.8063 375.56Z" fill="#8FC4C8"/>
<path d="M43.7165 375.56C43.1265 375.56 42.6465 375.08 42.6465 374.49V214.06C42.6465 213.47 43.1265 212.99 43.7165 212.99C44.3065 212.99 44.7865 213.47 44.7865 214.06V374.49C44.7865 375.08 44.3065 375.56 43.7165 375.56Z" fill="#8FC4C8"/>
</g>
<path d="M42.6462 212.689H41.5762V373.119H42.6462V212.689Z" fill="#8FC4C8"/>
<path d="M74.736 212.689H73.666V373.119H74.736V212.689Z" fill="#8FC4C8"/>
<g style="mix-blend-mode:multiply" opacity="0.3">
<path d="M19.2871 242.921H39.0271C39.7171 242.921 40.2771 242.361 40.2771 241.671V223.121L38.0271 240.391L19.2871 242.911V242.921Z" fill="#8FC4C8"/>
</g>
<g style="mix-blend-mode:multiply" opacity="0.3">
<path d="M51.2363 242.921H70.9763C71.6663 242.921 72.2263 242.361 72.2263 241.671V223.121L69.9763 240.391L51.2363 242.911V242.921Z" fill="#8FC4C8"/>
</g>
<g style="mix-blend-mode:multiply" opacity="0.3">
<path d="M83.1777 242.921H102.918C103.608 242.921 104.168 242.361 104.168 241.671V223.121L101.918 240.391L83.1777 242.911V242.921Z" fill="#8FC4C8"/>
</g>
</g>
</g>
<mask id="mask46_1271_140647" style="mask-type:luminance" maskUnits="userSpaceOnUse" x="91" y="101" width="129" height="129">
<path d="M219.397 101.34H91.0469V229.69H219.397V101.34Z" fill="white"/>
</mask>
<g mask="url(#mask46_1271_140647)">
<mask id="mask47_1271_140647" style="mask-type:luminance" maskUnits="userSpaceOnUse" x="90" y="228" width="129" height="130">
<path d="M218.596 228.74H90.2461V357.09H218.596V228.74Z" fill="white"/>
</mask>
<g mask="url(#mask47_1271_140647)">
<path d="M234.637 212.689H74.207V373.119H234.637V212.689Z" fill="#C9DFE7"/>
<g style="mix-blend-mode:screen" opacity="0.4">
<path d="M139.976 375.56C139.386 375.56 138.906 375.08 138.906 374.49V214.06C138.906 213.47 139.386 212.99 139.976 212.99C140.566 212.99 141.046 213.47 141.046 214.06V374.49C141.046 375.08 140.566 375.56 139.976 375.56Z" fill="#8FC4C8"/>
<path d="M107.896 375.56C107.306 375.56 106.826 375.08 106.826 374.49V214.06C106.826 213.47 107.306 212.99 107.896 212.99C108.486 212.99 108.966 213.47 108.966 214.06V374.49C108.966 375.08 108.486 375.56 107.896 375.56Z" fill="#8FC4C8"/>
</g>
<path d="M106.826 212.689H105.756V373.119H106.826V212.689Z" fill="#8FC4C8"/>
<path d="M138.906 212.689H137.836V373.119H138.906V212.689Z" fill="#8FC4C8"/>
<g style="mix-blend-mode:multiply" opacity="0.3">
<path d="M83.7559 242.921H103.496C104.186 242.921 104.746 242.361 104.746 241.671V223.121L102.496 240.391L83.7559 242.911V242.921Z" fill="#8FC4C8"/>
</g>
<g style="mix-blend-mode:multiply" opacity="0.3">
<path d="M115.695 242.921H135.435C136.125 242.921 136.685 242.361 136.685 241.671V223.121L134.435 240.391L115.695 242.911V242.921Z" fill="#8FC4C8"/>
</g>
<g style="mix-blend-mode:multiply" opacity="0.3">
<path d="M147.637 242.921H167.377C168.067 242.921 168.627 242.361 168.627 241.671V223.121L166.377 240.391L147.637 242.911V242.921Z" fill="#8FC4C8"/>
</g>
</g>
<mask id="mask48_1271_140647" style="mask-type:luminance" maskUnits="userSpaceOnUse" x="90" y="100" width="129" height="129">
<path d="M218.596 100.391H90.2461V228.741H218.596V100.391Z" fill="white"/>
</mask>
<g mask="url(#mask48_1271_140647)">
<path d="M234.637 84.3516H74.207V244.782H234.637V84.3516Z" fill="#C9DFE7"/>
<g style="mix-blend-mode:screen" opacity="0.4">
<path d="M234.637 183.04H74.2067C73.6167 183.04 73.1367 182.56 73.1367 181.97C73.1367 181.38 73.6167 180.9 74.2067 180.9H234.637C235.227 180.9 235.707 181.38 235.707 181.97C235.707 182.56 235.227 183.04 234.637 183.04Z" fill="#8FC4C8"/>
<path d="M234.637 215.12H74.2067C73.6167 215.12 73.1367 214.64 73.1367 214.05C73.1367 213.46 73.6167 212.98 74.2067 212.98H234.637C235.227 212.98 235.707 213.46 235.707 214.05C235.707 214.64 235.227 215.12 234.637 215.12Z" fill="#8FC4C8"/>
<path d="M139.976 247.211C139.386 247.211 138.906 246.731 138.906 246.141V85.7106C138.906 85.1206 139.386 84.6406 139.976 84.6406C140.566 84.6406 141.046 85.1206 141.046 85.7106V246.141C141.046 246.731 140.566 247.211 139.976 247.211Z" fill="#8FC4C8"/>
<path d="M107.896 247.211C107.306 247.211 106.826 246.731 106.826 246.141V85.7106C106.826 85.1206 107.306 84.6406 107.896 84.6406C108.486 84.6406 108.966 85.1206 108.966 85.7106V246.141C108.966 246.731 108.486 247.211 107.896 247.211Z" fill="#8FC4C8"/>
</g>
<path d="M106.826 84.3516H105.756V244.782H106.826V84.3516Z" fill="#8FC4C8"/>
<path d="M138.906 84.3516H137.836V244.782H138.906V84.3516Z" fill="#8FC4C8"/>
<path d="M234.637 180.072H74.207V181.142H234.637V180.072Z" fill="#8FC4C8"/>
<path d="M234.637 212.162H74.207V213.232H234.637V212.162Z" fill="#8FC4C8"/>
<g style="mix-blend-mode:multiply" opacity="0.3">
<path d="M83.7559 242.532H103.496C104.186 242.532 104.746 241.972 104.746 241.282V222.732L102.496 240.002L83.7559 242.522V242.532Z" fill="#8FC4C8"/>
</g>
<g style="mix-blend-mode:multiply" opacity="0.3">
<path d="M115.695 242.532H135.435C136.125 242.532 136.685 241.972 136.685 241.282V222.732L134.435 240.002L115.695 242.522V242.532Z" fill="#8FC4C8"/>
</g>
<g style="mix-blend-mode:multiply" opacity="0.3">
<path d="M147.637 242.532H167.377C168.067 242.532 168.627 241.972 168.627 241.282V222.732L166.377 240.002L147.637 242.522V242.532Z" fill="#8FC4C8"/>
</g>
<g style="mix-blend-mode:multiply" opacity="0.3">
<path d="M83.7559 210.542H103.496C104.186 210.542 104.746 209.982 104.746 209.292V190.742L102.496 208.012L83.7559 210.532V210.542Z" fill="#8FC4C8"/>
</g>
<g style="mix-blend-mode:multiply" opacity="0.3">
<path d="M115.695 210.542H135.435C136.125 210.542 136.685 209.982 136.685 209.292V190.742L134.435 208.012L115.695 210.532V210.542Z" fill="#8FC4C8"/>
</g>
<g style="mix-blend-mode:multiply" opacity="0.3">
<path d="M147.637 210.542H167.377C168.067 210.542 168.627 209.982 168.627 209.292V190.742L166.377 208.012L147.637 210.532V210.542Z" fill="#8FC4C8"/>
</g>
<g style="mix-blend-mode:multiply" opacity="0.3">
<path d="M83.7559 178.552H103.496C104.186 178.552 104.746 177.992 104.746 177.302V158.752L102.496 176.022L83.7559 178.542V178.552Z" fill="#8FC4C8"/>
</g>
<g style="mix-blend-mode:multiply" opacity="0.3">
<path d="M115.695 178.552H135.435C136.125 178.552 136.685 177.992 136.685 177.302V158.752L134.435 176.022L115.695 178.542V178.552Z" fill="#8FC4C8"/>
</g>
<g style="mix-blend-mode:multiply" opacity="0.3">
<path d="M147.637 178.552H167.377C168.067 178.552 168.627 177.992 168.627 177.302V158.752L166.377 176.022L147.637 178.542V178.552Z" fill="#8FC4C8"/>
</g>
</g>
</g>
<mask id="mask49_1271_140647" style="mask-type:luminance" maskUnits="userSpaceOnUse" x="-38" y="101" width="130" height="129">
<path d="M91.0473 101.34H-37.3027V229.69H91.0473V101.34Z" fill="white"/>
</mask>
<g mask="url(#mask49_1271_140647)">
<mask id="mask50_1271_140647" style="mask-type:luminance" maskUnits="userSpaceOnUse" x="-39" y="228" width="130" height="130">
<path d="M90.2465 228.74H-38.1035V357.09H90.2465V228.74Z" fill="white"/>
</mask>
<g mask="url(#mask50_1271_140647)">
<path d="M106.287 212.689H-54.1426V373.119H106.287V212.689Z" fill="#C9DFE7"/>
<g style="mix-blend-mode:screen" opacity="0.4">
<path d="M75.8063 375.56C75.2163 375.56 74.7363 375.08 74.7363 374.49V214.06C74.7363 213.47 75.2163 212.99 75.8063 212.99C76.3963 212.99 76.8763 213.47 76.8763 214.06V374.49C76.8763 375.08 76.3963 375.56 75.8063 375.56Z" fill="#8FC4C8"/>
<path d="M43.7165 375.56C43.1265 375.56 42.6465 375.08 42.6465 374.49V214.06C42.6465 213.47 43.1265 212.99 43.7165 212.99C44.3065 212.99 44.7865 213.47 44.7865 214.06V374.49C44.7865 375.08 44.3065 375.56 43.7165 375.56Z" fill="#8FC4C8"/>
</g>
<path d="M42.6462 212.689H41.5762V373.119H42.6462V212.689Z" fill="#8FC4C8"/>
<path d="M74.736 212.689H73.666V373.119H74.736V212.689Z" fill="#8FC4C8"/>
<g style="mix-blend-mode:multiply" opacity="0.3">
<path d="M19.2871 242.921H39.0271C39.7171 242.921 40.2771 242.361 40.2771 241.671V223.121L38.0271 240.391L19.2871 242.911V242.921Z" fill="#8FC4C8"/>
</g>
<g style="mix-blend-mode:multiply" opacity="0.3">
<path d="M51.2363 242.921H70.9763C71.6663 242.921 72.2263 242.361 72.2263 241.671V223.121L69.9763 240.391L51.2363 242.911V242.921Z" fill="#8FC4C8"/>
</g>
<g style="mix-blend-mode:multiply" opacity="0.3">
<path d="M83.1758 242.921H102.916C103.606 242.921 104.166 242.361 104.166 241.671V223.121L101.916 240.391L83.1758 242.911V242.921Z" fill="#8FC4C8"/>
</g>
</g>
<mask id="mask51_1271_140647" style="mask-type:luminance" maskUnits="userSpaceOnUse" x="90" y="100" width="129" height="129">
<path d="M218.596 100.391H90.2461V228.741H218.596V100.391Z" fill="white"/>
</mask>
<g mask="url(#mask51_1271_140647)">
<path d="M234.637 84.3516H74.207V244.782H234.637V84.3516Z" fill="#C9DFE7"/>
<g style="mix-blend-mode:screen" opacity="0.4">
<path d="M234.637 183.04H74.2067C73.6167 183.04 73.1367 182.56 73.1367 181.97C73.1367 181.38 73.6167 180.9 74.2067 180.9H234.637C235.227 180.9 235.707 181.38 235.707 181.97C235.707 182.56 235.227 183.04 234.637 183.04Z" fill="#8FC4C8"/>
<path d="M234.637 215.12H74.2067C73.6167 215.12 73.1367 214.64 73.1367 214.05C73.1367 213.46 73.6167 212.98 74.2067 212.98H234.637C235.227 212.98 235.707 213.46 235.707 214.05C235.707 214.64 235.227 215.12 234.637 215.12Z" fill="#8FC4C8"/>
</g>
<path d="M234.637 180.072H74.207V181.142H234.637V180.072Z" fill="#8FC4C8"/>
<path d="M234.637 212.162H74.207V213.232H234.637V212.162Z" fill="#8FC4C8"/>
<g style="mix-blend-mode:multiply" opacity="0.3">
<path d="M83.7559 242.532H103.496C104.186 242.532 104.746 241.972 104.746 241.282V222.732L102.496 240.002L83.7559 242.522V242.532Z" fill="#8FC4C8"/>
</g>
<g style="mix-blend-mode:multiply" opacity="0.3">
<path d="M83.7559 210.542H103.496C104.186 210.542 104.746 209.982 104.746 209.292V190.742L102.496 208.012L83.7559 210.532V210.542Z" fill="#8FC4C8"/>
</g>
<g style="mix-blend-mode:multiply" opacity="0.3">
<path d="M83.7559 178.552H103.496C104.186 178.552 104.746 177.992 104.746 177.302V158.752L102.496 176.022L83.7559 178.542V178.552Z" fill="#8FC4C8"/>
</g>
</g>
<mask id="mask52_1271_140647" style="mask-type:luminance" maskUnits="userSpaceOnUse" x="-39" y="100" width="130" height="129">
<path d="M90.2465 100.391H-38.1035V228.741H90.2465V100.391Z" fill="white"/>
</mask>
<g mask="url(#mask52_1271_140647)">
<path d="M106.287 84.3516H-54.1426V244.782H106.287V84.3516Z" fill="#C9DFE7"/>
<g style="mix-blend-mode:screen" opacity="0.4">
<path d="M106.287 183.04H-54.1429C-54.7329 183.04 -55.2129 182.56 -55.2129 181.97C-55.2129 181.38 -54.7329 180.9 -54.1429 180.9H106.287C106.877 180.9 107.357 181.38 107.357 181.97C107.357 182.56 106.877 183.04 106.287 183.04Z" fill="#8FC4C8"/>
<path d="M106.287 215.12H-54.1429C-54.7329 215.12 -55.2129 214.64 -55.2129 214.05C-55.2129 213.46 -54.7329 212.98 -54.1429 212.98H106.287C106.877 212.98 107.357 213.46 107.357 214.05C107.357 214.64 106.877 215.12 106.287 215.12Z" fill="#8FC4C8"/>
<path d="M75.8063 247.211C75.2163 247.211 74.7363 246.731 74.7363 246.141V85.7106C74.7363 85.1206 75.2163 84.6406 75.8063 84.6406C76.3963 84.6406 76.8763 85.1206 76.8763 85.7106V246.141C76.8763 246.731 76.3963 247.211 75.8063 247.211Z" fill="#8FC4C8"/>
<path d="M43.7165 247.211C43.1265 247.211 42.6465 246.731 42.6465 246.141V85.7106C42.6465 85.1206 43.1265 84.6406 43.7165 84.6406C44.3065 84.6406 44.7865 85.1206 44.7865 85.7106V246.141C44.7865 246.731 44.3065 247.211 43.7165 247.211Z" fill="#8FC4C8"/>
</g>
<path d="M42.6462 84.3516H41.5762V244.782H42.6462V84.3516Z" fill="#8FC4C8"/>
<path d="M74.736 84.3516H73.666V244.782H74.736V84.3516Z" fill="#8FC4C8"/>
<path d="M106.287 180.07H-54.1426V181.14H106.287V180.07Z" fill="#8FC4C8"/>
<path d="M106.287 212.16H-54.1426V213.23H106.287V212.16Z" fill="#8FC4C8"/>
<g style="mix-blend-mode:multiply" opacity="0.3">
<path d="M19.2871 242.53H39.0271C39.7171 242.53 40.2771 241.97 40.2771 241.28V222.73L38.0271 240L19.2871 242.52V242.53Z" fill="#8FC4C8"/>
</g>
<g style="mix-blend-mode:multiply" opacity="0.3">
<path d="M51.2363 242.53H70.9763C71.6663 242.53 72.2263 241.97 72.2263 241.28V222.73L69.9763 240L51.2363 242.52V242.53Z" fill="#8FC4C8"/>
</g>
<g style="mix-blend-mode:multiply" opacity="0.3">
<path d="M83.1758 242.53H102.916C103.606 242.53 104.166 241.97 104.166 241.28V222.73L101.916 240L83.1758 242.52V242.53Z" fill="#8FC4C8"/>
</g>
<g style="mix-blend-mode:multiply" opacity="0.3">
<path d="M19.2871 210.54H39.0271C39.7171 210.54 40.2771 209.98 40.2771 209.29V190.74L38.0271 208.01L19.2871 210.53V210.54Z" fill="#8FC4C8"/>
</g>
<g style="mix-blend-mode:multiply" opacity="0.3">
<path d="M51.2363 210.54H70.9763C71.6663 210.54 72.2263 209.98 72.2263 209.29V190.74L69.9763 208.01L51.2363 210.53V210.54Z" fill="#8FC4C8"/>
</g>
<g style="mix-blend-mode:multiply" opacity="0.3">
<path d="M83.1758 210.54H102.916C103.606 210.54 104.166 209.98 104.166 209.29V190.74L101.916 208.01L83.1758 210.53V210.54Z" fill="#8FC4C8"/>
</g>
<g style="mix-blend-mode:multiply" opacity="0.3">
<path d="M19.2871 178.55H39.0271C39.7171 178.55 40.2771 177.99 40.2771 177.3V158.75L38.0271 176.02L19.2871 178.54V178.55Z" fill="#8FC4C8"/>
</g>
<g style="mix-blend-mode:multiply" opacity="0.3">
<path d="M51.2363 178.55H70.9763C71.6663 178.55 72.2263 177.99 72.2263 177.3V158.75L69.9763 176.02L51.2363 178.54V178.55Z" fill="#8FC4C8"/>
</g>
<g style="mix-blend-mode:multiply" opacity="0.3">
<path d="M83.1758 178.55H102.916C103.606 178.55 104.166 177.99 104.166 177.3V158.75L101.916 176.02L83.1758 178.54V178.55Z" fill="#8FC4C8"/>
</g>
</g>
</g>
</g>
<mask id="mask53_1271_140647" style="mask-type:luminance" maskUnits="userSpaceOnUse" x="-102" y="-91" width="129" height="129">
<path d="M26.768 -90.7109H-101.582V37.6391H26.768V-90.7109Z" fill="white"/>
</mask>
<g mask="url(#mask53_1271_140647)">
<mask id="mask54_1271_140647" style="mask-type:luminance" maskUnits="userSpaceOnUse" x="-38" y="-28" width="130" height="130">
<path d="M91.0473 -27.0117H-37.3027V101.338H91.0473V-27.0117Z" fill="white"/>
</mask>
<g mask="url(#mask54_1271_140647)">
<mask id="mask55_1271_140647" style="mask-type:luminance" maskUnits="userSpaceOnUse" x="-39" y="-28" width="130" height="129">
<path d="M90.2465 -27.9609H-38.1035V100.389H90.2465V-27.9609Z" fill="white"/>
</mask>
<g mask="url(#mask55_1271_140647)">
<path d="M106.287 -44H-54.1426V116.43H106.287V-44Z" fill="#C9DFE7"/>
<g style="mix-blend-mode:screen" opacity="0.4">
<path d="M106.287 22.599H-54.1429C-54.7329 22.599 -55.2129 22.119 -55.2129 21.529C-55.2129 20.939 -54.7329 20.459 -54.1429 20.459H106.287C106.877 20.459 107.357 20.939 107.357 21.529C107.357 22.119 106.877 22.599 106.287 22.599Z" fill="#8FC4C8"/>
<path d="M11.6364 118.859C11.0464 118.859 10.5664 118.379 10.5664 117.789V-42.6409C10.5664 -43.2309 11.0464 -43.7109 11.6364 -43.7109C12.2264 -43.7109 12.7064 -43.2309 12.7064 -42.6409V117.789C12.7064 118.379 12.2264 118.859 11.6364 118.859Z" fill="#8FC4C8"/>
</g>
<path d="M10.5661 -44H9.49609V116.43H10.5661V-44Z" fill="#8FC4C8"/>
<path d="M106.287 19.6387H-54.1426V20.7087H106.287V19.6387Z" fill="#8FC4C8"/>
<g style="mix-blend-mode:multiply" opacity="0.3">
<path d="M-12.6543 50.2004H7.08569C7.77569 50.2004 8.33569 49.6404 8.33569 48.9504V30.4004L6.08569 47.6704L-12.6543 50.1904V50.2004Z" fill="#8FC4C8"/>
</g>
<g style="mix-blend-mode:multiply" opacity="0.3">
<path d="M19.2871 50.2004H39.0271C39.7171 50.2004 40.2771 49.6404 40.2771 48.9504V30.4004L38.0271 47.6704L19.2871 50.1904V50.2004Z" fill="#8FC4C8"/>
</g>
<g style="mix-blend-mode:multiply" opacity="0.3">
<path d="M-12.6543 18.2102H7.08569C7.77569 18.2102 8.33569 17.6502 8.33569 16.9602V-1.58984L6.08569 15.6802L-12.6543 18.2002V18.2102Z" fill="#8FC4C8"/>
</g>
<g style="mix-blend-mode:multiply" opacity="0.3">
<path d="M19.2871 18.2102H39.0271C39.7171 18.2102 40.2771 17.6502 40.2771 16.9602V-1.58984L38.0271 15.6802L19.2871 18.2002V18.2102Z" fill="#8FC4C8"/>
</g>
</g>
</g>
</g>
<mask id="mask56_1271_140647" style="mask-type:luminance" maskUnits="userSpaceOnUse" x="-102" y="37" width="129" height="129">
<path d="M26.768 37.6406H-101.582V165.991H26.768V37.6406Z" fill="white"/>
</mask>
<g mask="url(#mask56_1271_140647)">
<mask id="mask57_1271_140647" style="mask-type:luminance" maskUnits="userSpaceOnUse" x="-38" y="101" width="130" height="129">
<path d="M91.0473 101.34H-37.3027V229.69H91.0473V101.34Z" fill="white"/>
</mask>
<g mask="url(#mask57_1271_140647)">
<mask id="mask58_1271_140647" style="mask-type:luminance" maskUnits="userSpaceOnUse" x="-39" y="100" width="130" height="129">
<path d="M90.2465 100.391H-38.1035V228.741H90.2465V100.391Z" fill="white"/>
</mask>
<g mask="url(#mask58_1271_140647)">
<path d="M106.287 84.3516H-54.1426V244.782H106.287V84.3516Z" fill="#C9DFE7"/>
<g style="mix-blend-mode:screen" opacity="0.4">
<path d="M106.287 118.861H-54.1429C-54.7329 118.861 -55.2129 118.381 -55.2129 117.791C-55.2129 117.201 -54.7329 116.721 -54.1429 116.721H106.287C106.877 116.721 107.357 117.201 107.357 117.791C107.357 118.381 106.877 118.861 106.287 118.861Z" fill="#8FC4C8"/>
<path d="M106.287 150.951H-54.1429C-54.7329 150.951 -55.2129 150.471 -55.2129 149.881C-55.2129 149.291 -54.7329 148.811 -54.1429 148.811H106.287C106.877 148.811 107.357 149.291 107.357 149.881C107.357 150.471 106.877 150.951 106.287 150.951Z" fill="#8FC4C8"/>
<path d="M11.6364 247.211C11.0464 247.211 10.5664 246.731 10.5664 246.141V85.7106C10.5664 85.1206 11.0464 84.6406 11.6364 84.6406C12.2264 84.6406 12.7064 85.1206 12.7064 85.7106V246.141C12.7064 246.731 12.2264 247.211 11.6364 247.211Z" fill="#8FC4C8"/>
</g>
<path d="M10.5661 84.3516H9.49609V244.782H10.5661V84.3516Z" fill="#8FC4C8"/>
<path d="M106.287 115.9H-54.1426V116.97H106.287V115.9Z" fill="#8FC4C8"/>
<path d="M106.287 147.99H-54.1426V149.06H106.287V147.99Z" fill="#8FC4C8"/>
<g style="mix-blend-mode:multiply" opacity="0.3">
<path d="M-12.6543 178.55H7.08569C7.77569 178.55 8.33569 177.99 8.33569 177.3V158.75L6.08569 176.02L-12.6543 178.54V178.55Z" fill="#8FC4C8"/>
</g>
<g style="mix-blend-mode:multiply" opacity="0.3">
<path d="M19.2871 178.55H39.0271C39.7171 178.55 40.2771 177.99 40.2771 177.3V158.75L38.0271 176.02L19.2871 178.54V178.55Z" fill="#8FC4C8"/>
</g>
<g style="mix-blend-mode:multiply" opacity="0.3">
<path d="M-12.6543 146.56H7.08569C7.77569 146.56 8.33569 146 8.33569 145.31V126.76L6.08569 144.03L-12.6543 146.55V146.56Z" fill="#8FC4C8"/>
</g>
<g style="mix-blend-mode:multiply" opacity="0.3">
<path d="M19.2871 146.56H39.0271C39.7171 146.56 40.2771 146 40.2771 145.31V126.76L38.0271 144.03L19.2871 146.55V146.56Z" fill="#8FC4C8"/>
</g>
<g style="mix-blend-mode:multiply" opacity="0.3">
<path d="M-12.6543 114.57H7.08569C7.77569 114.57 8.33569 114.01 8.33569 113.32V94.7695L6.08569 112.04L-12.6543 114.56V114.57Z" fill="#8FC4C8"/>
</g>
<g style="mix-blend-mode:multiply" opacity="0.3">
<path d="M19.2871 114.57H39.0271C39.7171 114.57 40.2771 114.01 40.2771 113.32V94.7695L38.0271 112.04L19.2871 114.56V114.57Z" fill="#8FC4C8"/>
</g>
</g>
</g>
<mask id="mask59_1271_140647" style="mask-type:luminance" maskUnits="userSpaceOnUse" x="-38" y="-28" width="130" height="130">
<path d="M91.0473 -27.0098H-37.3027V101.34H91.0473V-27.0098Z" fill="white"/>
</mask>
<g mask="url(#mask59_1271_140647)">
<mask id="mask60_1271_140647" style="mask-type:luminance" maskUnits="userSpaceOnUse" x="-39" y="100" width="130" height="129">
<path d="M90.2465 100.389H-38.1035V228.739H90.2465V100.389Z" fill="white"/>
</mask>
<g mask="url(#mask60_1271_140647)">
<path d="M106.287 84.3477H-54.1426V244.778H106.287V84.3477Z" fill="#C9DFE7"/>
<g style="mix-blend-mode:screen" opacity="0.4">
<path d="M11.6364 247.209C11.0464 247.209 10.5664 246.729 10.5664 246.139V85.7087C10.5664 85.1187 11.0464 84.6387 11.6364 84.6387C12.2264 84.6387 12.7064 85.1187 12.7064 85.7087V246.139C12.7064 246.729 12.2264 247.209 11.6364 247.209Z" fill="#8FC4C8"/>
</g>
<path d="M10.5661 84.3477H9.49609V244.778H10.5661V84.3477Z" fill="#8FC4C8"/>
<g style="mix-blend-mode:multiply" opacity="0.3">
<path d="M-12.6543 114.57H7.08569C7.77569 114.57 8.33569 114.01 8.33569 113.32V94.7695L6.08569 112.04L-12.6543 114.56V114.57Z" fill="#8FC4C8"/>
</g>
<g style="mix-blend-mode:multiply" opacity="0.3">
<path d="M19.2871 114.57H39.0271C39.7171 114.57 40.2771 114.01 40.2771 113.32V94.7695L38.0271 112.04L19.2871 114.56V114.57Z" fill="#8FC4C8"/>
</g>
</g>
<mask id="mask61_1271_140647" style="mask-type:luminance" maskUnits="userSpaceOnUse" x="-39" y="-28" width="130" height="129">
<path d="M90.2465 -27.9609H-38.1035V100.389H90.2465V-27.9609Z" fill="white"/>
</mask>
<g mask="url(#mask61_1271_140647)">
<path d="M106.287 -44H-54.1426V116.43H106.287V-44Z" fill="#C9DFE7"/>
<g style="mix-blend-mode:screen" opacity="0.4">
<path d="M106.287 54.6888H-54.1429C-54.7329 54.6888 -55.2129 54.2088 -55.2129 53.6188C-55.2129 53.0288 -54.7329 52.5488 -54.1429 52.5488H106.287C106.877 52.5488 107.357 53.0288 107.357 53.6188C107.357 54.2088 106.877 54.6888 106.287 54.6888Z" fill="#8FC4C8"/>
<path d="M106.287 86.7689H-54.1429C-54.7329 86.7689 -55.2129 86.2889 -55.2129 85.6989C-55.2129 85.1089 -54.7329 84.6289 -54.1429 84.6289H106.287C106.877 84.6289 107.357 85.1089 107.357 85.6989C107.357 86.2889 106.877 86.7689 106.287 86.7689Z" fill="#8FC4C8"/>
<path d="M11.6364 118.859C11.0464 118.859 10.5664 118.379 10.5664 117.789V-42.6409C10.5664 -43.2309 11.0464 -43.7109 11.6364 -43.7109C12.2264 -43.7109 12.7064 -43.2309 12.7064 -42.6409V117.789C12.7064 118.379 12.2264 118.859 11.6364 118.859Z" fill="#8FC4C8"/>
</g>
<path d="M10.5661 -44H9.49609V116.43H10.5661V-44Z" fill="#8FC4C8"/>
<path d="M106.287 51.7305H-54.1426V52.8005H106.287V51.7305Z" fill="#8FC4C8"/>
<path d="M106.287 83.8105H-54.1426V84.8806H106.287V83.8105Z" fill="#8FC4C8"/>
<g style="mix-blend-mode:multiply" opacity="0.3">
<path d="M-12.6543 114.181H7.08569C7.77569 114.181 8.33569 113.621 8.33569 112.931V94.3809L6.08569 111.651L-12.6543 114.171V114.181Z" fill="#8FC4C8"/>
</g>
<g style="mix-blend-mode:multiply" opacity="0.3">
<path d="M19.2871 114.181H39.0271C39.7171 114.181 40.2771 113.621 40.2771 112.931V94.3809L38.0271 111.651L19.2871 114.171V114.181Z" fill="#8FC4C8"/>
</g>
<g style="mix-blend-mode:multiply" opacity="0.3">
<path d="M-12.6543 82.1906H7.08569C7.77569 82.1906 8.33569 81.6306 8.33569 80.9406V62.3906L6.08569 79.6606L-12.6543 82.1806V82.1906Z" fill="#8FC4C8"/>
</g>
<g style="mix-blend-mode:multiply" opacity="0.3">
<path d="M19.2871 82.1906H39.0271C39.7171 82.1906 40.2771 81.6306 40.2771 80.9406V62.3906L38.0271 79.6606L19.2871 82.1806V82.1906Z" fill="#8FC4C8"/>
</g>
<g style="mix-blend-mode:multiply" opacity="0.3">
<path d="M-12.6543 50.2004H7.08569C7.77569 50.2004 8.33569 49.6404 8.33569 48.9504V30.4004L6.08569 47.6704L-12.6543 50.1904V50.2004Z" fill="#8FC4C8"/>
</g>
<g style="mix-blend-mode:multiply" opacity="0.3">
<path d="M19.2871 50.2004H39.0271C39.7171 50.2004 40.2771 49.6404 40.2771 48.9504V30.4004L38.0271 47.6704L19.2871 50.1904V50.2004Z" fill="#8FC4C8"/>
</g>
</g>
</g>
</g>
<mask id="mask62_1271_140647" style="mask-type:luminance" maskUnits="userSpaceOnUse" x="-102" y="165" width="129" height="130">
<path d="M26.768 165.98H-101.582V294.33H26.768V165.98Z" fill="white"/>
</mask>
<g mask="url(#mask62_1271_140647)">
<mask id="mask63_1271_140647" style="mask-type:luminance" maskUnits="userSpaceOnUse" x="-38" y="229" width="130" height="130">
<path d="M91.0473 229.68H-37.3027V358.03H91.0473V229.68Z" fill="white"/>
</mask>
<g mask="url(#mask63_1271_140647)">
<mask id="mask64_1271_140647" style="mask-type:luminance" maskUnits="userSpaceOnUse" x="-39" y="228" width="130" height="130">
<path d="M90.2465 228.74H-38.1035V357.09H90.2465V228.74Z" fill="white"/>
</mask>
<g mask="url(#mask64_1271_140647)">
<path d="M106.287 212.689H-54.1426V373.119H106.287V212.689Z" fill="#C9DFE7"/>
<g style="mix-blend-mode:screen" opacity="0.4">
<path d="M11.6364 375.56C11.0464 375.56 10.5664 375.08 10.5664 374.49V214.06C10.5664 213.47 11.0464 212.99 11.6364 212.99C12.2264 212.99 12.7064 213.47 12.7064 214.06V374.49C12.7064 375.08 12.2264 375.56 11.6364 375.56Z" fill="#8FC4C8"/>
</g>
<path d="M10.5661 212.689H9.49609V373.119H10.5661V212.689Z" fill="#8FC4C8"/>
<g style="mix-blend-mode:multiply" opacity="0.3">
<path d="M-12.6543 242.921H7.08569C7.77569 242.921 8.33569 242.361 8.33569 241.671V223.121L6.08569 240.391L-12.6543 242.911V242.921Z" fill="#8FC4C8"/>
</g>
<g style="mix-blend-mode:multiply" opacity="0.3">
<path d="M19.2871 242.921H39.0271C39.7171 242.921 40.2771 242.361 40.2771 241.671V223.121L38.0271 240.391L19.2871 242.911V242.921Z" fill="#8FC4C8"/>
</g>
</g>
</g>
<mask id="mask65_1271_140647" style="mask-type:luminance" maskUnits="userSpaceOnUse" x="-38" y="101" width="130" height="129">
<path d="M91.0473 101.34H-37.3027V229.69H91.0473V101.34Z" fill="white"/>
</mask>
<g mask="url(#mask65_1271_140647)">
<mask id="mask66_1271_140647" style="mask-type:luminance" maskUnits="userSpaceOnUse" x="-39" y="228" width="130" height="130">
<path d="M90.2465 228.74H-38.1035V357.09H90.2465V228.74Z" fill="white"/>
</mask>
<g mask="url(#mask66_1271_140647)">
<path d="M106.287 212.689H-54.1426V373.119H106.287V212.689Z" fill="#C9DFE7"/>
<g style="mix-blend-mode:screen" opacity="0.4">
<path d="M11.6364 375.56C11.0464 375.56 10.5664 375.08 10.5664 374.49V214.06C10.5664 213.47 11.0464 212.99 11.6364 212.99C12.2264 212.99 12.7064 213.47 12.7064 214.06V374.49C12.7064 375.08 12.2264 375.56 11.6364 375.56Z" fill="#8FC4C8"/>
</g>
<path d="M10.5661 212.689H9.49609V373.119H10.5661V212.689Z" fill="#8FC4C8"/>
<g style="mix-blend-mode:multiply" opacity="0.3">
<path d="M-12.6543 242.921H7.08569C7.77569 242.921 8.33569 242.361 8.33569 241.671V223.121L6.08569 240.391L-12.6543 242.911V242.921Z" fill="#8FC4C8"/>
</g>
<g style="mix-blend-mode:multiply" opacity="0.3">
<path d="M19.2871 242.921H39.0271C39.7171 242.921 40.2771 242.361 40.2771 241.671V223.121L38.0271 240.391L19.2871 242.911V242.921Z" fill="#8FC4C8"/>
</g>
</g>
<mask id="mask67_1271_140647" style="mask-type:luminance" maskUnits="userSpaceOnUse" x="-39" y="100" width="130" height="129">
<path d="M90.2465 100.391H-38.1035V228.741H90.2465V100.391Z" fill="white"/>
</mask>
<g mask="url(#mask67_1271_140647)">
<path d="M106.287 84.3516H-54.1426V244.782H106.287V84.3516Z" fill="#C9DFE7"/>
<g style="mix-blend-mode:screen" opacity="0.4">
<path d="M106.287 183.04H-54.1429C-54.7329 183.04 -55.2129 182.56 -55.2129 181.97C-55.2129 181.38 -54.7329 180.9 -54.1429 180.9H106.287C106.877 180.9 107.357 181.38 107.357 181.97C107.357 182.56 106.877 183.04 106.287 183.04Z" fill="#8FC4C8"/>
<path d="M106.287 215.12H-54.1429C-54.7329 215.12 -55.2129 214.64 -55.2129 214.05C-55.2129 213.46 -54.7329 212.98 -54.1429 212.98H106.287C106.877 212.98 107.357 213.46 107.357 214.05C107.357 214.64 106.877 215.12 106.287 215.12Z" fill="#8FC4C8"/>
<path d="M11.6364 247.211C11.0464 247.211 10.5664 246.731 10.5664 246.141V85.7106C10.5664 85.1206 11.0464 84.6406 11.6364 84.6406C12.2264 84.6406 12.7064 85.1206 12.7064 85.7106V246.141C12.7064 246.731 12.2264 247.211 11.6364 247.211Z" fill="#8FC4C8"/>
</g>
<path d="M10.5661 84.3516H9.49609V244.782H10.5661V84.3516Z" fill="#8FC4C8"/>
<path d="M106.287 180.072H-54.1426V181.142H106.287V180.072Z" fill="#8FC4C8"/>
<path d="M106.287 212.162H-54.1426V213.232H106.287V212.162Z" fill="#8FC4C8"/>
<g style="mix-blend-mode:multiply" opacity="0.3">
<path d="M-12.6543 242.532H7.08569C7.77569 242.532 8.33569 241.972 8.33569 241.282V222.732L6.08569 240.002L-12.6543 242.522V242.532Z" fill="#8FC4C8"/>
</g>
<g style="mix-blend-mode:multiply" opacity="0.3">
<path d="M19.2871 242.532H39.0271C39.7171 242.532 40.2771 241.972 40.2771 241.282V222.732L38.0271 240.002L19.2871 242.522V242.532Z" fill="#8FC4C8"/>
</g>
<g style="mix-blend-mode:multiply" opacity="0.3">
<path d="M-12.6543 210.542H7.08569C7.77569 210.542 8.33569 209.982 8.33569 209.292V190.742L6.08569 208.012L-12.6543 210.532V210.542Z" fill="#8FC4C8"/>
</g>
<g style="mix-blend-mode:multiply" opacity="0.3">
<path d="M19.2871 210.542H39.0271C39.7171 210.542 40.2771 209.982 40.2771 209.292V190.742L38.0271 208.012L19.2871 210.532V210.542Z" fill="#8FC4C8"/>
</g>
<g style="mix-blend-mode:multiply" opacity="0.3">
<path d="M-12.6543 178.552H7.08569C7.77569 178.552 8.33569 177.992 8.33569 177.302V158.752L6.08569 176.022L-12.6543 178.542V178.552Z" fill="#8FC4C8"/>
</g>
<g style="mix-blend-mode:multiply" opacity="0.3">
<path d="M19.2871 178.552H39.0271C39.7171 178.552 40.2771 177.992 40.2771 177.302V158.752L38.0271 176.022L19.2871 178.542V178.552Z" fill="#8FC4C8"/>
</g>
</g>
</g>
</g>
</g>
<g clip-path="url(#clip0_1271_140647)">
<path d="M39.74 34.01C40.48 33.78 41.12 33.33 41.58 32.74C41.98 32.23 42.24 31.61 42.33 30.93L42.67 29C42.67 29 42.93 31.44 43.75 32.71C44.16 33.34 44.86 33.75 45.59 34.01C46.27 34.25 47.33 34.35 47.33 34.35C47.33 34.35 46.08 34.53 45.59 34.69C44.85 34.92 44.21 35.37 43.75 35.96C43.35 36.47 43.09 37.09 43 37.77L42.66 39.7C42.66 39.7 42.4 37.26 41.58 35.99C41.17 35.36 40.47 34.95 39.74 34.69C39.06 34.45 38 34.35 38 34.35C38 34.35 39.25 34.17 39.74 34.01Z" fill="white"/>
<path d="M201.4 44.0598C202.14 43.8298 202.78 43.3798 203.24 42.7898C203.64 42.2798 203.9 41.6598 203.99 40.9798L204.33 39.0498C204.33 39.0498 204.59 41.4898 205.41 42.7598C205.82 43.3898 206.52 43.7998 207.25 44.0598C207.93 44.2998 208.99 44.3998 208.99 44.3998C208.99 44.3998 207.74 44.5798 207.25 44.7398C206.51 44.9698 205.87 45.4198 205.41 46.0098C205.01 46.5198 204.75 47.1398 204.66 47.8198L204.32 49.7498C204.32 49.7498 204.06 47.3098 203.24 46.0398C202.83 45.4098 202.13 44.9998 201.4 44.7398C200.72 44.4998 199.66 44.3998 199.66 44.3998C199.66 44.3998 200.91 44.2198 201.4 44.0598Z" fill="#8DCBE0"/>
<path d="M172.68 105.42C173.42 105.19 174.06 104.74 174.52 104.15C174.92 103.64 175.18 103.02 175.27 102.34L175.61 100.41C175.61 100.41 175.87 102.85 176.69 104.12C177.1 104.75 177.8 105.16 178.53 105.42C179.21 105.66 180.27 105.76 180.27 105.76C180.27 105.76 179.02 105.94 178.53 106.1C177.79 106.33 177.15 106.78 176.69 107.37C176.29 107.88 176.03 108.5 175.94 109.18L175.6 111.11C175.6 111.11 175.34 108.67 174.52 107.4C174.11 106.77 173.41 106.36 172.68 106.1C172 105.86 170.94 105.76 170.94 105.76C170.94 105.76 172.19 105.58 172.68 105.42Z" fill="white"/>
<path d="M89.9698 46.9495C90.6898 46.7195 91.3198 46.2795 91.7798 45.6995C92.1698 45.1995 92.4298 44.5895 92.5098 43.9195L92.8398 42.0195C92.8398 42.0195 93.0998 44.4195 93.9098 45.6695C94.3098 46.2895 94.9998 46.6895 95.7198 46.9495C96.3798 47.1895 97.4298 47.2795 97.4298 47.2795C97.4298 47.2795 96.1998 47.4595 95.7198 47.6095C94.9998 47.8395 94.3698 48.2795 93.9098 48.8595C93.5198 49.3595 93.2598 49.9695 93.1798 50.6395L92.8498 52.5395C92.8498 52.5395 92.5898 50.1395 91.7798 48.8895C91.3798 48.2695 90.6898 47.8695 89.9698 47.6095C89.3098 47.3695 88.2598 47.2795 88.2598 47.2795C88.2598 47.2795 89.4898 47.0995 89.9698 46.9495Z" fill="#329AE0"/>
<path d="M173.36 33.2303C173.64 33.2303 173.86 33.0103 173.86 32.7303V24.3203C173.86 24.0403 173.64 23.8203 173.36 23.8203C173.08 23.8203 172.86 24.0403 172.86 24.3203V32.7303C172.86 33.0103 173.08 33.2303 173.36 33.2303Z" fill="#329AE0"/>
<path d="M173.36 47.7401C173.64 47.7401 173.86 47.5201 173.86 47.2401V38.8301C173.86 38.5501 173.64 38.3301 173.36 38.3301C173.08 38.3301 172.86 38.5501 172.86 38.8301V47.2401C172.86 47.5201 173.08 47.7401 173.36 47.7401Z" fill="#329AE0"/>
<path d="M161.9 36.2803H170.31C170.59 36.2803 170.81 36.0603 170.81 35.7803C170.81 35.5003 170.59 35.2803 170.31 35.2803H161.9C161.62 35.2803 161.4 35.5003 161.4 35.7803C161.4 36.0603 161.62 36.2803 161.9 36.2803Z" fill="#329AE0"/>
<path d="M176.41 36.2803H184.82C185.1 36.2803 185.32 36.0603 185.32 35.7803C185.32 35.5003 185.1 35.2803 184.82 35.2803H176.41C176.13 35.2803 175.91 35.5003 175.91 35.7803C175.91 36.0603 176.13 36.2803 176.41 36.2803Z" fill="#329AE0"/>
<path d="M171.461 34.3807C171.591 34.3807 171.721 34.3307 171.811 34.2307C172.011 34.0307 172.011 33.7207 171.811 33.5207L167.951 29.6607C167.751 29.4607 167.441 29.4607 167.241 29.6607C167.041 29.8607 167.041 30.1707 167.241 30.3707L171.101 34.2307C171.201 34.3307 171.331 34.3807 171.451 34.3807H171.461Z" fill="#329AE0"/>
<path d="M179.121 42.0409C179.251 42.0409 179.381 41.9909 179.471 41.8909C179.671 41.6909 179.671 41.3809 179.471 41.1809L175.611 37.3209C175.411 37.1209 175.101 37.1209 174.901 37.3209C174.701 37.5209 174.701 37.8309 174.901 38.0309L178.761 41.8909C178.861 41.9909 178.991 42.0409 179.111 42.0409H179.121Z" fill="#329AE0"/>
<path d="M167.601 42.0409C167.731 42.0409 167.861 41.9909 167.951 41.8909L171.811 38.0309C172.011 37.8309 172.011 37.5209 171.811 37.3209C171.611 37.1209 171.301 37.1209 171.101 37.3209L167.241 41.1809C167.041 41.3809 167.041 41.6909 167.241 41.8909C167.341 41.9909 167.471 42.0409 167.591 42.0409H167.601Z" fill="#329AE0"/>
<path d="M175.261 34.3807C175.391 34.3807 175.521 34.3307 175.611 34.2307L179.471 30.3707C179.671 30.1707 179.671 29.8607 179.471 29.6607C179.271 29.4607 178.961 29.4607 178.761 29.6607L174.901 33.5207C174.701 33.7207 174.701 34.0307 174.901 34.2307C175.001 34.3307 175.131 34.3807 175.251 34.3807H175.261Z" fill="#329AE0"/>
<path d="M192.45 133.94C192.73 133.94 192.96 133.71 192.96 133.43V126.28C192.96 126 192.73 125.77 192.45 125.77C192.17 125.77 191.94 126 191.94 126.28V133.43C191.94 133.71 192.17 133.94 192.45 133.94Z" fill="#329AE0"/>
<path d="M192.45 146.27C192.73 146.27 192.96 146.04 192.96 145.76V138.61C192.96 138.33 192.73 138.1 192.45 138.1C192.17 138.1 191.94 138.33 191.94 138.61V145.76C191.94 146.04 192.17 146.27 192.45 146.27Z" fill="#329AE0"/>
<path d="M182.71 136.53H189.86C190.14 136.53 190.37 136.3 190.37 136.02C190.37 135.74 190.14 135.51 189.86 135.51H182.71C182.43 135.51 182.2 135.74 182.2 136.02C182.2 136.3 182.43 136.53 182.71 136.53Z" fill="#329AE0"/>
<path d="M195.04 136.53H202.19C202.47 136.53 202.7 136.3 202.7 136.02C202.7 135.74 202.47 135.51 202.19 135.51H195.04C194.76 135.51 194.53 135.74 194.53 136.02C194.53 136.3 194.76 136.53 195.04 136.53Z" fill="#329AE0"/>
<path d="M190.841 134.909C190.971 134.909 191.101 134.859 191.201 134.759C191.401 134.559 191.401 134.239 191.201 134.049L187.921 130.769C187.721 130.569 187.401 130.569 187.211 130.769C187.021 130.969 187.011 131.289 187.211 131.479L190.491 134.759C190.591 134.859 190.721 134.909 190.851 134.909H190.841Z" fill="#329AE0"/>
<path d="M197.35 141.419C197.48 141.419 197.61 141.369 197.71 141.269C197.91 141.069 197.91 140.749 197.71 140.559L194.43 137.279C194.23 137.079 193.91 137.079 193.72 137.279C193.53 137.479 193.52 137.799 193.72 137.989L197 141.269C197.1 141.369 197.23 141.419 197.36 141.419H197.35Z" fill="#329AE0"/>
<path d="M187.561 141.419C187.691 141.419 187.821 141.369 187.921 141.269L191.201 137.989C191.401 137.789 191.401 137.469 191.201 137.279C191.001 137.079 190.681 137.079 190.491 137.279L187.211 140.559C187.011 140.759 187.011 141.079 187.211 141.269C187.311 141.369 187.441 141.419 187.571 141.419H187.561Z" fill="#329AE0"/>
<path d="M194.07 134.909C194.2 134.909 194.33 134.859 194.43 134.759L197.71 131.479C197.91 131.279 197.91 130.959 197.71 130.769C197.51 130.579 197.19 130.569 197 130.769L193.72 134.049C193.52 134.249 193.52 134.569 193.72 134.759C193.82 134.859 193.95 134.909 194.08 134.909H194.07Z" fill="#329AE0"/>
<g style="mix-blend-mode:screen">
<path d="M202.36 89.4602C205.73 89.4602 208.46 92.1902 208.46 95.5602C208.46 98.9302 205.73 101.66 202.36 101.66C198.99 101.66 196.26 98.9302 196.26 95.5602C196.26 92.1902 198.99 89.4602 202.36 89.4602ZM202.36 88.9102C198.69 88.9102 195.71 91.8902 195.71 95.5602C195.71 99.2302 198.69 102.21 202.36 102.21C206.03 102.21 209.01 99.2302 209.01 95.5602C209.01 91.8902 206.03 88.9102 202.36 88.9102Z" fill="white"/>
</g>
<g style="mix-blend-mode:overlay">
<path d="M198.44 92.2406C197.52 93.1306 197.12 94.7206 197.67 94.7606C198.45 94.8206 198.26 93.9406 199.18 93.0606C200.1 92.1706 201.22 91.9506 201.01 91.5506C200.64 90.8606 199.36 91.3506 198.44 92.2306V92.2406Z" fill="white"/>
</g>
<g style="mix-blend-mode:screen">
<path d="M134.72 50.5998C140.88 50.5998 145.88 55.5998 145.88 61.7598C145.88 67.9198 140.89 72.9198 134.72 72.9198C128.55 72.9198 123.56 67.9198 123.56 61.7598C123.56 55.5998 128.56 50.5998 134.72 50.5998ZM134.72 50.0498C128.26 50.0498 123.01 55.2998 123.01 61.7598C123.01 68.2198 128.26 73.4698 134.72 73.4698C141.18 73.4698 146.43 68.2198 146.43 61.7598C146.43 55.2998 141.18 50.0498 134.72 50.0498Z" fill="white"/>
</g>
<g style="mix-blend-mode:overlay">
<path d="M127.55 55.6895C125.87 57.3095 125.13 60.2296 126.15 60.3096C127.58 60.4196 127.22 58.8195 128.91 57.1995C130.59 55.5795 132.65 55.1695 132.25 54.4495C131.57 53.1895 129.24 54.0795 127.56 55.6995L127.55 55.6895Z" fill="white"/>
</g>
<g style="mix-blend-mode:screen">
<path d="M141.26 66.4699C145.3 66.4699 148.57 69.7399 148.57 73.7799C148.57 77.8199 145.3 81.0899 141.26 81.0899C137.22 81.0899 133.95 77.8199 133.95 73.7799C133.95 69.7399 137.22 66.4699 141.26 66.4699ZM141.26 65.9199C136.93 65.9199 133.4 69.4499 133.4 73.7799C133.4 78.1099 136.93 81.6399 141.26 81.6399C145.59 81.6399 149.12 78.1099 149.12 73.7799C149.12 69.4499 145.59 65.9199 141.26 65.9199Z" fill="white"/>
</g>
<g style="mix-blend-mode:overlay">
<path d="M136.56 69.8003C135.46 70.8603 134.98 72.7703 135.64 72.8203C136.57 72.8903 136.34 71.8403 137.45 70.7803C138.55 69.7203 139.9 69.4503 139.64 68.9803C139.19 68.1603 137.67 68.7403 136.56 69.8003Z" fill="white"/>
</g>
<g style="mix-blend-mode:screen">
<path d="M146.43 12.55C148.57 12.55 150.31 14.29 150.31 16.43C150.31 18.57 148.57 20.31 146.43 20.31C144.29 20.31 142.55 18.57 142.55 16.43C142.55 14.29 144.29 12.55 146.43 12.55ZM146.43 12C143.99 12 142 13.99 142 16.43C142 18.87 143.99 20.86 146.43 20.86C148.87 20.86 150.86 18.87 150.86 16.43C150.86 13.99 148.87 12 146.43 12Z" fill="white"/>
</g>
<g style="mix-blend-mode:overlay">
<path d="M143.94 14.3204C143.35 14.8804 143.1 15.9004 143.45 15.9204C143.95 15.9604 143.82 15.4004 144.41 14.8404C145 14.2804 145.71 14.1404 145.57 13.8804C145.33 13.4404 144.52 13.7504 143.94 14.3104V14.3204Z" fill="white"/>
</g>
<g style="mix-blend-mode:screen">
<path d="M66.6702 17.4504C70.1902 17.4504 73.0502 20.3104 73.0502 23.8304C73.0502 27.3504 70.1902 30.2104 66.6702 30.2104C63.1502 30.2104 60.2902 27.3504 60.2902 23.8304C60.2902 20.3104 63.1502 17.4504 66.6702 17.4504ZM66.6702 16.9004C62.8502 16.9004 59.7402 20.0104 59.7402 23.8304C59.7402 27.6504 62.8502 30.7604 66.6702 30.7604C70.4902 30.7604 73.6002 27.6504 73.6002 23.8304C73.6002 20.0104 70.4902 16.9004 66.6702 16.9004Z" fill="white"/>
</g>
<g style="mix-blend-mode:overlay">
<path d="M62.5804 20.36C61.6204 21.29 61.2004 22.96 61.7804 23C62.6004 23.06 62.3904 22.15 63.3604 21.22C64.3204 20.29 65.5004 20.06 65.2704 19.65C64.8804 18.93 63.5504 19.44 62.5904 20.36H62.5804Z" fill="white"/>
</g>
</g>
<defs>
<clipPath id="clip0_1271_140647">
<rect width="187.01" height="134.27" fill="white" transform="translate(22 12)"/>
</clipPath>
</defs>
</svg>
