<svg width="321" height="94" viewBox="0 0 321 94" fill="none" xmlns="http://www.w3.org/2000/svg">
<g clip-path="url(#clip0_1348_173034)">
<path d="M278.426 15.1145C267.403 15.1145 257.673 20.4763 251.626 28.7175C247.073 20.6004 238.413 15.1145 228.435 15.1145C215.047 15.1145 204.024 24.9941 202.157 37.8276C196.857 34.675 190.711 32.8381 184.092 32.8381C175.781 32.8381 168.141 35.7176 162.119 40.5084C151.569 20.7246 130.716 7.27051 106.678 7.27051C87.9907 7.27051 71.2439 15.4124 59.7477 28.3452C54.2732 23.3061 46.9823 20.1784 38.9448 20.1784C21.999 20.1784 8.23828 33.8807 8.23828 50.81C8.23828 67.7392 21.9741 81.4415 38.9448 81.4415C40.9853 81.4415 42.976 81.2429 44.9169 80.8458C50.1176 110.187 75.7977 132.502 106.703 132.502C131.736 132.502 153.36 117.857 163.438 96.7076C169.261 100.903 176.403 103.41 184.142 103.41C203.675 103.41 219.501 87.6224 219.501 68.1364C219.501 67.5903 219.452 67.069 219.427 66.5229C222.263 67.5406 225.299 68.1364 228.459 68.1364C235.9 68.1364 242.618 65.0832 247.446 60.1434C252.223 72.5797 264.292 81.4415 278.451 81.4415C296.815 81.4415 311.696 66.5974 311.696 48.278C311.696 29.9587 296.815 15.1145 278.451 15.1145H278.426ZM105.857 118.75H105.783C77.4151 118.304 65.6451 94.5977 65.1723 93.5799C63.9779 91.0976 65.023 88.1437 67.4865 86.9522C69.95 85.7607 72.936 86.8033 74.1305 89.2607C74.5535 90.1047 83.8849 108.474 105.957 108.821C108.694 108.871 110.909 111.13 110.859 113.86C110.809 116.566 108.594 118.75 105.882 118.75H105.857ZM285.792 70.8917C283.03 72.3315 279.77 73.101 276.51 73.101C270.662 73.101 264.715 70.6435 261.132 65.0584C259.639 62.7498 260.311 59.6717 262.625 58.2072C264.939 56.7178 268.025 57.3881 269.493 59.6966C271.931 63.4945 277.53 63.991 281.238 62.0796C283.677 60.8136 286.687 61.7817 287.957 64.2143C289.226 66.647 288.255 69.6506 285.817 70.9166L285.792 70.8917Z" fill="#C9DFE7"/>
<path d="M267.626 101.127C264.217 88.3427 251.054 80.7469 238.238 84.1725C225.423 87.5732 217.809 100.705 221.243 113.488C224.652 126.272 237.815 133.868 250.631 130.442C263.446 127.042 271.06 113.91 267.626 101.127ZM257.623 117.758C255.309 119.843 252.372 121.432 249.212 122.276C243.564 123.79 237.193 122.946 232.266 118.478C230.226 116.641 230.077 113.488 231.943 111.453C233.784 109.417 236.944 109.268 238.985 111.13C242.319 114.159 247.868 113.215 250.954 110.41C252.995 108.573 256.13 108.722 257.996 110.733C259.838 112.769 259.688 115.896 257.673 117.758H257.623Z" fill="#C9DFE7"/>
<path d="M67.4082 22.6045C67.4082 47.7756 90.9316 69.3383 124.424 78.4756C134.364 81.1819 145.79 87.3801 145.79 94.4221H174.415C174.415 87.3801 185.841 81.1819 195.781 78.4756C229.274 69.3383 252.797 47.7756 252.797 22.6045H67.4082ZM160.103 86.6817C155.555 86.6817 151.883 83.0151 151.883 78.4756C151.883 73.9361 155.555 70.2695 160.103 70.2695C164.65 70.2695 168.323 73.9361 168.323 78.4756C168.323 83.0151 164.65 86.6817 160.103 86.6817Z" fill="#8FC4C8"/>
<path d="M0.102539 0.226562H320.103V7.21045C320.103 15.7075 313.194 22.6041 304.683 22.6041H15.5225C7.0109 22.6041 0.102539 15.7075 0.102539 7.21045V0.226562Z" fill="#759EA0"/>
</g>
<defs>
<clipPath id="clip0_1348_173034">
<rect width="320" height="233" fill="white" transform="translate(0.102539 0.226562)"/>
</clipPath>
</defs>
</svg>
