<svg width="349" height="271" viewBox="0 0 349 271" fill="none" xmlns="http://www.w3.org/2000/svg">
<rect x="63.5088" y="139.503" width="7.05649" height="131.359" rx="3.52825" fill="#C9DFE7"/>
<rect x="149.272" y="64.5938" width="7.05649" height="131.359" rx="3.52825" fill="#C9DFE7"/>
<rect x="192.154" y="98.249" width="7.05649" height="172.613" rx="3.52825" fill="#C9DFE7"/>
<rect x="277.918" y="181.299" width="7.05649" height="89.5632" rx="3.52825" fill="#C9DFE7"/>
<rect x="235.036" y="84.1338" width="7.05649" height="131.359" rx="3.52825" fill="#C9DFE7"/>
<rect x="106.391" y="169.898" width="7.05649" height="51.5667" rx="3.52825" fill="#C9DFE7"/>
<rect x="106.391" y="102.049" width="7.05649" height="51.5667" rx="3.52825" fill="#C9DFE7"/>
<rect x="149.272" y="223.638" width="7.05649" height="47.2242" rx="3.52825" fill="#C9DFE7"/>
<rect x="277.918" y="135.702" width="7.05649" height="32.5684" rx="3.52825" fill="#C9DFE7"/>
<path d="M304.92 61.1465C298.445 60.1021 293.415 55.0791 292.369 48.6139C291.547 43.4914 290.327 40.2588 288.982 40.2588C287.637 40.2588 286.417 43.4914 285.595 48.6139C284.549 55.0791 279.518 60.1021 273.043 61.1465C267.913 61.9671 264.676 63.1855 264.676 64.5283C264.676 65.8711 267.913 67.0895 273.043 67.9101C279.518 68.9545 284.549 73.9775 285.595 80.4428C286.417 85.5652 287.637 88.7978 288.982 88.7978C290.327 88.7978 291.547 85.5652 292.369 80.4428C293.415 73.9775 298.445 68.9545 304.92 67.9101C310.05 67.0895 313.288 65.8711 313.288 64.5283C313.288 63.1855 310.05 61.9671 304.92 61.1465Z" fill="#E2D9BA"/>
<path d="M228.466 13.1791C224.382 12.5326 221.194 9.34974 220.547 5.27166C220.024 2.03904 219.252 0 218.405 0C217.558 0 216.786 2.03904 216.263 5.27166C215.616 9.34974 212.428 12.5326 208.344 13.1791C205.107 13.7013 203.064 14.4722 203.064 15.3177C203.064 16.1631 205.107 16.934 208.344 17.4562C212.428 18.1027 215.616 21.2856 216.263 25.3636C216.786 28.5963 217.558 30.6353 218.405 30.6353C219.252 30.6353 220.024 28.5963 220.547 25.3636C221.194 21.2856 224.382 18.1027 228.466 17.4562C231.704 16.934 233.746 16.1631 233.746 15.3177C233.746 14.4722 231.704 13.7013 228.466 13.1791Z" fill="#E2D9BA"/>
<path d="M25.4017 245.106C21.3175 244.459 18.1299 241.277 17.4824 237.198C16.9594 233.966 16.1874 231.927 15.3407 231.927C14.4939 231.927 13.7219 233.966 13.1989 237.198C12.5514 241.277 9.36378 244.459 5.27958 245.106C2.0421 245.628 0 246.399 0 247.244C0 248.09 2.0421 248.861 5.27958 249.383C9.36378 250.029 12.5514 253.212 13.1989 257.29C13.7219 260.523 14.4939 262.562 15.3407 262.562C16.1874 262.562 16.9594 260.523 17.4824 257.29C18.1299 253.212 21.3175 250.029 25.4017 249.383C28.6392 248.861 30.6813 248.09 30.6813 247.244C30.6813 246.399 28.6392 245.628 25.4017 245.106Z" fill="#E2D9BA"/>
<path d="M343.72 245.106C339.636 244.459 336.448 241.277 335.801 237.198C335.278 233.966 334.506 231.927 333.659 231.927C332.812 231.927 332.04 233.966 331.517 237.198C330.87 241.277 327.682 244.459 323.598 245.106C320.36 245.628 318.318 246.399 318.318 247.244C318.318 248.09 320.36 248.861 323.598 249.383C327.682 250.029 330.87 253.212 331.517 257.29C332.04 260.523 332.812 262.562 333.659 262.562C334.506 262.562 335.278 260.523 335.801 257.29C336.448 253.212 339.636 250.029 343.72 249.383C346.958 248.861 349 248.09 349 247.244C349 246.399 346.958 245.628 343.72 245.106Z" fill="#E2D9BA"/>
<path d="M70.3282 87.504C59.8935 85.8379 51.7749 77.7315 50.0815 67.2876C48.7616 59.0569 46.7942 53.835 44.6276 53.835C42.461 53.835 40.4936 59.0569 39.1737 67.2876C37.5051 77.7066 29.3865 85.8131 18.927 87.504C10.6839 88.8219 5.4541 90.7863 5.4541 92.9497C5.4541 95.1131 10.6839 97.0775 18.927 98.3954C29.3616 100.061 37.4802 108.168 39.1737 118.612C40.4936 126.842 42.461 132.064 44.6276 132.064C46.7942 132.064 48.7616 126.842 50.0815 118.612C51.75 108.193 59.8686 100.086 70.3282 98.3954C78.5713 97.0775 83.8011 95.1131 83.8011 92.9497C83.8011 90.7863 78.5713 88.8219 70.3282 87.504Z" fill="#E2D9BA"/>
</svg>
