<svg width="349" height="382" viewBox="0 0 349 382" fill="none" xmlns="http://www.w3.org/2000/svg">
<rect x="63.5088" y="139.503" width="7.05649" height="131.359" rx="3.52825" fill="#C9DFE7"/>
<rect x="149.272" y="64.5938" width="7.05649" height="131.359" rx="3.52825" fill="#C9DFE7"/>
<rect x="192.154" y="98.249" width="7.05649" height="172.613" rx="3.52825" fill="#C9DFE7"/>
<rect x="277.918" y="181.299" width="7.05649" height="89.5632" rx="3.52825" fill="#C9DFE7"/>
<rect x="235.036" y="84.1338" width="7.05649" height="131.359" rx="3.52825" fill="#C9DFE7"/>
<rect x="106.391" y="169.898" width="7.05649" height="51.5667" rx="3.52825" fill="#C9DFE7"/>
<rect x="106.391" y="102.049" width="7.05649" height="51.5667" rx="3.52825" fill="#C9DFE7"/>
<rect x="149.272" y="223.638" width="7.05649" height="47.2242" rx="3.52825" fill="#C9DFE7"/>
<rect x="277.918" y="135.702" width="7.05649" height="32.5684" rx="3.52825" fill="#C9DFE7"/>
<path d="M304.92 61.1465C298.445 60.1021 293.415 55.0791 292.369 48.6139C291.547 43.4914 290.327 40.2588 288.982 40.2588C287.637 40.2588 286.417 43.4914 285.595 48.6139C284.549 55.0791 279.518 60.1021 273.043 61.1465C267.913 61.9671 264.676 63.1855 264.676 64.5283C264.676 65.8711 267.913 67.0895 273.043 67.9101C279.518 68.9545 284.549 73.9775 285.595 80.4428C286.417 85.5652 287.637 88.7978 288.982 88.7978C290.327 88.7978 291.547 85.5652 292.369 80.4428C293.415 73.9775 298.445 68.9545 304.92 67.9101C310.05 67.0895 313.288 65.8711 313.288 64.5283C313.288 63.1855 310.05 61.9671 304.92 61.1465Z" fill="#E2D9BA"/>
<path d="M228.466 13.1791C224.382 12.5326 221.194 9.34974 220.547 5.27166C220.024 2.03904 219.252 0 218.405 0C217.558 0 216.786 2.03904 216.263 5.27166C215.616 9.34974 212.428 12.5326 208.344 13.1791C205.107 13.7013 203.064 14.4722 203.064 15.3177C203.064 16.1631 205.107 16.934 208.344 17.4562C212.428 18.1027 215.616 21.2856 216.263 25.3636C216.786 28.5963 217.558 30.6353 218.405 30.6353C219.252 30.6353 220.024 28.5963 220.547 25.3636C221.194 21.2856 224.382 18.1027 228.466 17.4562C231.704 16.934 233.746 16.1631 233.746 15.3177C233.746 14.4722 231.704 13.7013 228.466 13.1791Z" fill="#E2D9BA"/>
<path d="M25.4017 245.106C21.3175 244.459 18.1299 241.277 17.4824 237.198C16.9594 233.966 16.1874 231.927 15.3407 231.927C14.4939 231.927 13.7219 233.966 13.1989 237.198C12.5514 241.277 9.36378 244.459 5.27958 245.106C2.0421 245.628 0 246.399 0 247.244C0 248.09 2.0421 248.861 5.27958 249.383C9.36378 250.029 12.5514 253.212 13.1989 257.29C13.7219 260.523 14.4939 262.562 15.3407 262.562C16.1874 262.562 16.9594 260.523 17.4824 257.29C18.1299 253.212 21.3175 250.029 25.4017 249.383C28.6392 248.861 30.6813 248.09 30.6813 247.244C30.6813 246.399 28.6392 245.628 25.4017 245.106Z" fill="#E2D9BA"/>
<path d="M343.72 245.106C339.636 244.459 336.448 241.277 335.801 237.198C335.278 233.966 334.506 231.927 333.659 231.927C332.812 231.927 332.04 233.966 331.517 237.198C330.87 241.277 327.682 244.459 323.598 245.106C320.36 245.628 318.318 246.399 318.318 247.244C318.318 248.09 320.36 248.861 323.598 249.383C327.682 250.029 330.87 253.212 331.517 257.29C332.04 260.523 332.812 262.562 333.659 262.562C334.506 262.562 335.278 260.523 335.801 257.29C336.448 253.212 339.636 250.029 343.72 249.383C346.958 248.861 349 248.09 349 247.244C349 246.399 346.958 245.628 343.72 245.106Z" fill="#E2D9BA"/>
<path d="M70.3282 87.504C59.8935 85.8379 51.7749 77.7315 50.0815 67.2876C48.7616 59.0569 46.7942 53.835 44.6276 53.835C42.461 53.835 40.4936 59.0569 39.1737 67.2876C37.5051 77.7066 29.3865 85.8131 18.927 87.504C10.6839 88.8219 5.4541 90.7863 5.4541 92.9497C5.4541 95.1131 10.6839 97.0775 18.927 98.3954C29.3616 100.061 37.4802 108.168 39.1737 118.612C40.4936 126.842 42.461 132.064 44.6276 132.064C46.7942 132.064 48.7616 126.842 50.0815 118.612C51.75 108.193 59.8686 100.086 70.3282 98.3954C78.5713 97.0775 83.8011 95.1131 83.8011 92.9497C83.8011 90.7863 78.5713 88.8219 70.3282 87.504Z" fill="#E2D9BA"/>
<g clip-path="url(#clip0_1348_173016)">
<path d="M292.426 303.115C281.403 303.115 271.673 308.476 265.626 316.718C261.073 308.6 252.413 303.115 242.435 303.115C229.047 303.115 218.024 312.994 216.157 325.828C210.857 322.675 204.711 320.838 198.092 320.838C189.781 320.838 182.141 323.718 176.119 328.508C165.569 308.725 144.716 295.271 120.678 295.271C101.991 295.271 85.2439 303.412 73.7477 316.345C68.2732 311.306 60.9823 308.178 52.9448 308.178C35.999 308.178 22.2383 321.881 22.2383 338.81C22.2383 355.739 35.9741 369.441 52.9448 369.441C54.9853 369.441 56.976 369.243 58.9169 368.846C64.1176 398.187 89.7977 420.502 120.703 420.502C145.736 420.502 167.36 405.857 177.438 384.708C183.261 388.903 190.403 391.41 198.142 391.41C217.675 391.41 233.501 375.622 233.501 356.136C233.501 355.59 233.452 355.069 233.427 354.523C236.263 355.541 239.299 356.136 242.459 356.136C249.9 356.136 256.618 353.083 261.446 348.143C266.223 360.58 278.292 369.441 292.451 369.441C310.815 369.441 325.696 354.597 325.696 336.278C325.696 317.959 310.815 303.115 292.451 303.115H292.426ZM119.857 406.75H119.783C91.4151 406.304 79.6451 382.598 79.1723 381.58C77.9779 379.098 79.023 376.144 81.4865 374.952C83.95 373.761 86.936 374.803 88.1305 377.261C88.5535 378.105 97.8849 396.474 119.957 396.821C122.694 396.871 124.909 399.13 124.859 401.86C124.809 404.566 122.594 406.75 119.882 406.75H119.857ZM299.792 358.892C297.03 360.331 293.77 361.101 290.51 361.101C284.662 361.101 278.715 358.644 275.132 353.058C273.639 350.75 274.311 347.672 276.625 346.207C278.939 344.718 282.025 345.388 283.493 347.697C285.931 351.494 291.53 351.991 295.238 350.08C297.677 348.814 300.687 349.782 301.957 352.214C303.226 354.647 302.255 357.651 299.817 358.917L299.792 358.892Z" fill="#C9DFE7"/>
<path d="M281.626 389.127C278.217 376.343 265.054 368.747 252.238 372.172C239.423 375.573 231.809 388.705 235.243 401.488C238.652 414.272 251.815 421.868 264.631 418.442C277.446 415.042 285.06 401.91 281.626 389.127ZM271.623 405.758C269.309 407.843 266.372 409.432 263.212 410.276C257.564 411.79 251.193 410.946 246.266 406.478C244.226 404.641 244.077 401.488 245.943 399.453C247.784 397.417 250.944 397.268 252.985 399.13C256.319 402.159 261.868 401.215 264.954 398.41C266.995 396.573 270.13 396.722 271.996 398.733C273.838 400.769 273.688 403.896 271.673 405.758H271.623Z" fill="#C9DFE7"/>
<path d="M81.4082 310.604C81.4082 335.776 104.932 357.338 138.424 366.476C148.364 369.182 159.79 375.38 159.79 382.422H188.415C188.415 375.38 199.841 369.182 209.781 366.476C243.274 357.338 266.797 335.776 266.797 310.604H81.4082ZM174.103 374.682C169.555 374.682 165.883 371.015 165.883 366.476C165.883 361.936 169.555 358.27 174.103 358.27C178.65 358.27 182.323 361.936 182.323 366.476C182.323 371.015 178.65 374.682 174.103 374.682Z" fill="#8FC4C8"/>
<path d="M14.1025 288.227H334.103V295.21C334.103 303.708 327.194 310.604 318.683 310.604H29.5225C21.0109 310.604 14.1025 303.708 14.1025 295.21V288.227Z" fill="#759EA0"/>
</g>
<defs>
<clipPath id="clip0_1348_173016">
<rect width="320" height="233" fill="white" transform="translate(14.1025 288.227)"/>
</clipPath>
</defs>
</svg>
