<svg width="110" height="59" viewBox="0 0 110 59" fill="none" xmlns="http://www.w3.org/2000/svg">
<path d="M26.2352 2.44707C23.9562 2.44707 21.9698 2.87134 20.276 3.71987C18.613 4.53698 17.2271 5.62123 16.1184 6.9726C15.0097 8.29254 14.1782 9.78534 13.6239 11.451C13.1003 13.1166 12.8386 14.7666 12.8386 16.4008C12.8386 18.255 13.1927 20.0778 13.901 21.8691C14.6094 23.6291 15.5795 25.2004 16.8114 26.5832C18.074 27.9346 19.5369 29.0345 21.1999 29.8831C22.8629 30.7002 24.6646 31.1087 26.6048 31.1087C27.1591 31.1087 27.8059 31.0459 28.545 30.9202C29.3149 30.7945 30.0694 30.5588 30.8086 30.2131C31.5477 29.8359 32.2252 29.3174 32.8412 28.6574C33.4879 27.9974 33.9806 27.1332 34.3194 26.0647H34.7814V31.2973C34.3194 31.2973 33.8267 31.3602 33.3031 31.4859C32.8104 31.6116 32.256 31.753 31.6401 31.9101C30.8393 32.1301 29.9462 32.3344 28.9607 32.523C28.006 32.7115 26.9897 32.8058 25.9118 32.8058C23.2325 32.8058 20.8765 32.3344 18.844 31.3916C16.8114 30.4488 15.1175 29.2231 13.7625 27.7146C12.4074 26.2061 11.3911 24.509 10.7136 22.6234C10.036 20.7063 9.69727 18.7735 9.69727 16.825C9.69727 14.8766 10.036 12.9438 10.7136 11.0267C11.3911 9.10965 12.4228 7.39687 13.8087 5.88836C15.1945 4.34842 16.9345 3.10704 19.0287 2.16423C21.1229 1.22141 23.5867 0.75 26.42 0.75C27.4363 0.75 28.3448 0.844282 29.1455 1.03284C29.977 1.22141 30.7162 1.40997 31.3629 1.59854C31.8249 1.75567 32.2406 1.88138 32.6102 1.97566C33.0105 2.03852 33.3955 2.06995 33.7651 2.06995V7.30259H33.3031C33.1183 6.32834 32.7796 5.52694 32.2868 4.8984C31.7941 4.23843 31.2089 3.73559 30.5314 3.38989C29.8846 3.04419 29.1763 2.80849 28.4064 2.68278C27.6673 2.52564 26.9435 2.44707 26.2352 2.44707Z" fill="#21212F"/>
<path d="M40.5557 25.0277C40.5557 24.3599 40.6615 23.6724 40.8733 22.9653C41.1042 22.2385 41.3833 21.6591 41.7105 21.227C42.1725 20.6574 42.6922 20.2154 43.2696 19.9011C43.8663 19.5869 44.3379 19.3904 44.6844 19.3119C45.0501 19.2333 45.2329 19.1744 45.2329 19.1351C45.2329 19.0762 45.1175 18.9092 44.8865 18.6342C44.6555 18.3396 44.4245 17.9075 44.1936 17.3378C43.9626 16.7486 43.8471 16.0808 43.8471 15.3344C43.8471 14.038 44.4053 13.0657 45.5217 12.4175C46.6381 11.7497 47.8892 11.4158 49.275 11.4158C49.9487 11.4158 50.5839 11.5336 51.1806 11.7693C51.7773 11.9854 52.1141 12.0934 52.1911 12.0934C52.2681 12.0934 52.3644 12.0836 52.4798 12.064C52.6146 12.0247 52.7301 12.005 52.8263 12.005C53.1343 12.005 53.2883 12.2309 53.2883 12.6827C53.2883 12.7023 53.2979 12.8398 53.3171 13.0952C53.3364 13.3309 53.3556 13.6059 53.3749 13.9201C53.3941 14.2344 53.4038 14.4898 53.4038 14.6862C53.4038 15.2558 53.3845 15.5995 53.346 15.7174C53.3268 15.8352 53.2401 15.8942 53.0862 15.8942C52.9707 15.8942 52.7686 15.7174 52.4798 15.3638C52.1911 15.0103 51.8832 14.6272 51.5559 14.2148C51.2287 13.7826 50.786 13.3898 50.2278 13.0362C49.6889 12.6827 49.1307 12.5059 48.5532 12.5059C47.6486 12.5059 46.9749 12.7514 46.5322 13.2425C46.0895 13.7139 45.8681 14.2246 45.8681 14.7746C45.8681 15.2656 46.128 15.904 46.6477 16.6897C47.1866 17.4557 47.7256 18.1334 48.2645 18.7226C48.8227 19.3119 49.6023 20.1172 50.6032 21.1386C52.0468 22.6117 53.4423 23.9376 54.7896 25.1161C56.137 26.2946 56.8973 26.8839 57.0705 26.8839C57.186 26.8839 57.3015 26.8053 57.417 26.6482C57.5325 26.4714 57.6287 26.1866 57.7057 25.7937C57.7827 25.4009 57.8212 24.9393 57.8212 24.409C57.8212 23.6822 57.7153 23.1028 57.5036 22.6707C57.3111 22.2189 57.1379 21.9439 56.9839 21.8457C56.8299 21.7278 56.5604 21.5707 56.1755 21.3743C56.0407 21.3154 55.8675 21.2761 55.6558 21.2564C55.4633 21.2368 55.3189 21.2073 55.2227 21.168C55.1265 21.1091 55.0783 21.0011 55.0783 20.844C55.0783 20.7065 55.1168 20.6181 55.1938 20.5788C55.2901 20.5395 55.4922 20.5199 55.8001 20.5199C56.2043 20.5199 56.6471 20.5297 57.1283 20.5493C57.6287 20.569 58.62 20.5788 60.1021 20.5788C60.4678 20.5788 60.6507 20.7065 60.6507 20.9618C60.6507 21.0993 60.5929 21.2073 60.4774 21.2859C60.3812 21.3448 60.2561 21.3939 60.1021 21.4332C59.9673 21.4725 59.8326 21.5904 59.6979 21.7868C59.5824 21.9832 59.515 22.2582 59.4958 22.6117C59.4765 22.8474 59.4477 23.1126 59.4092 23.4072C59.3899 23.7019 59.361 24.0063 59.3225 24.3206C59.284 24.6152 59.2552 24.8215 59.2359 24.9393C59.1782 25.3125 59.0627 25.7152 58.8895 26.1473C58.7162 26.5794 58.5526 26.9428 58.3986 27.2374C58.2639 27.5321 58.1965 27.7088 58.1965 27.7678C58.1965 27.9446 58.7643 28.4061 59.9 29.1525C61.0549 29.8793 62.2194 30.5373 63.3935 31.1266C63.7785 31.323 64.1923 31.4212 64.635 31.4212C64.7697 31.4212 64.9526 31.4114 65.1836 31.3917C65.4146 31.3524 65.5782 31.3328 65.6744 31.3328C65.9246 31.3328 66.0497 31.4212 66.0497 31.598C66.0497 31.9122 65.7706 32.1774 65.2124 32.3935C64.6735 32.6095 64.0191 32.7176 63.2491 32.7176C62.4985 32.7176 61.7767 32.6095 61.0837 32.3935C60.3908 32.1971 59.8037 31.9613 59.3225 31.6864C58.8413 31.3917 58.4179 31.0971 58.0522 30.8025C57.6865 30.5078 57.3881 30.2623 57.1571 30.0659C56.9454 29.8498 56.8203 29.7418 56.7818 29.7418C56.7048 29.7418 56.5508 29.8498 56.3198 30.0659C56.1081 30.2623 55.8194 30.5177 55.4537 30.8319C55.088 31.1266 54.6453 31.431 54.1256 31.7453C53.6059 32.0399 52.9129 32.2854 52.0468 32.4819C51.1806 32.6979 50.2278 32.806 49.1884 32.806C48.5725 32.806 47.9565 32.7569 47.3406 32.6586C46.7247 32.5801 45.9836 32.3837 45.1175 32.0694C44.2705 31.7551 43.5199 31.3328 42.8654 30.8025C42.2302 30.2721 41.6817 29.5061 41.2197 28.5044C40.777 27.5026 40.5557 26.3437 40.5557 25.0277ZM42.4612 24.026C42.4612 24.7134 42.6248 25.4304 42.952 26.1768C43.2793 26.9232 43.7508 27.6597 44.3668 28.3865C45.002 29.0936 45.8778 29.6829 46.9941 30.1543C48.1105 30.606 49.3617 30.8319 50.7475 30.8319C51.5752 30.8319 52.3836 30.6944 53.1728 30.4194C53.9812 30.1248 54.5875 29.84 54.9917 29.565C55.3959 29.2704 55.598 29.0641 55.598 28.9463C55.598 28.8677 55.3478 28.6418 54.8474 28.2686C54.3469 27.8758 53.5192 27.1785 52.3644 26.1768C51.2095 25.175 50.0353 24.0652 48.842 22.8474C48.5725 22.5725 48.303 22.3073 48.0335 22.0519C47.7833 21.7769 47.5716 21.5511 47.3984 21.3743C47.2251 21.1975 47.0519 21.0306 46.8787 20.8734C46.7247 20.6966 46.5996 20.5591 46.5033 20.4609C46.4071 20.3627 46.3108 20.2645 46.2146 20.1663C46.1376 20.0681 46.0702 19.9993 46.0125 19.9601C45.9547 19.9208 45.897 19.8815 45.8393 19.8422C45.8008 19.8029 45.7623 19.7833 45.7238 19.7833C45.6853 19.7636 45.6468 19.7538 45.6083 19.7538C44.9731 19.7538 44.2898 20.1663 43.5584 20.9913C42.8269 21.8162 42.4612 22.8278 42.4612 24.026Z" fill="#21212F"/>
<path d="M93.7434 31.3916H93.9744C94.19 31.3916 94.3902 31.2973 94.575 31.1087C94.7597 30.9202 94.9137 30.7002 95.0369 30.4488C95.1909 30.1974 95.2987 29.9302 95.3603 29.6474C95.4219 29.3331 95.4527 29.0503 95.4527 28.7988V4.00272L83.5343 32.3815L72.2164 5.46409V28.7988C72.2164 29.0503 72.2472 29.3331 72.3088 29.6474C72.3704 29.9302 72.4628 30.1974 72.586 30.4488C72.7399 30.7002 72.9093 30.9202 73.0941 31.1087C73.2789 31.2973 73.4945 31.3916 73.7408 31.3916H73.9718V31.863H68.9365V31.3916H69.1675C69.3831 31.3916 69.5833 31.2973 69.768 31.1087C69.9528 30.9202 70.1068 30.7002 70.23 30.4488C70.3532 30.1974 70.4456 29.9302 70.5072 29.6474C70.5688 29.3331 70.5996 29.0503 70.5996 28.7988V3.67273C70.5996 3.45274 70.5688 3.20133 70.5072 2.91848C70.4456 2.63564 70.3532 2.3685 70.23 2.11709C70.1068 1.86567 69.9528 1.66139 69.768 1.50425C69.5833 1.31569 69.3831 1.22141 69.1675 1.22141H68.9365V0.75H73.6485L84.3658 26.5361L95.0831 0.75H100.303V1.22141H100.072C99.8258 1.22141 99.6103 1.31569 99.4255 1.50425C99.2407 1.66139 99.0713 1.86567 98.9173 2.11709C98.7941 2.3685 98.7017 2.63564 98.6402 2.91848C98.5786 3.20133 98.5478 3.45274 98.5478 3.67273V28.7988C98.5478 29.0503 98.5786 29.3331 98.6402 29.6474C98.7017 29.9302 98.7941 30.1974 98.9173 30.4488C99.0713 30.7002 99.2407 30.9202 99.4255 31.1087C99.6103 31.2973 99.8258 31.3916 100.072 31.3916H100.303V31.863H93.7434V31.3916Z" fill="#21212F"/>
<path d="M0.142578 40.99H43.4507V41.5056H0.142578V40.99Z" fill="#759EA0"/>
<path fill-rule="evenodd" clip-rule="evenodd" d="M60.8647 38.7529C60.9093 38.7911 60.9366 38.8462 60.9403 38.9055C61.0185 40.1713 60.751 41.3755 60.231 42.4324C59.2232 44.4805 57.2335 45.9752 54.8346 46.2722C54.7732 46.3047 54.6995 46.3049 54.6375 46.2715C54.5686 46.2344 54.5252 46.1617 54.5243 46.0822L54.5242 46.07C54.3796 43.5781 55.5404 41.3243 57.4235 39.9664L57.4246 39.9655C58.3666 39.2956 59.4784 38.8469 60.7042 38.7038C60.7621 38.6971 60.82 38.7148 60.8647 38.7529ZM54.9389 45.8209C57.1249 45.4976 58.9285 44.1136 59.8515 42.2379C60.3075 41.311 60.5559 40.2651 60.5267 39.1646C59.4622 39.3253 58.4955 39.7322 57.668 40.3207C55.9552 41.5561 54.8827 43.5755 54.9389 45.8209Z" fill="url(#paint0_linear_2579_28949)"/>
<path fill-rule="evenodd" clip-rule="evenodd" d="M48.5905 38.572C48.6361 38.5347 48.6947 38.5182 48.7526 38.5264C49.9717 38.6991 51.0748 39.1705 51.9948 39.8681C53.8408 41.2608 54.9446 43.5529 54.7502 46.0363L54.7503 46.0439C54.7511 46.1235 54.7092 46.1976 54.641 46.2362C54.5729 46.2748 54.4895 46.2722 54.4238 46.2294L54.4171 46.2251C52.034 45.8611 50.098 44.3289 49.1441 42.2629C48.6487 41.1974 48.4129 39.9806 48.5117 38.7236C48.5164 38.6642 48.5449 38.6093 48.5905 38.572ZM54.3409 45.7737C54.4408 43.5332 53.4181 41.4806 51.7422 40.2164C50.9366 39.6056 49.9793 39.178 48.9207 38.9916C48.8725 40.0882 49.0943 41.145 49.5279 42.0774C50.4032 43.9735 52.1633 45.3941 54.3409 45.7737Z" fill="url(#paint1_linear_2579_28949)"/>
<path fill-rule="evenodd" clip-rule="evenodd" d="M54.7186 36.1427C54.777 36.1432 54.8327 36.1683 54.8724 36.212C55.7096 37.1327 56.2718 38.2099 56.552 39.344C57.1185 41.6143 56.5526 44.1021 54.8627 45.9L54.858 45.906C54.8094 45.9681 54.7309 45.9985 54.6542 45.9844C54.5775 45.9703 54.5146 45.9144 54.4902 45.8389L54.4877 45.8312C52.8675 44.0111 52.3178 41.5746 52.8596 39.3587C53.1363 38.2137 53.7079 37.1191 54.5636 36.2093C54.6041 36.1663 54.6601 36.1422 54.7186 36.1427ZM54.7084 45.4325C56.1746 43.7616 56.6547 41.5117 56.1404 39.4507C55.895 38.4576 55.4187 37.5085 54.7143 36.6809C53.9972 37.4991 53.5139 38.4607 53.2718 39.4628C52.7745 41.4964 53.2571 43.7328 54.7084 45.4325Z" fill="url(#paint2_linear_2579_28949)"/>
<path d="M66.5488 40.99H109.857V41.5056H66.5488V40.99Z" fill="#759EA0"/>
<path d="M105.959 58.2501C105.497 58.2501 105.07 58.1735 104.677 58.0203C104.29 57.8612 103.952 57.6402 103.664 57.3574C103.381 57.0745 103.158 56.7416 102.997 56.3586C102.841 55.9755 102.763 55.5572 102.763 55.1034C102.763 54.6497 102.841 54.2313 102.997 53.8483C103.158 53.4653 103.383 53.1324 103.672 52.8495C103.961 52.5667 104.299 52.3486 104.686 52.1954C105.078 52.0363 105.506 51.9568 105.968 51.9568C106.429 51.9568 106.851 52.0304 107.232 52.1778C107.619 52.3251 107.948 52.549 108.22 52.8495L107.821 53.2649C107.567 53.0057 107.287 52.8201 106.981 52.7081C106.675 52.5961 106.346 52.5402 105.993 52.5402C105.618 52.5402 105.272 52.605 104.954 52.7346C104.642 52.8584 104.368 53.0381 104.131 53.2738C103.9 53.5036 103.718 53.7747 103.586 54.087C103.459 54.3934 103.395 54.7322 103.395 55.1034C103.395 55.4688 103.459 55.8076 103.586 56.1199C103.718 56.4322 103.9 56.7062 104.131 56.9419C104.368 57.1717 104.642 57.3515 104.954 57.4811C105.272 57.6049 105.615 57.6667 105.985 57.6667C106.331 57.6667 106.658 57.6137 106.964 57.5076C107.275 57.4016 107.561 57.2218 107.821 56.9685L108.185 57.4634C107.896 57.7227 107.558 57.9201 107.171 58.0556C106.785 58.1853 106.38 58.2501 105.959 58.2501ZM107.57 57.3839V55.1034H108.185V57.4634L107.57 57.3839Z" fill="black"/>
<path d="M96.2539 58.1973V52.01H96.7823L100.966 57.3841H100.689V52.01H101.321V58.1973H100.793L96.6177 52.8232H96.8949V58.1973H96.2539Z" fill="black"/>
<path d="M93.6396 58.1973V52.01H94.2806V58.1973H93.6396Z" fill="black"/>
<path d="M89.4429 58.1973L86.7578 52.01H87.4507L89.9626 57.8349H89.5815L92.1107 52.01H92.7603L90.0752 58.1973H89.4429Z" fill="black"/>
<path d="M83.2812 58.2501C82.8251 58.2501 82.4006 58.1735 82.008 58.0203C81.6211 57.8612 81.2833 57.6402 80.9946 57.3574C80.7116 57.0686 80.4893 56.7357 80.3276 56.3586C80.1717 55.9755 80.0938 55.5572 80.0938 55.1034C80.0938 54.6497 80.1717 54.2343 80.3276 53.8572C80.4893 53.4741 80.7116 53.1412 80.9946 52.8584C81.2833 52.5696 81.6211 52.3486 82.008 52.1954C82.3949 52.0363 82.8193 51.9568 83.2812 51.9568C83.7374 51.9568 84.1589 52.0363 84.5458 52.1954C84.9327 52.3486 85.2676 52.5667 85.5506 52.8495C85.8393 53.1324 86.0616 53.4653 86.2175 53.8483C86.3792 54.2313 86.46 54.6497 86.46 55.1034C86.46 55.5572 86.3792 55.9755 86.2175 56.3586C86.0616 56.7416 85.8393 57.0745 85.5506 57.3574C85.2676 57.6402 84.9327 57.8612 84.5458 58.0203C84.1589 58.1735 83.7374 58.2501 83.2812 58.2501ZM83.2812 57.6667C83.645 57.6667 83.9799 57.6049 84.286 57.4811C84.5978 57.3515 84.8663 57.1717 85.0915 56.9419C85.3225 56.7062 85.5015 56.4352 85.6285 56.1288C85.7556 55.8164 85.8191 55.4747 85.8191 55.1034C85.8191 54.7322 85.7556 54.3934 85.6285 54.087C85.5015 53.7747 85.3225 53.5036 85.0915 53.2738C84.8663 53.0381 84.5978 52.8584 84.286 52.7346C83.9799 52.605 83.645 52.5402 83.2812 52.5402C82.9174 52.5402 82.5796 52.605 82.2678 52.7346C81.956 52.8584 81.6846 53.0381 81.4536 53.2738C81.2284 53.5036 81.0494 53.7747 80.9166 54.087C80.7896 54.3934 80.726 54.7322 80.726 55.1034C80.726 55.4688 80.7896 55.8076 80.9166 56.1199C81.0494 56.4322 81.2284 56.7062 81.4536 56.9419C81.6846 57.1717 81.956 57.3515 82.2678 57.4811C82.5796 57.6049 82.9174 57.6667 83.2812 57.6667Z" fill="black"/>
<path d="M72.3584 58.1973V52.01H72.8868L75.6585 56.8361H75.3813L78.127 52.01H78.6554V58.1973H78.0404V52.9911H78.1877L75.6585 57.4106H75.3553L72.8088 52.9911H72.9734V58.1973H72.3584Z" fill="black"/>
<path d="M62.9355 58.1973V52.01H65.4041C66.0508 52.01 66.6167 52.1426 67.1018 52.4078C67.5926 52.667 67.9737 53.0294 68.2451 53.4949C68.5165 53.9605 68.6522 54.4967 68.6522 55.1036C68.6522 55.7106 68.5165 56.2468 68.2451 56.7123C67.9737 57.1778 67.5926 57.5432 67.1018 57.8083C66.6167 58.0676 66.0508 58.1973 65.4041 58.1973H62.9355ZM63.5765 57.6316H65.3695C65.9065 57.6316 66.3713 57.5255 66.764 57.3134C67.1624 57.0953 67.4714 56.7978 67.6908 56.4206C67.9102 56.0376 68.0199 55.5986 68.0199 55.1036C68.0199 54.6028 67.9102 54.1638 67.6908 53.7866C67.4714 53.4095 67.1624 53.1149 66.764 52.9027C66.3713 52.6847 65.9065 52.5757 65.3695 52.5757H63.5765V57.6316Z" fill="black"/>
<path d="M55.8887 58.1973V52.01H56.417L60.6006 57.3841H60.3234V52.01H60.9557V58.1973H60.4274L56.2525 52.8232H56.5296V58.1973H55.8887Z" fill="black"/>
<path d="M48.7109 58.1973L51.4827 52.01H52.115L54.8867 58.1973H54.2111L51.6646 52.3901H51.9244L49.3779 58.1973H48.7109ZM49.8023 56.5444L49.9929 56.014H53.5181L53.7087 56.5444H49.8023Z" fill="black"/>
<path d="M43.3739 58.2501C42.9119 58.2501 42.4846 58.1735 42.092 58.0203C41.7051 57.8612 41.3673 57.6402 41.0785 57.3574C40.7956 57.0745 40.5733 56.7416 40.4116 56.3586C40.2557 55.9755 40.1777 55.5572 40.1777 55.1034C40.1777 54.6497 40.2557 54.2313 40.4116 53.8483C40.5733 53.4653 40.7985 53.1324 41.0872 52.8495C41.3759 52.5667 41.7137 52.3486 42.1006 52.1954C42.4933 52.0363 42.9206 51.9568 43.3825 51.9568C43.8445 51.9568 44.266 52.0304 44.6471 52.1778C45.034 52.3251 45.3632 52.549 45.6346 52.8495L45.2361 53.2649C44.9821 53.0057 44.702 52.8201 44.396 52.7081C44.0899 52.5961 43.7608 52.5402 43.4085 52.5402C43.0332 52.5402 42.6867 52.605 42.3691 52.7346C42.0573 52.8584 41.783 53.0381 41.5463 53.2738C41.3153 53.5036 41.1334 53.7747 41.0006 54.087C40.8736 54.3934 40.81 54.7322 40.81 55.1034C40.81 55.4688 40.8736 55.8076 41.0006 56.1199C41.1334 56.4322 41.3153 56.7062 41.5463 56.9419C41.783 57.1717 42.0573 57.3515 42.3691 57.4811C42.6867 57.6049 43.0303 57.6667 43.3999 57.6667C43.7463 57.6667 44.0726 57.6137 44.3786 57.5076C44.6904 57.4016 44.9763 57.2218 45.2361 56.9685L45.5999 57.4634C45.3112 57.7227 44.9734 57.9201 44.5865 58.0556C44.1996 58.1853 43.7954 58.2501 43.3739 58.2501ZM44.9849 57.3839V55.1034H45.5999V57.4634L44.9849 57.3839Z" fill="black"/>
<path d="M33.668 58.1973V52.01H34.1963L38.3799 57.3841H38.1027V52.01H38.735V58.1973H38.2067L34.0318 52.8232H34.3089V58.1973H33.668Z" fill="black"/>
<path d="M31.0547 58.1973V52.01H31.6956V58.1973H31.0547Z" fill="black"/>
<path d="M24.0088 58.1973V52.01H24.5371L28.7207 57.3841H28.4435V52.01H29.0758V58.1973H28.5475L24.3726 52.8232H24.6498V58.1973H24.0088Z" fill="black"/>
<path d="M16.8301 58.1973L19.6018 52.01H20.2341L23.0058 58.1973H22.3302L19.7837 52.3901H20.0435L17.497 58.1973H16.8301ZM17.9214 56.5444L18.112 56.014H21.6373L21.8278 56.5444H17.9214Z" fill="black"/>
<path d="M12.5775 54.7766H15.7823V55.3334H12.5775V54.7766ZM12.6468 57.6316H16.2934V58.1973H12.0059V52.01H16.1634V52.5757H12.6468V57.6316Z" fill="black"/>
<path d="M6.90527 58.1973V52.01H7.54623V57.6316H10.9416V58.1973H6.90527Z" fill="black"/>
<path d="M3.31274 58.2501C2.85656 58.2501 2.43502 58.1735 2.04814 58.0203C1.66125 57.8612 1.32633 57.6402 1.04339 57.3574C0.760441 57.0745 0.538126 56.7416 0.376442 56.3586C0.220533 55.9755 0.142578 55.5572 0.142578 55.1034C0.142578 54.6497 0.220533 54.2313 0.376442 53.8483C0.538126 53.4653 0.760441 53.1324 1.04339 52.8495C1.33211 52.5667 1.66991 52.3486 2.0568 52.1954C2.44369 52.0363 2.86522 51.9568 3.3214 51.9568C3.76025 51.9568 4.17313 52.0334 4.56001 52.1866C4.9469 52.3339 5.27315 52.5578 5.53878 52.8584L5.13168 53.2738C4.88338 53.0145 4.60909 52.8289 4.30882 52.7169C4.00855 52.5991 3.68519 52.5402 3.33872 52.5402C2.97493 52.5402 2.63713 52.605 2.32531 52.7346C2.01349 52.8584 1.74209 53.0381 1.51112 53.2738C1.28014 53.5036 1.09824 53.7747 0.965433 54.087C0.838396 54.3934 0.774877 54.7322 0.774877 55.1034C0.774877 55.4747 0.838396 55.8164 0.965433 56.1288C1.09824 56.4352 1.28014 56.7062 1.51112 56.9419C1.74209 57.1717 2.01349 57.3515 2.32531 57.4811C2.63713 57.6049 2.97493 57.6667 3.33872 57.6667C3.68519 57.6667 4.00855 57.6078 4.30882 57.49C4.60909 57.3721 4.88338 57.1835 5.13168 56.9243L5.53878 57.3397C5.27315 57.6402 4.9469 57.8671 4.56001 58.0203C4.17313 58.1735 3.75737 58.2501 3.31274 58.2501Z" fill="black"/>
<defs>
<linearGradient id="paint0_linear_2579_28949" x1="54.0542" y1="45.5371" x2="61.4064" y2="39.4478" gradientUnits="userSpaceOnUse">
<stop stop-color="#AD9771"/>
<stop offset="1" stop-color="#AD9771"/>
</linearGradient>
<linearGradient id="paint1_linear_2579_28949" x1="48.0317" y1="39.2593" x2="55.2368" y2="45.5179" gradientUnits="userSpaceOnUse">
<stop stop-color="#AD9771"/>
<stop offset="1" stop-color="#AD9771"/>
</linearGradient>
<linearGradient id="paint2_linear_2579_28949" x1="53.8598" y1="36.3144" x2="55.4345" y2="45.8335" gradientUnits="userSpaceOnUse">
<stop stop-color="#AD9771"/>
<stop offset="1" stop-color="#AD9771"/>
</linearGradient>
</defs>
</svg>
