<svg width="40" height="40" viewBox="0 0 40 40" fill="none" xmlns="http://www.w3.org/2000/svg">
<path d="M36.1136 23.8865C38.26 14.9872 32.7857 6.03285 23.8864 3.88646C14.9871 1.74006 6.03278 7.21438 3.88639 16.1137C1.74 25.013 7.21431 33.9673 16.1136 36.1137C25.0129 38.2601 33.9672 32.7858 36.1136 23.8865Z" fill="#FFFDFD"/>
<path d="M19.9997 36.9248C10.6689 36.9248 3.0752 29.3346 3.0752 20.0003C3.0752 10.6661 10.6689 3.07935 19.9997 3.07935C29.3305 3.07935 36.9241 10.6695 36.9241 20.0038C36.9241 29.3381 29.3339 36.9283 19.9997 36.9283V36.9248ZM19.9997 3.77697C11.0526 3.77697 3.77282 11.0567 3.77282 20.0038C3.77282 28.9509 11.0526 36.2307 19.9997 36.2307C28.9468 36.2307 36.2265 28.9509 36.2265 20.0038C36.2265 11.0567 28.9468 3.77697 19.9997 3.77697Z" fill="#6EA6AA"/>
<path d="M18.2976 38.5398C10.404 38.5398 3.48001 32.9448 1.83361 25.236C1.80222 25.093 1.89291 24.9569 2.03592 24.9256C2.17545 24.8942 2.31497 24.9848 2.34637 25.1279C3.94045 32.596 10.6516 38.0166 18.3011 38.0166C20.0278 38.0166 21.73 37.748 23.3555 37.2178C23.495 37.1724 23.6415 37.2492 23.6868 37.3852C23.7322 37.5212 23.6554 37.6712 23.5194 37.7166C21.8416 38.2642 20.0836 38.5398 18.3011 38.5398H18.2976ZM29.3934 34.2773C29.3237 34.2773 29.2504 34.2494 29.1981 34.1901C29.1004 34.0819 29.1109 33.918 29.2155 33.8203C32.6409 30.7298 34.6047 26.3138 34.6047 21.7025V21.6362C34.6047 21.4932 34.7198 21.3746 34.8629 21.3711C35.0059 21.3711 35.1245 21.4862 35.1245 21.6293V21.699C35.1245 26.4568 33.0978 31.0159 29.5609 34.204C29.512 34.2494 29.4492 34.2703 29.3865 34.2703L29.3934 34.2773ZM1.72548 21.9816C1.58246 21.9816 1.46387 21.8804 1.46387 21.7374V21.7025C1.46387 16.9586 3.4835 12.4066 7.00304 9.22193C7.11117 9.12426 7.27512 9.13472 7.37278 9.23937C7.47045 9.3475 7.45999 9.51144 7.35534 9.60911C3.94394 12.6961 1.99058 17.1051 1.99058 21.7025C1.99058 21.8455 1.87198 21.9816 1.72897 21.9816H1.72548ZM34.5001 18.4516C34.378 18.4516 34.2699 18.3678 34.2454 18.2458C32.6374 10.7951 25.9332 5.38846 18.3011 5.38846C16.5606 5.38846 14.8514 5.66053 13.2154 6.19771C13.0759 6.24305 12.9294 6.16631 12.8841 6.03027C12.8387 5.89424 12.9154 5.74425 13.0515 5.6989C14.7397 5.14429 16.5082 4.86523 18.3011 4.86523C26.1774 4.86523 33.1013 10.4463 34.7582 18.1341C34.7896 18.2737 34.6989 18.4132 34.5594 18.4446C34.5419 18.4481 34.521 18.4516 34.5036 18.4516H34.5001Z" fill="#21212F"/>
<path d="M27.9561 11.8557L16.5394 23.2759L12.0188 18.7553L8.87598 21.8981L16.5394 29.5615L31.0989 14.9985L27.9561 11.8557Z" fill="#6EA6AA"/>
</svg>
