<svg width="24" height="24" viewBox="0 0 24 24" fill="none" xmlns="http://www.w3.org/2000/svg">
<path d="M21.6682 14.3319C22.956 8.99234 19.6714 3.61976 14.3318 2.33192C8.99225 1.04409 3.61967 4.32868 2.33183 9.66826C1.044 15.0078 4.32859 20.3804 9.66817 21.6683C15.0077 22.9561 20.3803 19.6715 21.6682 14.3319Z" fill="#FFFDFD"/>
<path d="M12.0004 22.1549C6.40192 22.1549 1.8457 17.6008 1.8457 12.0002C1.8457 6.39968 6.40192 1.84766 12.0004 1.84766C17.5989 1.84766 22.1551 6.40178 22.1551 12.0023C22.1551 17.6029 17.601 22.157 12.0004 22.157V22.1549ZM12.0004 2.26623C6.63214 2.26623 2.26428 6.63409 2.26428 12.0023C2.26428 17.3706 6.63214 21.7384 12.0004 21.7384C17.3686 21.7384 21.7365 17.3706 21.7365 12.0023C21.7365 6.63409 17.3686 2.26623 12.0004 2.26623Z" fill="#6EA6AA"/>
<path d="M10.9792 23.1239C6.24297 23.1239 2.08859 19.7669 1.10075 15.1416C1.08192 15.0558 1.13633 14.9742 1.22214 14.9554C1.30585 14.9365 1.38957 14.991 1.40841 15.0768C2.36486 19.5576 6.39157 22.81 10.9813 22.81C12.0172 22.81 13.0386 22.6488 14.0139 22.3307C14.0976 22.3035 14.1855 22.3495 14.2127 22.4312C14.2399 22.5128 14.1938 22.6028 14.1122 22.63C13.1055 22.9586 12.0507 23.1239 10.9813 23.1239H10.9792ZM17.6366 20.5664C17.5948 20.5664 17.5508 20.5497 17.5194 20.5141C17.4608 20.4492 17.4671 20.3508 17.5299 20.2922C19.5851 18.4379 20.7634 15.7883 20.7634 13.0216V12.9818C20.7634 12.896 20.8325 12.8248 20.9183 12.8227C21.0041 12.8227 21.0753 12.8918 21.0753 12.9776V13.0195C21.0753 15.8742 19.8593 18.6096 17.7371 20.5225C17.7078 20.5497 17.6701 20.5622 17.6325 20.5622L17.6366 20.5664ZM1.03587 13.189C0.950064 13.189 0.878906 13.1283 0.878906 13.0425V13.0216C0.878906 10.1752 2.09069 7.44401 4.20241 5.5332C4.26729 5.4746 4.36566 5.48088 4.42426 5.54367C4.48286 5.60855 4.47658 5.70691 4.41379 5.76551C2.36695 7.61772 1.19493 10.2631 1.19493 13.0216C1.19493 13.1074 1.12377 13.189 1.03797 13.189H1.03587ZM20.7006 11.071C20.6274 11.071 20.5625 11.0208 20.5479 10.9475C19.583 6.4771 15.5605 3.23312 10.9813 3.23312C9.93692 3.23312 8.91141 3.39637 7.92984 3.71867C7.84613 3.74588 7.75822 3.69984 7.73102 3.61821C7.70381 3.53659 7.74985 3.4466 7.83148 3.41939C8.84443 3.08662 9.90553 2.91919 10.9813 2.91919C15.707 2.91919 19.8614 6.26781 20.8555 10.8805C20.8743 10.9642 20.8199 11.048 20.7362 11.0668C20.7257 11.0689 20.7132 11.071 20.7027 11.071H20.7006Z" fill="#21212F"/>
<path d="M16.7743 7.11328L9.92424 13.9654L7.21186 11.253L5.32617 13.1387L9.92424 17.7368L18.66 8.99897L16.7743 7.11328Z" fill="#6EA6AA"/>
</svg>
