<svg width="40" height="40" viewBox="0 0 40 40" fill="none" xmlns="http://www.w3.org/2000/svg">
<path d="M36.1136 23.8865C38.26 14.9872 32.7857 6.03285 23.8864 3.88646C14.9871 1.74006 6.03278 7.21439 3.88639 16.1137C1.73999 25.013 7.21431 33.9673 16.1136 36.1137C25.0129 38.2601 33.9672 32.7858 36.1136 23.8865Z" fill="#FFFDFD"/>
<path d="M20.0026 36.9233C10.6718 36.9233 3.07812 29.3331 3.07812 19.9989C3.07812 10.6646 10.6718 3.07788 20.0026 3.07788C29.3334 3.07788 36.9271 10.6681 36.9271 20.0024C36.9271 29.3366 29.3369 36.9268 20.0026 36.9268V36.9233ZM20.0026 3.77551C11.0555 3.77551 3.77575 11.0553 3.77575 20.0024C3.77575 28.9494 11.0555 36.2292 20.0026 36.2292C28.9497 36.2292 36.2295 28.9494 36.2295 20.0024C36.2295 11.0553 28.9497 3.77551 20.0026 3.77551Z" fill="#21212F"/>
<path d="M18.3031 38.5382C10.4094 38.5382 3.48546 32.9433 1.83905 25.2345C1.80766 25.0914 1.89835 24.9554 2.04137 24.924C2.18438 24.8926 2.32042 24.9833 2.35181 25.1263C3.94589 32.5944 10.6571 38.015 18.3031 38.015C20.0297 38.015 21.7319 37.7464 23.3574 37.2162C23.4935 37.1709 23.6434 37.2476 23.6888 37.3837C23.7341 37.5197 23.6574 37.6697 23.5214 37.715C21.8436 38.2627 20.0855 38.5382 18.3031 38.5382ZM29.3989 34.2757C29.3291 34.2757 29.2559 34.2478 29.2035 34.1885C29.1059 34.0804 29.1163 33.9165 29.221 33.8188C32.6463 30.7283 34.6102 26.3123 34.6102 21.701V21.6312C34.6102 21.4882 34.7288 21.3696 34.8718 21.3696C35.0148 21.3696 35.1334 21.4882 35.1334 21.6312V21.701C35.1334 26.4588 33.1068 31.0178 29.5698 34.206C29.521 34.2513 29.4582 34.2722 29.3954 34.2722L29.3989 34.2757ZM1.72743 21.9835C1.58442 21.9835 1.46582 21.8824 1.46582 21.7393V21.7045C1.46582 16.9606 3.48546 12.4086 7.00499 9.22388C7.11313 9.12621 7.27707 9.13668 7.37474 9.24132C7.4724 9.34945 7.46194 9.5134 7.3573 9.61106C3.94589 12.6981 1.99253 17.1071 1.99253 21.7045C1.99253 21.8475 1.87394 21.9835 1.73092 21.9835H1.72743ZM34.502 18.4535C34.3799 18.4535 34.2718 18.3698 34.2474 18.2477C32.6394 10.797 25.9352 5.39041 18.3031 5.39041C16.5625 5.39041 14.8533 5.66248 13.2174 6.19966C13.0813 6.245 12.9314 6.16827 12.886 6.03223C12.8407 5.89619 12.9174 5.7462 13.0534 5.70085C14.7417 5.14624 16.5102 4.86719 18.3031 4.86719C26.1793 4.86719 33.1033 10.4482 34.7602 18.1361C34.7915 18.2756 34.7009 18.4151 34.5578 18.4465C34.5404 18.45 34.5195 18.4535 34.502 18.4535Z" fill="#21212F"/>
<path d="M28.5483 15.2444L25.4055 12.1016L19.8872 17.6233L14.3655 12.1016L11.2227 15.2444L16.7444 20.7661L11.2227 26.2878L14.3655 29.4307L19.8872 23.9089L25.4055 29.4307L28.5483 26.2878L23.03 20.7661L28.5483 15.2444Z" fill="#21212F"/>
</svg>
