<svg width="24" height="24" viewBox="0 0 24 24" fill="none" xmlns="http://www.w3.org/2000/svg">
<path d="M21.6682 14.3319C22.956 8.99234 19.6714 3.61976 14.3318 2.33192C8.99225 1.04409 3.61967 4.32868 2.33183 9.66826C1.044 15.0078 4.32859 20.3804 9.66817 21.6683C15.0077 22.9561 20.3803 19.6715 21.6682 14.3319Z" fill="#FFFDFD"/>
<path d="M12.0004 22.154C6.40191 22.154 1.8457 17.5998 1.8457 11.9993C1.8457 6.39871 6.40191 1.84668 12.0004 1.84668C17.5989 1.84668 22.1551 6.4008 22.1551 12.0014C22.1551 17.6019 17.6009 22.156 12.0004 22.156V22.154ZM12.0004 2.26526C6.63213 2.26526 2.26428 6.63311 2.26428 12.0014C2.26428 17.3696 6.63213 21.7375 12.0004 21.7375C17.3686 21.7375 21.7365 17.3696 21.7365 12.0014C21.7365 6.63311 17.3686 2.26526 12.0004 2.26526Z" fill="#21212F"/>
<path d="M10.9813 23.123C6.24507 23.123 2.09069 19.7661 1.10285 15.1408C1.08401 15.055 1.13843 14.9733 1.22423 14.9545C1.31004 14.9357 1.39167 14.9901 1.4105 15.0759C2.36695 19.5568 6.39366 22.8091 10.9813 22.8091C12.0172 22.8091 13.0386 22.648 14.0139 22.3298C14.0955 22.3026 14.1855 22.3487 14.2127 22.4303C14.2399 22.5119 14.1939 22.6019 14.1122 22.6291C13.1056 22.9577 12.0507 23.123 10.9813 23.123ZM17.6387 20.5655C17.5969 20.5655 17.5529 20.5488 17.5215 20.5132C17.4629 20.4483 17.4692 20.35 17.532 20.2914C19.5872 18.4371 20.7655 15.7875 20.7655 13.0207V12.9788C20.7655 12.893 20.8367 12.8219 20.9225 12.8219C21.0083 12.8219 21.0794 12.893 21.0794 12.9788V13.0207C21.0794 15.8754 19.8635 18.6108 17.7413 20.5237C17.712 20.5509 17.6743 20.5634 17.6367 20.5634L17.6387 20.5655ZM1.03587 13.1902C0.950064 13.1902 0.878906 13.1295 0.878906 13.0437V13.0228C0.878906 10.1764 2.09069 7.44523 4.20241 5.53443C4.26729 5.47582 4.36566 5.4821 4.42426 5.54489C4.48286 5.60977 4.47658 5.70813 4.41379 5.76674C2.36695 7.61894 1.19493 10.2643 1.19493 13.0228C1.19493 13.1086 1.12378 13.1902 1.03797 13.1902H1.03587ZM20.7006 11.0722C20.6274 11.0722 20.5625 11.022 20.5479 10.9487C19.583 6.47832 15.5605 3.23434 10.9813 3.23434C9.93692 3.23434 8.91141 3.39759 7.92984 3.71989C7.84822 3.7471 7.75823 3.70106 7.73102 3.61943C7.70381 3.53781 7.74985 3.44782 7.83148 3.42061C8.84443 3.08784 9.90553 2.92041 10.9813 2.92041C15.707 2.92041 19.8614 6.26903 20.8555 10.8817C20.8743 10.9655 20.8199 11.0492 20.7341 11.068C20.7237 11.0701 20.7111 11.0722 20.7006 11.0722Z" fill="#21212F"/>
<path d="M17.1297 9.14668L15.2441 7.26099L11.9331 10.574L8.62007 7.26099L6.73438 9.14668L10.0474 12.4597L6.73438 15.7728L8.62007 17.6584L11.9331 14.3454L15.2441 17.6584L17.1297 15.7728L13.8188 12.4597L17.1297 9.14668Z" fill="#21212F"/>
</svg>
