<svg width="32" height="32" viewBox="0 0 32 32" fill="none" xmlns="http://www.w3.org/2000/svg">
<g id="Arrow UP">
<path id="Vector" d="M15.2751 9.17543L4.6551 20.3214C4.47781 20.5074 4.37891 20.7545 4.37891 21.0114C4.37891 21.2684 4.47781 21.5155 4.6551 21.7014L4.6671 21.7134C4.75305 21.8039 4.8565 21.8759 4.97116 21.9252C5.08583 21.9744 5.20931 21.9998 5.3341 21.9998C5.45889 21.9998 5.58237 21.9744 5.69703 21.9252C5.8117 21.8759 5.91515 21.8039 6.0011 21.7134L16.0011 11.2174L25.9971 21.7134C26.083 21.8039 26.1865 21.8759 26.3012 21.9252C26.4158 21.9744 26.5393 21.9998 26.6641 21.9998C26.7889 21.9998 26.9124 21.9744 27.027 21.9252C27.1417 21.8759 27.2452 21.8039 27.3311 21.7134L27.3431 21.7014C27.5204 21.5155 27.6193 21.2684 27.6193 21.0114C27.6193 20.7545 27.5204 20.5074 27.3431 20.3214L16.7231 9.17543C16.6297 9.07741 16.5174 8.99937 16.3929 8.94605C16.2685 8.89273 16.1345 8.86523 15.9991 8.86523C15.8637 8.86523 15.7297 8.89273 15.6053 8.94605C15.4808 8.99937 15.3685 9.07741 15.2751 9.17543Z" fill="#21212F"/>
</g>
</svg>
