<svg width="96" height="50" viewBox="0 0 96 50" fill="none" xmlns="http://www.w3.org/2000/svg">
<path d="M22.8311 1.47572C20.837 1.47572 19.0989 1.84464 17.6168 2.5825C16.1616 3.29303 14.949 4.23585 13.9789 5.41095C13.0088 6.55873 12.2812 7.85682 11.7961 9.3052C11.338 10.7536 11.109 12.1883 11.109 13.6094C11.109 15.2217 11.4189 16.8068 12.0387 18.3645C12.6584 19.8948 13.5073 21.2612 14.5852 22.4637C15.69 23.6388 16.97 24.5953 18.4252 25.3331C19.8803 26.0436 21.4567 26.3989 23.1544 26.3989C23.6395 26.3989 24.2054 26.3442 24.8521 26.2349C25.5258 26.1256 26.186 25.9207 26.8327 25.6201C27.4795 25.2921 28.0723 24.8412 28.6113 24.2673C29.1771 23.6934 29.6083 22.9419 29.9047 22.0127H30.3089V26.5629C29.9047 26.5629 29.4736 26.6175 29.0155 26.7268C28.5843 26.8362 28.0993 26.9591 27.5603 27.0958C26.8597 27.2871 26.0782 27.4647 25.2159 27.6287C24.3805 27.7926 23.4913 27.8746 22.5481 27.8746C20.2037 27.8746 18.1422 27.4647 16.3637 26.6449C14.5852 25.825 13.1031 24.7592 11.9174 23.4475C10.7317 22.1357 9.84245 20.66 9.24961 19.0203C8.65677 17.3533 8.36035 15.6726 8.36035 13.9783C8.36035 12.284 8.65677 10.6033 9.24961 8.93627C9.84245 7.26926 10.7452 5.77988 11.9578 4.46814C13.1704 3.12906 14.693 2.0496 16.5254 1.22976C18.3578 0.40992 20.5136 0 22.9927 0C23.882 0 24.6769 0.0819839 25.3776 0.245952C26.1052 0.40992 26.7519 0.573888 27.3178 0.737858C27.722 0.874498 28.0858 0.98381 28.4091 1.06579C28.7595 1.12045 29.0963 1.14778 29.4197 1.14778V5.6979H29.0155C28.8538 4.85073 28.5574 4.15386 28.1262 3.6073C27.695 3.03341 27.183 2.59616 26.5902 2.29556C26.0243 1.99495 25.4045 1.78999 24.7308 1.68068C24.0841 1.54404 23.4508 1.47572 22.8311 1.47572Z" fill="#21212F"/>
<path d="M35.3613 21.1109C35.3613 20.5302 35.454 19.9324 35.6392 19.3175C35.8413 18.6855 36.0855 18.1817 36.3719 17.8059C36.7761 17.3106 37.2308 16.9263 37.7361 16.653C38.2582 16.3797 38.6708 16.2089 38.974 16.1406C39.294 16.0723 39.454 16.021 39.454 15.9869C39.454 15.9356 39.3529 15.7904 39.1508 15.5513C38.9487 15.2951 38.7466 14.9194 38.5445 14.424C38.3424 13.9116 38.2413 13.3309 38.2413 12.6819C38.2413 11.5546 38.7297 10.7091 39.7066 10.1455C40.6834 9.56477 41.7782 9.27441 42.9908 9.27441C43.5803 9.27441 44.136 9.37689 44.6581 9.58186C45.1803 9.76974 45.475 9.86368 45.5424 9.86368C45.6097 9.86368 45.6939 9.85514 45.795 9.83806C45.9129 9.8039 46.0139 9.78682 46.0981 9.78682C46.3676 9.78682 46.5024 9.98324 46.5024 10.3761C46.5024 10.3932 46.5108 10.5127 46.5276 10.7348C46.5445 10.9397 46.5613 11.1788 46.5781 11.4521C46.595 11.7254 46.6034 11.9474 46.6034 12.1182C46.6034 12.6136 46.5866 12.9125 46.5529 13.0149C46.536 13.1174 46.4603 13.1687 46.3255 13.1687C46.2245 13.1687 46.0476 13.0149 45.795 12.7075C45.5424 12.4001 45.2729 12.067 44.9866 11.7083C44.7003 11.3326 44.3129 10.991 43.8245 10.6835C43.3529 10.3761 42.8645 10.2224 42.3592 10.2224C41.5676 10.2224 40.9782 10.4359 40.5908 10.8629C40.2034 11.2728 40.0097 11.7169 40.0097 12.1951C40.0097 12.6221 40.2371 13.1772 40.6918 13.8604C41.1634 14.5265 41.635 15.1158 42.1066 15.6282C42.595 16.1406 43.2771 16.8409 44.1529 17.729C45.416 19.01 46.6371 20.1629 47.816 21.1877C48.995 22.2125 49.6602 22.7249 49.8118 22.7249C49.9129 22.7249 50.0139 22.6566 50.115 22.52C50.216 22.3663 50.3002 22.1186 50.3676 21.777C50.435 21.4354 50.4687 21.034 50.4687 20.5729C50.4687 19.9409 50.376 19.437 50.1908 19.0613C50.0223 18.6684 49.8708 18.4293 49.736 18.3439C49.6013 18.2414 49.3655 18.1048 49.0287 17.934C48.9108 17.8828 48.7592 17.8486 48.5739 17.8315C48.4055 17.8144 48.2792 17.7888 48.195 17.7547C48.1108 17.7034 48.0687 17.6095 48.0687 17.4728C48.0687 17.3533 48.1024 17.2764 48.1697 17.2423C48.2539 17.2081 48.4308 17.191 48.7002 17.191C49.0539 17.191 49.4413 17.1996 49.8623 17.2166C50.3002 17.2337 51.1676 17.2423 52.4644 17.2423C52.7844 17.2423 52.9444 17.3533 52.9444 17.5753C52.9444 17.6949 52.8939 17.7888 52.7929 17.8571C52.7087 17.9084 52.5992 17.9511 52.4644 17.9852C52.3466 18.0194 52.2287 18.1219 52.1108 18.2927C52.0097 18.4635 51.9508 18.7026 51.9339 19.01C51.9171 19.215 51.8918 19.4456 51.8581 19.7018C51.8413 19.958 51.816 20.2227 51.7823 20.496C51.7487 20.7522 51.7234 20.9315 51.7066 21.034C51.656 21.3585 51.555 21.7087 51.4034 22.0844C51.2518 22.4602 51.1087 22.7762 50.9739 23.0324C50.856 23.2886 50.7971 23.4423 50.7971 23.4935C50.7971 23.6473 51.2939 24.0486 52.2876 24.6977C53.2981 25.3296 54.3171 25.9018 55.3444 26.4142C55.6813 26.585 56.0434 26.6704 56.4308 26.6704C56.5486 26.6704 56.7086 26.6619 56.9108 26.6448C57.1129 26.6107 57.256 26.5936 57.3402 26.5936C57.5592 26.5936 57.6686 26.6704 57.6686 26.8242C57.6686 27.0974 57.4244 27.328 56.936 27.5159C56.4644 27.7038 55.8918 27.7977 55.2181 27.7977C54.5613 27.7977 53.9297 27.7038 53.3234 27.5159C52.7171 27.3451 52.2034 27.1401 51.7823 26.901C51.3613 26.6448 50.9908 26.3886 50.6708 26.1324C50.3508 25.8762 50.0897 25.6627 49.8876 25.4919C49.7023 25.304 49.5929 25.2101 49.5592 25.2101C49.4918 25.2101 49.3571 25.304 49.155 25.4919C48.9697 25.6627 48.7171 25.8848 48.3971 26.158C48.0771 26.4142 47.6897 26.679 47.235 26.9523C46.7802 27.2085 46.1739 27.422 45.416 27.5928C44.6581 27.7806 43.8245 27.8746 42.915 27.8746C42.376 27.8746 41.8371 27.8319 41.2982 27.7465C40.7592 27.6782 40.1108 27.5074 39.3529 27.2341C38.6118 26.9608 37.955 26.5936 37.3824 26.1324C36.8266 25.6713 36.3466 25.0051 35.9424 24.134C35.555 23.263 35.3613 22.2552 35.3613 21.1109ZM37.0287 20.2398C37.0287 20.8376 37.1719 21.461 37.4582 22.1101C37.7445 22.7591 38.1571 23.3996 38.6961 24.0316C39.2518 24.6464 40.0182 25.1588 40.995 25.5688C41.9718 25.9616 43.0666 26.158 44.2792 26.158C45.0034 26.158 45.7108 26.0385 46.4013 25.7994C47.1087 25.5431 47.6392 25.2955 47.9929 25.0564C48.3466 24.8002 48.5234 24.6208 48.5234 24.5183C48.5234 24.45 48.3045 24.2536 47.8666 23.9291C47.4287 23.5875 46.7045 22.9811 45.6939 22.1101C44.6834 21.239 43.656 20.274 42.6118 19.215C42.376 18.9759 42.1403 18.7453 41.9045 18.5233C41.6855 18.2841 41.5003 18.0877 41.3487 17.934C41.1971 17.7803 41.0455 17.6351 40.8939 17.4985C40.7592 17.3447 40.6497 17.2252 40.5655 17.1398C40.4813 17.0544 40.3971 16.969 40.3129 16.8836C40.2455 16.7982 40.1866 16.7384 40.1361 16.7042C40.0855 16.6701 40.035 16.6359 39.9845 16.6018C39.9508 16.5676 39.9171 16.5505 39.8834 16.5505C39.8497 16.5334 39.8161 16.5249 39.7824 16.5249C39.2266 16.5249 38.6287 16.8836 37.9887 17.6009C37.3487 18.3183 37.0287 19.1979 37.0287 20.2398Z" fill="#21212F"/>
<path d="M81.9014 26.6449H82.1035C82.2921 26.6449 82.4673 26.5629 82.6289 26.3989C82.7906 26.2349 82.9254 26.0436 83.0332 25.825C83.1679 25.6064 83.2622 25.3741 83.3161 25.1282C83.37 24.8549 83.3969 24.6089 83.3969 24.3903V2.82845L72.9683 27.5057L63.0652 4.09921V24.3903C63.0652 24.6089 63.0921 24.8549 63.146 25.1282C63.1999 25.3741 63.2808 25.6064 63.3886 25.825C63.5233 26.0436 63.6715 26.2349 63.8332 26.3989C63.9949 26.5629 64.1835 26.6449 64.3991 26.6449H64.6012V27.0548H60.1953V26.6449H60.3974C60.586 26.6449 60.7612 26.5629 60.9229 26.3989C61.0846 26.2349 61.2193 26.0436 61.3271 25.825C61.4349 25.6064 61.5157 25.3741 61.5696 25.1282C61.6235 24.8549 61.6505 24.6089 61.6505 24.3903V2.54151C61.6505 2.35021 61.6235 2.13159 61.5696 1.88564C61.5157 1.63968 61.4349 1.40739 61.3271 1.18877C61.2193 0.970145 61.0846 0.792512 60.9229 0.655872C60.7612 0.491904 60.586 0.40992 60.3974 0.40992H60.1953V0H64.3182L73.6959 22.4227L83.0736 0H87.6411V0.40992H87.439C87.2235 0.40992 87.0348 0.491904 86.8731 0.655872C86.7115 0.792512 86.5633 0.970145 86.4285 1.18877C86.3207 1.40739 86.2399 1.63968 86.186 1.88564C86.1321 2.13159 86.1051 2.35021 86.1051 2.54151V24.3903C86.1051 24.6089 86.1321 24.8549 86.186 25.1282C86.2399 25.3741 86.3207 25.6064 86.4285 25.825C86.5633 26.0436 86.7115 26.2349 86.8731 26.3989C87.0348 26.5629 87.2235 26.6449 87.439 26.6449H87.6411V27.0548H81.9014V26.6449Z" fill="#21212F"/>
<path d="M0 34.9912H37.8946V35.4396H0V34.9912Z" fill="#759EA0"/>
<path fill-rule="evenodd" clip-rule="evenodd" d="M53.1311 33.0459C53.1701 33.079 53.1941 33.1269 53.1973 33.1785C53.2657 34.2792 53.0316 35.3263 52.5767 36.2454C51.6948 38.0263 49.9538 39.3261 47.8548 39.5843C47.8011 39.6126 47.7366 39.6128 47.6823 39.5837C47.622 39.5514 47.584 39.4882 47.5833 39.4191L47.5832 39.4085C47.4566 37.2416 48.4724 35.2818 50.12 34.101L50.121 34.1003C50.9453 33.5177 51.9181 33.1276 52.9907 33.0031C53.0413 32.9973 53.0921 33.0127 53.1311 33.0459ZM47.946 39.1919C49.8588 38.9108 51.4369 37.7073 52.2446 36.0763C52.6436 35.2702 52.8609 34.3608 52.8354 33.4038C51.904 33.5436 51.0581 33.8974 50.334 34.4091C48.8353 35.4834 47.8969 37.2393 47.946 39.1919Z" fill="url(#paint0_linear_2510_3289)"/>
<path fill-rule="evenodd" clip-rule="evenodd" d="M42.3913 32.8889C42.4312 32.8564 42.4825 32.842 42.5332 32.8492C43.5999 32.9994 44.5651 33.4093 45.3701 34.0159C46.9854 35.2269 47.9512 37.2201 47.7811 39.3795L47.7811 39.3862C47.7819 39.4554 47.7452 39.5198 47.6855 39.5534C47.6259 39.5869 47.5529 39.5847 47.4954 39.5475L47.4896 39.5437C45.4044 39.2272 43.7104 37.8948 42.8757 36.0983C42.4422 35.1718 42.2359 34.1138 42.3224 33.0207C42.3265 32.969 42.3514 32.9213 42.3913 32.8889ZM47.4229 39.1512C47.5103 37.203 46.6154 35.4181 45.149 34.3188C44.4441 33.7876 43.6066 33.4158 42.6803 33.2537C42.6381 34.2073 42.8322 35.1262 43.2115 35.937C43.9775 37.5858 45.5175 38.8212 47.4229 39.1512Z" fill="url(#paint1_linear_2510_3289)"/>
<path fill-rule="evenodd" clip-rule="evenodd" d="M47.7535 30.7762C47.8047 30.7766 47.8534 30.7984 47.8881 30.8364C48.6207 31.6371 49.1125 32.5737 49.3577 33.5599C49.8534 35.534 49.3583 37.6974 47.8796 39.2608L47.8755 39.266C47.833 39.32 47.7643 39.3464 47.6972 39.3341C47.6301 39.3219 47.575 39.2733 47.5537 39.2076L47.5515 39.201C46.1338 37.6183 45.6528 35.4996 46.1269 33.5727C46.369 32.5771 46.8691 31.6252 47.6179 30.8341C47.6533 30.7967 47.7024 30.7757 47.7535 30.7762ZM47.7446 38.8542C49.0275 37.4013 49.4477 35.4448 48.9976 33.6527C48.7829 32.7891 48.3661 31.9639 47.7498 31.2441C47.1223 31.9556 46.6995 32.7919 46.4876 33.6632C46.0524 35.4316 46.4747 37.3763 47.7446 38.8542Z" fill="url(#paint2_linear_2510_3289)"/>
<path d="M58.1055 34.9912H96.0001V35.4396H58.1055V34.9912Z" fill="#759EA0"/>
<path d="M92.5896 49.9998C92.1854 49.9998 91.8115 49.9332 91.4679 49.8C91.1294 49.6616 90.8338 49.4695 90.5812 49.2235C90.3336 48.9775 90.1391 48.688 89.9976 48.355C89.8612 48.0219 89.793 47.6581 89.793 47.2636C89.793 46.869 89.8612 46.5052 89.9976 46.1722C90.1391 45.8391 90.3361 45.5496 90.5888 45.3036C90.8414 45.0577 91.137 44.8681 91.4755 44.7349C91.8191 44.5965 92.193 44.5273 92.5972 44.5273C93.0014 44.5273 93.3702 44.5914 93.7037 44.7195C94.0422 44.8476 94.3302 45.0423 94.5677 45.3036L94.2191 45.6649C93.9968 45.4394 93.7517 45.278 93.4839 45.1807C93.2161 45.0833 92.9281 45.0346 92.6199 45.0346C92.2915 45.0346 91.9883 45.091 91.7104 45.2037C91.4376 45.3113 91.1976 45.4676 90.9904 45.6726C90.7883 45.8724 90.6292 46.1081 90.513 46.3797C90.4018 46.6461 90.3462 46.9408 90.3462 47.2636C90.3462 47.5813 90.4018 47.8759 90.513 48.1475C90.6292 48.419 90.7883 48.6573 90.9904 48.8623C91.1976 49.0621 91.4376 49.2184 91.7104 49.3311C91.9883 49.4387 92.289 49.4925 92.6123 49.4925C92.9155 49.4925 93.201 49.4464 93.4688 49.3542C93.7416 49.2619 93.9917 49.1056 94.2191 48.8853L94.5374 49.3157C94.2848 49.5412 93.9892 49.7128 93.6506 49.8307C93.3121 49.9434 92.9584 49.9998 92.5896 49.9998ZM93.9993 49.2466V47.2636H94.5374V49.3157L93.9993 49.2466Z" fill="black"/>
<path d="M84.0977 49.9539V44.5737H84.56L88.2206 49.2468H87.9781V44.5737H88.5313V49.9539H88.069L84.416 45.2808H84.6585V49.9539H84.0977Z" fill="black"/>
<path d="M81.8105 49.9539V44.5737H82.3714V49.9539H81.8105Z" fill="black"/>
<path d="M78.1375 49.9539L75.7881 44.5737H76.3944L78.5923 49.6388H78.2588L80.4719 44.5737H81.0403L78.6908 49.9539H78.1375Z" fill="black"/>
<path d="M72.7461 49.9998C72.3469 49.9998 71.9756 49.9332 71.632 49.8C71.2934 49.6616 70.9979 49.4695 70.7452 49.2235C70.4977 48.9724 70.3031 48.6829 70.1617 48.355C70.0252 48.0219 69.957 47.6581 69.957 47.2636C69.957 46.869 70.0252 46.5078 70.1617 46.1798C70.3031 45.8468 70.4977 45.5573 70.7452 45.3113C70.9979 45.0602 71.2934 44.8681 71.632 44.7349C71.9705 44.5965 72.3419 44.5273 72.7461 44.5273C73.1452 44.5273 73.5141 44.5965 73.8526 44.7349C74.1911 44.8681 74.4842 45.0577 74.7318 45.3036C74.9844 45.5496 75.1789 45.8391 75.3153 46.1722C75.4568 46.5052 75.5275 46.869 75.5275 47.2636C75.5275 47.6581 75.4568 48.0219 75.3153 48.355C75.1789 48.688 74.9844 48.9775 74.7318 49.2235C74.4842 49.4695 74.1911 49.6616 73.8526 49.8C73.5141 49.9332 73.1452 49.9998 72.7461 49.9998ZM72.7461 49.4925C73.0644 49.4925 73.3574 49.4387 73.6252 49.3311C73.8981 49.2184 74.133 49.0621 74.3301 48.8623C74.5322 48.6573 74.6888 48.4216 74.8 48.1551C74.9111 47.8836 74.9667 47.5864 74.9667 47.2636C74.9667 46.9408 74.9111 46.6461 74.8 46.3797C74.6888 46.1081 74.5322 45.8724 74.3301 45.6726C74.133 45.4676 73.8981 45.3113 73.6252 45.2037C73.3574 45.091 73.0644 45.0346 72.7461 45.0346C72.4278 45.0346 72.1322 45.091 71.8593 45.2037C71.5865 45.3113 71.349 45.4676 71.1469 45.6726C70.9499 45.8724 70.7932 46.1081 70.677 46.3797C70.5659 46.6461 70.5103 46.9408 70.5103 47.2636C70.5103 47.5813 70.5659 47.8759 70.677 48.1475C70.7932 48.419 70.9499 48.6573 71.1469 48.8623C71.349 49.0621 71.5865 49.2184 71.8593 49.3311C72.1322 49.4387 72.4278 49.4925 72.7461 49.4925Z" fill="black"/>
<path d="M63.1885 49.9539V44.5737H63.6508L66.076 48.7703H65.8335L68.236 44.5737H68.6984V49.9539H68.1603V45.4269H68.2891L66.076 49.2699H65.8108L63.5826 45.4269H63.7266V49.9539H63.1885Z" fill="black"/>
<path d="M54.9434 49.9539V44.5737H57.1034C57.6692 44.5737 58.1644 44.689 58.5888 44.9196C59.0183 45.1451 59.3518 45.4602 59.5892 45.865C59.8267 46.2698 59.9455 46.7361 59.9455 47.2638C59.9455 47.7916 59.8267 48.2579 59.5892 48.6627C59.3518 49.0675 59.0183 49.3852 58.5888 49.6158C58.1644 49.8412 57.6692 49.9539 57.1034 49.9539H54.9434ZM55.5042 49.462H57.073C57.5429 49.462 57.9497 49.3698 58.2932 49.1853C58.6419 48.9958 58.9122 48.737 59.1042 48.4091C59.2962 48.076 59.3922 47.6943 59.3922 47.2638C59.3922 46.8283 59.2962 46.4466 59.1042 46.1186C58.9122 45.7907 58.6419 45.5345 58.2932 45.35C57.9497 45.1604 57.5429 45.0656 57.073 45.0656H55.5042V49.462Z" fill="black"/>
<path d="M48.7783 49.9539V44.5737H49.2406L52.9013 49.2468H52.6587V44.5737H53.212V49.9539H52.7497L49.0966 45.2808H49.3392V49.9539H48.7783Z" fill="black"/>
<path d="M42.4971 49.9539L44.9223 44.5737H45.4756L47.9008 49.9539H47.3097L45.0815 44.9042H45.3089L43.0806 49.9539H42.4971ZM43.452 48.5167L43.6188 48.0555H46.7034L46.8701 48.5167H43.452Z" fill="black"/>
<path d="M37.8269 49.9998C37.4227 49.9998 37.0488 49.9332 36.7052 49.8C36.3667 49.6616 36.0711 49.4695 35.8185 49.2235C35.5709 48.9775 35.3764 48.688 35.2349 48.355C35.0985 48.0219 35.0303 47.6581 35.0303 47.2636C35.0303 46.869 35.0985 46.5052 35.2349 46.1722C35.3764 45.8391 35.5734 45.5496 35.8261 45.3036C36.0787 45.0577 36.3743 44.8681 36.7128 44.7349C37.0564 44.5965 37.4303 44.5273 37.8345 44.5273C38.2387 44.5273 38.6075 44.5914 38.941 44.7195C39.2795 44.8476 39.5675 45.0423 39.805 45.3036L39.4564 45.6649C39.2341 45.4394 38.989 45.278 38.7212 45.1807C38.4534 45.0833 38.1654 45.0346 37.8572 45.0346C37.5288 45.0346 37.2256 45.091 36.9477 45.2037C36.6749 45.3113 36.4349 45.4676 36.2277 45.6726C36.0256 45.8724 35.8665 46.1081 35.7503 46.3797C35.6391 46.6461 35.5835 46.9408 35.5835 47.2636C35.5835 47.5813 35.6391 47.8759 35.7503 48.1475C35.8665 48.419 36.0256 48.6573 36.2277 48.8623C36.4349 49.0621 36.6749 49.2184 36.9477 49.3311C37.2256 49.4387 37.5263 49.4925 37.8496 49.4925C38.1528 49.4925 38.4383 49.4464 38.7061 49.3542C38.9789 49.2619 39.229 49.1056 39.4564 48.8853L39.7747 49.3157C39.5221 49.5412 39.2265 49.7128 38.8879 49.8307C38.5494 49.9434 38.1957 49.9998 37.8269 49.9998ZM39.2366 49.2466V47.2636H39.7747V49.3157L39.2366 49.2466Z" fill="black"/>
<path d="M29.335 49.9539V44.5737H29.7973L33.4579 49.2468H33.2154V44.5737H33.7686V49.9539H33.3063L29.6533 45.2808H29.8958V49.9539H29.335Z" fill="black"/>
<path d="M27.0479 49.9539V44.5737H27.6087V49.9539H27.0479Z" fill="black"/>
<path d="M20.8828 49.9539V44.5737H21.3451L25.0058 49.2468H24.7632V44.5737H25.3165V49.9539H24.8542L21.2011 45.2808H21.4437V49.9539H20.8828Z" fill="black"/>
<path d="M14.6016 49.9539L17.0268 44.5737H17.5801L20.0053 49.9539H19.4142L17.186 44.9042H17.4133L15.1851 49.9539H14.6016ZM15.5565 48.5167L15.7232 48.0555H18.8079L18.9746 48.5167H15.5565Z" fill="black"/>
<path d="M10.8801 46.9795H13.6843V47.4637H10.8801V46.9795ZM10.9407 49.462H14.1315V49.9539H10.3799V44.5737H14.0178V45.0656H10.9407V49.462Z" fill="black"/>
<path d="M5.91699 49.9539V44.5737H6.47783V49.462H9.44877V49.9539H5.91699Z" fill="black"/>
<path d="M2.77389 49.9998C2.37473 49.9998 2.00589 49.9332 1.66736 49.8C1.32884 49.6616 1.03579 49.4695 0.788209 49.2235C0.54063 48.9775 0.346105 48.688 0.204631 48.355C0.0682104 48.0219 0 47.6581 0 47.2636C0 46.869 0.0682104 46.5052 0.204631 46.1722C0.346105 45.8391 0.54063 45.5496 0.788209 45.3036C1.04084 45.0577 1.33642 44.8681 1.67494 44.7349C2.01347 44.5965 2.38231 44.5273 2.78147 44.5273C3.16547 44.5273 3.52673 44.594 3.86525 44.7272C4.20378 44.8553 4.48925 45.05 4.72167 45.3113L4.36546 45.6726C4.1482 45.4471 3.9082 45.2857 3.64547 45.1883C3.38273 45.0859 3.09978 45.0346 2.79663 45.0346C2.47831 45.0346 2.18273 45.091 1.90989 45.2037C1.63705 45.3113 1.39958 45.4676 1.19747 45.6726C0.995366 45.8724 0.836208 46.1081 0.719998 46.3797C0.608841 46.6461 0.553262 46.9408 0.553262 47.2636C0.553262 47.5864 0.608841 47.8836 0.719998 48.1551C0.836208 48.4216 0.995366 48.6573 1.19747 48.8623C1.39958 49.0621 1.63705 49.2184 1.90989 49.3311C2.18273 49.4387 2.47831 49.4925 2.79663 49.4925C3.09978 49.4925 3.38273 49.4413 3.64547 49.3388C3.9082 49.2363 4.1482 49.0723 4.36546 48.8469L4.72167 49.2081C4.48925 49.4695 4.20378 49.6667 3.86525 49.8C3.52673 49.9332 3.16294 49.9998 2.77389 49.9998Z" fill="black"/>
<defs>
<linearGradient id="paint0_linear_2510_3289" x1="47.172" y1="38.9451" x2="53.5725" y2="33.6109" gradientUnits="userSpaceOnUse">
<stop stop-color="#AD9771"/>
<stop offset="1" stop-color="#AD9771"/>
</linearGradient>
<linearGradient id="paint1_linear_2510_3289" x1="41.9024" y1="33.4865" x2="48.173" y2="38.9675" gradientUnits="userSpaceOnUse">
<stop stop-color="#AD9771"/>
<stop offset="1" stop-color="#AD9771"/>
</linearGradient>
<linearGradient id="paint2_linear_2510_3289" x1="47.002" y1="30.9255" x2="48.3633" y2="39.2057" gradientUnits="userSpaceOnUse">
<stop stop-color="#AD9771"/>
<stop offset="1" stop-color="#AD9771"/>
</linearGradient>
</defs>
</svg>
