<svg width="692" height="354" viewBox="0 0 692 354" fill="none" xmlns="http://www.w3.org/2000/svg">
<path d="M162.434 10.4481C148.081 10.4481 135.57 13.0601 124.902 18.2841C114.428 23.3146 105.7 29.9898 98.717 38.3096C91.7343 46.4358 86.4972 55.6263 83.0059 65.8808C79.7085 76.1354 78.0598 86.2932 78.0598 96.3543C78.0598 107.77 80.2904 118.992 84.7515 130.02C89.2127 140.855 95.3226 150.529 103.081 159.043C111.034 167.362 120.247 174.134 130.721 179.358C141.195 184.389 152.542 186.904 164.762 186.904C168.253 186.904 172.326 186.517 176.982 185.743C181.831 184.969 186.583 183.518 191.238 181.39C195.893 179.068 200.16 175.876 204.04 171.813C208.113 167.749 211.216 162.429 213.35 155.85H216.259V188.065C213.35 188.065 210.247 188.452 206.949 189.226C203.846 190 200.354 190.871 196.475 191.838C191.432 193.192 185.807 194.45 179.6 195.611C173.587 196.772 167.186 197.352 160.398 197.352C143.523 197.352 128.684 194.45 115.883 188.646C103.081 182.841 92.4131 175.295 83.8787 166.008C75.3443 156.721 68.9434 146.273 64.6762 134.664C60.409 122.861 58.2754 110.962 58.2754 98.9664C58.2754 86.9704 60.409 75.0713 64.6762 63.2688C68.9434 51.4664 75.4412 40.9216 84.1696 31.6344C92.898 22.1538 103.857 14.5112 117.047 8.70671C130.236 2.90224 145.753 0 163.598 0C169.999 0 175.721 0.580446 180.764 1.74134C186.001 2.90223 190.656 4.06313 194.729 5.22403C197.639 6.19144 200.257 6.96537 202.585 7.54581C205.106 7.93278 207.531 8.12627 209.859 8.12627V40.3411H206.949C205.785 34.3432 203.652 29.4094 200.548 25.5397C197.445 21.4766 193.76 18.3808 189.492 16.2525C185.419 14.1242 180.958 12.6731 176.109 11.8992C171.454 10.9318 166.895 10.4481 162.434 10.4481Z" fill="#21212F"/>
<path d="M252.627 149.466C252.627 145.355 253.294 141.122 254.627 136.769C256.082 132.295 257.84 128.727 259.901 126.067C262.81 122.56 266.083 119.839 269.72 117.904C273.478 115.97 276.448 114.76 278.63 114.277C280.934 113.793 282.085 113.43 282.085 113.188C282.085 112.825 281.358 111.798 279.903 110.105C278.448 108.291 276.994 105.63 275.539 102.123C274.084 98.4957 273.357 94.3841 273.357 89.7889C273.357 81.8078 276.873 75.8219 283.904 71.8313C290.935 67.7198 298.815 65.6641 307.543 65.6641C311.786 65.6641 315.787 66.3896 319.545 67.8407C323.303 69.1709 325.424 69.836 325.909 69.836C326.394 69.836 327 69.7756 327.728 69.6546C328.576 69.4128 329.304 69.2919 329.91 69.2919C331.849 69.2919 332.819 70.6825 332.819 73.4638C332.819 73.5848 332.88 74.4312 333.001 76.0033C333.122 77.4544 333.243 79.1474 333.365 81.0822C333.486 83.017 333.547 84.5891 333.547 85.7984C333.547 89.3052 333.425 91.4214 333.183 92.147C333.062 92.8726 332.516 93.2353 331.546 93.2353C330.819 93.2353 329.546 92.147 327.728 89.9703C325.909 87.7936 323.97 85.4356 321.909 82.8961C319.848 80.2357 317.06 77.8172 313.544 75.6405C310.15 73.4638 306.634 72.3755 302.997 72.3755C297.299 72.3755 293.056 73.8871 290.268 76.9102C287.48 79.8125 286.086 82.9566 286.086 86.3425C286.086 89.3657 287.722 93.2958 290.996 98.1329C294.39 102.849 297.784 107.021 301.179 110.649C304.694 114.277 309.604 119.235 315.908 125.523C325 134.592 333.789 142.755 342.275 150.01C350.761 157.266 355.549 160.894 356.64 160.894C357.368 160.894 358.095 160.41 358.823 159.443C359.55 158.354 360.156 156.601 360.641 154.182C361.126 151.764 361.368 148.922 361.368 145.657C361.368 141.183 360.702 137.615 359.368 134.955C358.156 132.174 357.065 130.481 356.095 129.876C355.125 129.151 353.428 128.183 351.003 126.974C350.155 126.611 349.064 126.369 347.73 126.248C346.518 126.127 345.609 125.946 345.003 125.704C344.396 125.341 344.093 124.676 344.093 123.709C344.093 122.862 344.336 122.318 344.821 122.076C345.427 121.834 346.7 121.714 348.639 121.714C351.185 121.714 353.973 121.774 357.004 121.895C360.156 122.016 366.399 122.076 375.734 122.076C378.037 122.076 379.189 122.862 379.189 124.434C379.189 125.281 378.825 125.946 378.098 126.43C377.492 126.792 376.704 127.095 375.734 127.337C374.885 127.579 374.037 128.304 373.188 129.513C372.461 130.723 372.036 132.416 371.915 134.592C371.794 136.043 371.612 137.676 371.37 139.49C371.248 141.304 371.067 143.178 370.824 145.113C370.582 146.927 370.4 148.197 370.279 148.922C369.915 151.22 369.187 153.699 368.096 156.359C367.005 159.019 365.975 161.257 365.005 163.07C364.157 164.884 363.732 165.973 363.732 166.336C363.732 167.424 367.308 170.266 374.461 174.861C381.735 179.335 389.069 183.386 396.464 187.014C398.888 188.223 401.495 188.828 404.283 188.828C405.132 188.828 406.283 188.767 407.738 188.646C409.193 188.405 410.223 188.284 410.829 188.284C412.405 188.284 413.193 188.828 413.193 189.916C413.193 191.851 411.435 193.484 407.92 194.814C404.525 196.144 400.404 196.809 395.555 196.809C390.827 196.809 386.281 196.144 381.916 194.814C377.552 193.604 373.855 192.153 370.824 190.46C367.793 188.646 365.126 186.833 362.823 185.019C360.52 183.205 358.641 181.693 357.186 180.484C355.852 179.154 355.064 178.489 354.822 178.489C354.337 178.489 353.367 179.154 351.913 180.484C350.579 181.693 348.761 183.265 346.457 185.2C344.154 187.014 341.366 188.888 338.093 190.823C334.819 192.637 330.455 194.149 325 195.358C319.545 196.688 313.544 197.353 306.998 197.353C303.118 197.353 299.239 197.051 295.36 196.446C291.48 195.963 286.813 194.753 281.358 192.818C276.024 190.884 271.296 188.284 267.174 185.019C263.174 181.754 259.719 177.038 256.809 170.87C254.021 164.703 252.627 157.568 252.627 149.466ZM264.629 143.299C264.629 147.531 265.659 151.945 267.72 156.54C269.781 161.136 272.751 165.67 276.63 170.145C280.631 174.498 286.146 178.126 293.178 181.028C300.209 183.809 308.089 185.2 316.817 185.2C322.03 185.2 327.121 184.354 332.092 182.661C337.183 180.847 341.002 179.093 343.548 177.4C346.094 175.586 347.366 174.317 347.366 173.591C347.366 173.107 345.791 171.717 342.639 169.419C339.487 167.001 334.274 162.708 327 156.54C319.727 150.373 312.332 143.541 304.816 136.043C303.118 134.35 301.421 132.718 299.724 131.146C298.148 129.453 296.814 128.062 295.723 126.974C294.632 125.886 293.541 124.858 292.45 123.89C291.48 122.802 290.692 121.955 290.086 121.351C289.48 120.746 288.874 120.142 288.268 119.537C287.783 118.932 287.359 118.509 286.995 118.267C286.631 118.025 286.268 117.783 285.904 117.542C285.662 117.3 285.419 117.179 285.177 117.179C284.934 117.058 284.692 116.997 284.449 116.997C280.449 116.997 276.145 119.537 271.538 124.616C266.932 129.695 264.629 135.922 264.629 143.299Z" fill="#21212F"/>
<path d="M587.617 188.646H589.072C590.43 188.646 591.691 188.065 592.854 186.904C594.018 185.743 594.988 184.389 595.764 182.841C596.734 181.293 597.412 179.649 597.8 177.907C598.188 175.972 598.382 174.231 598.382 172.683V20.0255L523.318 194.74L452.036 29.0224V172.683C452.036 174.231 452.23 175.972 452.618 177.907C453.006 179.649 453.588 181.293 454.364 182.841C455.334 184.389 456.4 185.743 457.564 186.904C458.728 188.065 460.086 188.646 461.637 188.646H463.092V191.548H431.379V188.646H432.834C434.191 188.646 435.452 188.065 436.616 186.904C437.78 185.743 438.75 184.389 439.525 182.841C440.301 181.293 440.883 179.649 441.271 177.907C441.659 175.972 441.853 174.231 441.853 172.683V17.9939C441.853 16.6395 441.659 15.0916 441.271 13.3503C440.883 11.609 440.301 9.96435 439.525 8.41649C438.75 6.86863 437.78 5.61099 436.616 4.64358C435.452 3.48268 434.191 2.90224 432.834 2.90224H431.379V0H461.055L528.555 158.753L596.055 0H628.932V2.90224H627.477C625.925 2.90224 624.568 3.48268 623.404 4.64358C622.24 5.61099 621.173 6.86863 620.203 8.41649C619.427 9.96435 618.846 11.609 618.458 13.3503C618.07 15.0916 617.876 16.6395 617.876 17.9939V172.683C617.876 174.231 618.07 175.972 618.458 177.907C618.846 179.649 619.427 181.293 620.203 182.841C621.173 184.389 622.24 185.743 623.404 186.904C624.568 188.065 625.925 188.646 627.477 188.646H628.932V191.548H587.617V188.646Z" fill="#21212F"/>
<path d="M58.5625 248.232H270.181V251.405H58.5625V248.232Z" fill="#759EA0"/>
<path fill-rule="evenodd" clip-rule="evenodd" d="M380.535 233.967C380.816 234.202 380.988 234.541 381.011 234.906C381.504 242.699 379.819 250.113 376.544 256.62C370.197 269.229 357.665 278.431 342.556 280.26C342.17 280.46 341.706 280.461 341.315 280.255C340.881 280.027 340.608 279.579 340.602 279.09L340.602 279.015C339.691 263.673 347.002 249.798 358.862 241.438L358.869 241.433C364.802 237.308 371.804 234.546 379.524 233.665C379.889 233.623 380.254 233.733 380.535 233.967ZM343.213 277.481C356.981 275.491 368.34 266.97 374.154 255.423C377.026 249.716 378.59 243.277 378.406 236.502C371.702 237.491 365.614 239.996 360.402 243.619C349.614 251.225 342.86 263.657 343.213 277.481Z" fill="url(#paint0_linear_801_176330)"/>
<path fill-rule="evenodd" clip-rule="evenodd" d="M303.23 232.853C303.517 232.623 303.886 232.522 304.251 232.572C311.929 233.636 318.876 236.538 324.671 240.832C336.297 249.407 343.249 263.518 342.025 278.807L342.025 278.854C342.03 279.344 341.766 279.8 341.337 280.038C340.908 280.275 340.383 280.259 339.969 279.996L339.927 279.969C324.918 277.729 312.724 268.295 306.716 255.576C303.596 249.016 302.111 241.525 302.734 233.787C302.763 233.421 302.943 233.083 303.23 232.853ZM339.447 277.191C340.076 263.397 333.635 250.76 323.08 242.977C318.006 239.216 311.977 236.584 305.31 235.436C305.006 242.187 306.403 248.694 309.133 254.434C314.647 266.108 325.732 274.854 339.447 277.191Z" fill="url(#paint1_linear_801_176330)"/>
<path fill-rule="evenodd" clip-rule="evenodd" d="M341.826 217.897C342.194 217.9 342.545 218.054 342.795 218.323C348.068 223.992 351.609 230.623 353.373 237.606C356.941 251.582 353.377 266.899 342.734 277.968L342.705 278.005C342.398 278.387 341.904 278.574 341.421 278.487C340.938 278.4 340.541 278.056 340.388 277.591L340.372 277.544C330.168 266.339 326.706 251.338 330.118 237.696C331.861 230.647 335.461 223.908 340.85 218.307C341.105 218.042 341.458 217.893 341.826 217.897ZM341.763 275.089C350.996 264.802 354.021 250.951 350.781 238.262C349.236 232.148 346.236 226.305 341.799 221.21C337.283 226.247 334.239 232.168 332.714 238.337C329.582 250.857 332.622 264.625 341.763 275.089Z" fill="url(#paint2_linear_801_176330)"/>
<path d="M417.018 248.232H628.636V251.405H417.018V248.232Z" fill="#759EA0"/>
<path d="M614.251 346.681C611.447 346.681 608.751 346.232 606.163 345.333C603.611 344.399 601.634 343.213 600.232 341.775L601.796 338.702C603.126 339.996 604.905 341.092 607.134 341.991C609.398 342.853 611.771 343.285 614.251 343.285C616.623 343.285 618.546 342.997 620.02 342.422C621.53 341.811 622.626 341.002 623.309 339.996C624.028 338.989 624.388 337.875 624.388 336.653C624.388 335.179 623.956 333.993 623.094 333.094C622.267 332.196 621.171 331.495 619.805 330.991C618.439 330.452 616.929 329.985 615.275 329.589C613.622 329.194 611.969 328.781 610.315 328.349C608.662 327.882 607.134 327.271 605.732 326.516C604.366 325.761 603.252 324.773 602.389 323.551C601.562 322.293 601.149 320.657 601.149 318.644C601.149 316.775 601.634 315.068 602.605 313.522C603.611 311.94 605.139 310.682 607.188 309.748C609.237 308.777 611.861 308.292 615.06 308.292C617.181 308.292 619.283 308.598 621.368 309.209C623.453 309.784 625.25 310.592 626.76 311.635L625.412 314.816C623.794 313.738 622.069 312.947 620.236 312.444C618.439 311.94 616.695 311.689 615.006 311.689C612.741 311.689 610.872 311.994 609.398 312.605C607.925 313.216 606.828 314.043 606.109 315.086C605.427 316.092 605.085 317.242 605.085 318.536C605.085 320.01 605.498 321.196 606.325 322.095C607.188 322.994 608.302 323.694 609.668 324.198C611.07 324.701 612.598 325.15 614.251 325.546C615.905 325.941 617.54 326.372 619.158 326.84C620.811 327.307 622.321 327.918 623.687 328.673C625.088 329.392 626.203 330.362 627.03 331.584C627.892 332.807 628.324 334.406 628.324 336.383C628.324 338.216 627.82 339.924 626.814 341.505C625.807 343.051 624.262 344.309 622.177 345.28C620.128 346.214 617.486 346.681 614.251 346.681Z" fill="black"/>
<path d="M571.332 325.492H591.282V328.889H571.332V325.492ZM571.763 342.907H594.463V346.358H567.773V308.616H593.654V312.066H571.763V342.907Z" fill="black"/>
<path d="M545.416 346.681C542.576 346.681 539.952 346.214 537.544 345.28C535.135 344.309 533.05 342.961 531.289 341.236C529.528 339.51 528.144 337.479 527.137 335.143C526.167 332.807 525.682 330.254 525.682 327.487C525.682 324.719 526.167 322.167 527.137 319.83C528.144 317.494 529.528 315.463 531.289 313.738C533.086 312.012 535.189 310.682 537.597 309.748C540.006 308.777 542.63 308.292 545.469 308.292C548.201 308.292 550.771 308.759 553.18 309.694C555.588 310.592 557.619 311.958 559.272 313.792L556.738 316.326C555.193 314.744 553.485 313.612 551.616 312.929C549.747 312.21 547.734 311.851 545.577 311.851C543.313 311.851 541.21 312.246 539.269 313.037C537.328 313.792 535.638 314.888 534.201 316.326C532.763 317.728 531.631 319.381 530.804 321.286C530.013 323.155 529.618 325.222 529.618 327.487C529.618 329.751 530.013 331.836 530.804 333.741C531.631 335.61 532.763 337.264 534.201 338.702C535.638 340.103 537.328 341.2 539.269 341.991C541.21 342.745 543.313 343.123 545.577 343.123C547.734 343.123 549.747 342.763 551.616 342.044C553.485 341.326 555.193 340.175 556.738 338.594L559.272 341.128C557.619 342.961 555.588 344.345 553.18 345.28C550.771 346.214 548.183 346.681 545.416 346.681Z" fill="black"/>
<path d="M512.752 346.358V308.616H516.742V346.358H512.752Z" fill="black"/>
<path d="M486.623 346.358L469.908 308.616H474.222L489.858 344.147H487.485L503.229 308.616H507.273L490.559 346.358H486.623Z" fill="black"/>
<path d="M436.93 346.358V308.616H451.056C454.255 308.616 457.005 309.137 459.306 310.179C461.606 311.186 463.367 312.66 464.589 314.601C465.848 316.506 466.477 318.824 466.477 321.556C466.477 324.216 465.848 326.516 464.589 328.457C463.367 330.363 461.606 331.836 459.306 332.879C457.005 333.885 454.255 334.388 451.056 334.388H439.14L440.92 332.555V346.358H436.93ZM462.702 346.358L452.997 332.663H457.311L467.07 346.358H462.702ZM440.92 332.879L439.14 330.992H450.948C454.723 330.992 457.58 330.165 459.521 328.511C461.498 326.858 462.487 324.539 462.487 321.556C462.487 318.537 461.498 316.2 459.521 314.547C457.58 312.893 454.723 312.066 450.948 312.066H439.14L440.92 310.179V332.879Z" fill="black"/>
<path d="M404.42 325.492H424.369V328.889H404.42V325.492ZM404.851 342.907H427.551V346.358H400.861V308.616H426.742V312.066H404.851V342.907Z" fill="black"/>
<path d="M378.099 346.681C375.295 346.681 372.599 346.232 370.011 345.333C367.459 344.399 365.482 343.213 364.08 341.775L365.644 338.702C366.974 339.996 368.753 341.092 370.982 341.991C373.246 342.853 375.618 343.285 378.099 343.285C380.471 343.285 382.394 342.997 383.868 342.422C385.378 341.811 386.474 341.002 387.157 339.996C387.876 338.989 388.235 337.875 388.235 336.653C388.235 335.179 387.804 333.993 386.941 333.094C386.114 332.196 385.018 331.495 383.652 330.991C382.286 330.452 380.777 329.985 379.123 329.589C377.47 329.194 375.816 328.781 374.163 328.349C372.509 327.882 370.982 327.271 369.58 326.516C368.214 325.761 367.099 324.773 366.237 323.551C365.41 322.293 364.997 320.657 364.997 318.644C364.997 316.775 365.482 315.068 366.452 313.522C367.459 311.94 368.987 310.682 371.035 309.748C373.084 308.777 375.708 308.292 378.907 308.292C381.028 308.292 383.131 308.598 385.216 309.209C387.301 309.784 389.098 310.592 390.608 311.635L389.26 314.816C387.642 313.738 385.917 312.947 384.084 312.444C382.286 311.94 380.543 311.689 378.854 311.689C376.589 311.689 374.72 311.994 373.246 312.605C371.772 313.216 370.676 314.043 369.957 315.086C369.274 316.092 368.933 317.242 368.933 318.536C368.933 320.01 369.346 321.196 370.173 322.095C371.035 322.994 372.15 323.694 373.516 324.198C374.918 324.701 376.445 325.15 378.099 325.546C379.752 325.941 381.388 326.372 383.005 326.84C384.659 327.307 386.168 327.918 387.534 328.673C388.936 329.392 390.05 330.362 390.877 331.584C391.74 332.807 392.171 334.406 392.171 336.383C392.171 338.216 391.668 339.924 390.662 341.505C389.655 343.051 388.109 344.309 386.025 345.28C383.976 346.214 381.334 346.681 378.099 346.681Z" fill="black"/>
<path d="M328.431 346.681C325.555 346.681 322.895 346.214 320.451 345.28C318.043 344.309 315.94 342.961 314.143 341.236C312.381 339.51 310.997 337.479 309.991 335.143C309.02 332.807 308.535 330.254 308.535 327.487C308.535 324.719 309.02 322.167 309.991 319.83C310.997 317.494 312.399 315.463 314.197 313.738C315.994 312.012 318.097 310.682 320.505 309.748C322.949 308.777 325.609 308.292 328.485 308.292C331.36 308.292 333.984 308.741 336.357 309.64C338.765 310.539 340.814 311.904 342.503 313.738L340.023 316.272C338.442 314.69 336.698 313.558 334.793 312.875C332.888 312.192 330.839 311.851 328.646 311.851C326.31 311.851 324.153 312.246 322.176 313.037C320.235 313.792 318.528 314.888 317.054 316.326C315.616 317.728 314.484 319.381 313.657 321.286C312.867 323.155 312.471 325.222 312.471 327.487C312.471 329.715 312.867 331.782 313.657 333.687C314.484 335.592 315.616 337.264 317.054 338.702C318.528 340.103 320.235 341.2 322.176 341.991C324.153 342.745 326.292 343.123 328.593 343.123C330.749 343.123 332.78 342.799 334.685 342.152C336.626 341.505 338.406 340.409 340.023 338.863L342.288 341.883C340.49 343.464 338.388 344.668 335.979 345.495C333.571 346.286 331.055 346.681 328.431 346.681ZM338.46 341.397V327.487H342.288V341.883L338.46 341.397Z" fill="black"/>
<path d="M268.014 346.358V308.616H271.303L297.345 341.398H295.62V308.616H299.556V346.358H296.267L270.278 313.576H272.004V346.358H268.014Z" fill="black"/>
<path d="M251.746 346.358V308.616H255.736V346.358H251.746Z" fill="black"/>
<path d="M207.885 346.358V308.616H211.174L237.216 341.398H235.491V308.616H239.427V346.358H236.138L210.149 313.576H211.875V346.358H207.885Z" fill="black"/>
<path d="M163.199 346.358L180.453 308.616H184.389L201.643 346.358H197.437L181.585 310.934H183.203L167.351 346.358H163.199ZM169.993 336.276L171.179 333.04H193.124L194.31 336.276H169.993Z" fill="black"/>
<path d="M136.728 325.492H156.678V328.889H136.728V325.492ZM137.16 342.907H159.859V346.358H133.17V308.616H159.05V312.066H137.16V342.907Z" fill="black"/>
<path d="M101.418 346.358V308.616H105.408V342.907H126.544V346.358H101.418Z" fill="black"/>
<path d="M79.0581 346.681C76.2184 346.681 73.5944 346.214 71.1861 345.28C68.7778 344.309 66.693 342.961 64.9317 341.236C63.1703 339.51 61.7865 337.479 60.78 335.143C59.8095 332.807 59.3242 330.254 59.3242 327.487C59.3242 324.719 59.8095 322.167 60.78 319.83C61.7865 317.494 63.1703 315.463 64.9317 313.738C66.7289 312.012 68.8317 310.682 71.24 309.748C73.6484 308.777 76.2724 308.292 79.112 308.292C81.8439 308.292 84.4139 308.759 86.8223 309.694C89.2306 310.592 91.2615 311.958 92.915 313.792L90.3808 316.326C88.8352 314.744 87.1278 313.612 85.2586 312.929C83.3895 312.21 81.3766 311.851 79.2199 311.851C76.9553 311.851 74.8525 312.246 72.9115 313.037C70.9704 313.792 69.281 314.888 67.8432 316.326C66.4054 317.728 65.2731 319.381 64.4464 321.286C63.6556 323.155 63.2602 325.222 63.2602 327.487C63.2602 329.751 63.6556 331.836 64.4464 333.741C65.2731 335.61 66.4054 337.264 67.8432 338.702C69.281 340.103 70.9704 341.2 72.9115 341.991C74.8525 342.745 76.9553 343.123 79.2199 343.123C81.3766 343.123 83.3895 342.763 85.2586 342.044C87.1278 341.326 88.8352 340.175 90.3808 338.594L92.915 341.128C91.2615 342.961 89.2306 344.345 86.8223 345.28C84.4139 346.214 81.8259 346.681 79.0581 346.681Z" fill="black"/>
<defs>
<linearGradient id="paint0_linear_801_176330" x1="337.642" y1="275.734" x2="383.086" y2="237.229" gradientUnits="userSpaceOnUse">
<stop stop-color="#AD9771"/>
<stop offset="1" stop-color="#AD9771"/>
</linearGradient>
<linearGradient id="paint1_linear_801_176330" x1="299.711" y1="237.085" x2="344.199" y2="276.618" gradientUnits="userSpaceOnUse">
<stop stop-color="#AD9771"/>
<stop offset="1" stop-color="#AD9771"/>
</linearGradient>
<linearGradient id="paint2_linear_801_176330" x1="336.417" y1="218.954" x2="345.905" y2="277.628" gradientUnits="userSpaceOnUse">
<stop stop-color="#AD9771"/>
<stop offset="1" stop-color="#AD9771"/>
</linearGradient>
</defs>
</svg>
