<svg width="130" height="130" viewBox="0 0 130 130" fill="none" xmlns="http://www.w3.org/2000/svg">
<rect width="130" height="130" rx="65" fill="#C9DFE7"/>
<path d="M53.1643 52.538C53.1643 53.504 53.0083 54.392 52.6963 55.202C52.3903 56.006 51.9553 56.702 51.3913 57.29C50.8273 57.872 50.1523 58.325 49.3663 58.649C48.5803 58.973 47.7073 59.135 46.7473 59.135C45.7933 59.135 44.9203 58.973 44.1283 58.649C43.3423 58.325 42.6673 57.872 42.1033 57.29C41.5453 56.702 41.1103 56.006 40.7983 55.202C40.4863 54.392 40.3303 53.504 40.3303 52.538C40.3303 51.578 40.4863 50.693 40.7983 49.883C41.1103 49.073 41.5453 48.377 42.1033 47.795C42.6673 47.207 43.3423 46.751 44.1283 46.427C44.9203 46.097 45.7933 45.932 46.7473 45.932C47.7073 45.932 48.5803 46.097 49.3663 46.427C50.1523 46.751 50.8273 47.207 51.3913 47.795C51.9553 48.377 52.3903 49.073 52.6963 49.883C53.0083 50.693 53.1643 51.578 53.1643 52.538ZM51.2023 52.538C51.2023 51.77 51.0973 51.08 50.8873 50.468C50.6773 49.856 50.3773 49.337 49.9873 48.911C49.6033 48.485 49.1353 48.158 48.5833 47.93C48.0373 47.702 47.4253 47.588 46.7473 47.588C46.0693 47.588 45.4543 47.702 44.9023 47.93C44.3563 48.158 43.8883 48.485 43.4983 48.911C43.1083 49.337 42.8083 49.856 42.5983 50.468C42.3883 51.08 42.2833 51.77 42.2833 52.538C42.2833 53.312 42.3883 54.005 42.5983 54.617C42.8083 55.223 43.1083 55.739 43.4983 56.165C43.8883 56.591 44.3563 56.918 44.9023 57.146C45.4543 57.368 46.0693 57.479 46.7473 57.479C47.4253 57.479 48.0373 57.368 48.5833 57.146C49.1353 56.918 49.6033 56.591 49.9873 56.165C50.3773 55.739 50.6773 55.223 50.8873 54.617C51.0973 54.005 51.2023 53.312 51.2023 52.538ZM56.6917 51.611C56.9857 51.011 57.3397 50.54 57.7537 50.198C58.1677 49.856 58.6657 49.685 59.2477 49.685C59.4457 49.685 59.6317 49.709 59.8057 49.757C59.9857 49.799 60.1417 49.865 60.2737 49.955L60.1567 51.278C60.1147 51.44 60.0157 51.521 59.8597 51.521C59.7757 51.521 59.6497 51.506 59.4817 51.476C59.3137 51.44 59.1337 51.422 58.9417 51.422C58.6597 51.422 58.4107 51.464 58.1947 51.548C57.9787 51.626 57.7837 51.746 57.6097 51.908C57.4417 52.064 57.2917 52.259 57.1597 52.493C57.0277 52.721 56.9047 52.982 56.7907 53.276V59H55.0357V49.856H56.0437C56.2357 49.856 56.3647 49.892 56.4307 49.964C56.5027 50.03 56.5537 50.15 56.5837 50.324L56.6917 51.611ZM67.2061 52.07C66.9181 51.692 66.6061 51.428 66.2701 51.278C65.9401 51.128 65.5681 51.053 65.1541 51.053C64.3501 51.053 63.7261 51.344 63.2821 51.926C62.8441 52.502 62.6251 53.345 62.6251 54.455C62.6251 55.037 62.6731 55.535 62.7691 55.949C62.8711 56.357 63.0151 56.693 63.2011 56.957C63.3931 57.215 63.6271 57.407 63.9031 57.533C64.1791 57.653 64.4911 57.713 64.8391 57.713C65.3491 57.713 65.7901 57.599 66.1621 57.371C66.5341 57.143 66.8821 56.822 67.2061 56.408V52.07ZM68.9701 45.716V59H67.9081C67.6621 59 67.5091 58.883 67.4491 58.649L67.2961 57.596C66.9061 58.058 66.4621 58.43 65.9641 58.712C65.4721 58.988 64.9021 59.126 64.2541 59.126C63.7321 59.126 63.2581 59.024 62.8321 58.82C62.4121 58.616 62.0521 58.319 61.7521 57.929C61.4521 57.533 61.2211 57.044 61.0591 56.462C60.8971 55.88 60.8161 55.211 60.8161 54.455C60.8161 53.777 60.9061 53.147 61.0861 52.565C61.2661 51.983 61.5271 51.479 61.8691 51.053C62.2111 50.627 62.6251 50.294 63.1111 50.054C63.5971 49.808 64.1461 49.685 64.7581 49.685C65.3101 49.685 65.7781 49.775 66.1621 49.955C66.5521 50.135 66.9001 50.39 67.2061 50.72V45.716H68.9701ZM77.4755 53.411C77.4755 53.063 77.4245 52.742 77.3225 52.448C77.2265 52.154 77.0825 51.899 76.8905 51.683C76.6985 51.467 76.4645 51.299 76.1885 51.179C75.9125 51.059 75.5945 50.999 75.2345 50.999C74.4965 50.999 73.9145 51.212 73.4885 51.638C73.0685 52.064 72.8015 52.655 72.6875 53.411H77.4755ZM78.9245 57.695C78.7085 57.947 78.4595 58.166 78.1775 58.352C77.8955 58.532 77.5955 58.679 77.2775 58.793C76.9595 58.907 76.6295 58.991 76.2875 59.045C75.9515 59.099 75.6185 59.126 75.2885 59.126C74.6585 59.126 74.0735 59.021 73.5335 58.811C72.9995 58.595 72.5345 58.283 72.1385 57.875C71.7485 57.461 71.4425 56.951 71.2205 56.345C71.0045 55.733 70.8965 55.031 70.8965 54.239C70.8965 53.603 70.9955 53.012 71.1935 52.466C71.3915 51.914 71.6735 51.434 72.0395 51.026C72.4115 50.618 72.8645 50.297 73.3985 50.063C73.9325 49.829 74.5325 49.712 75.1985 49.712C75.7565 49.712 76.2695 49.805 76.7375 49.991C77.2115 50.171 77.6195 50.435 77.9615 50.783C78.3035 51.131 78.5705 51.56 78.7625 52.07C78.9605 52.58 79.0595 53.162 79.0595 53.816C79.0595 54.086 79.0295 54.269 78.9695 54.365C78.9095 54.455 78.7985 54.5 78.6365 54.5H72.6425C72.6605 55.046 72.7385 55.523 72.8765 55.931C73.0145 56.333 73.2035 56.669 73.4435 56.939C73.6895 57.209 73.9805 57.41 74.3165 57.542C74.6525 57.674 75.0275 57.74 75.4415 57.74C75.8315 57.74 76.1675 57.695 76.4495 57.605C76.7375 57.515 76.9835 57.419 77.1875 57.317C77.3975 57.209 77.5715 57.11 77.7095 57.02C77.8535 56.93 77.9795 56.885 78.0875 56.885C78.2315 56.885 78.3425 56.939 78.4205 57.047L78.9245 57.695ZM82.6019 51.611C82.8959 51.011 83.2499 50.54 83.6639 50.198C84.0779 49.856 84.5759 49.685 85.1579 49.685C85.3559 49.685 85.5419 49.709 85.7159 49.757C85.8959 49.799 86.0519 49.865 86.1839 49.955L86.0669 51.278C86.0249 51.44 85.9259 51.521 85.7699 51.521C85.6859 51.521 85.5599 51.506 85.3919 51.476C85.2239 51.44 85.0439 51.422 84.8519 51.422C84.5699 51.422 84.3209 51.464 84.1049 51.548C83.8889 51.626 83.6939 51.746 83.5199 51.908C83.3519 52.064 83.2019 52.259 83.0699 52.493C82.9379 52.721 82.8149 52.982 82.7009 53.276V59H80.9459V49.856H81.9539C82.1459 49.856 82.2749 49.892 82.3409 49.964C82.4129 50.03 82.4639 50.15 82.4939 50.324L82.6019 51.611ZM43.8066 77.431C43.7586 77.509 43.7076 77.566 43.6536 77.602C43.5996 77.632 43.5306 77.647 43.4466 77.647C43.3506 77.647 43.2426 77.614 43.1226 77.548C43.0086 77.482 42.8676 77.41 42.6996 77.332C42.5376 77.254 42.3456 77.182 42.1236 77.116C41.9016 77.05 41.6376 77.017 41.3316 77.017C41.0796 77.017 40.8486 77.05 40.6386 77.116C40.4346 77.176 40.2606 77.263 40.1166 77.377C39.9726 77.485 39.8616 77.617 39.7836 77.773C39.7056 77.923 39.6666 78.085 39.6666 78.259C39.6666 78.487 39.7326 78.676 39.8646 78.826C40.0026 78.976 40.1796 79.105 40.3956 79.213C40.6176 79.321 40.8666 79.42 41.1426 79.51C41.4246 79.594 41.7096 79.684 41.9976 79.78C42.2916 79.876 42.5766 79.987 42.8526 80.113C43.1346 80.233 43.3836 80.386 43.5996 80.572C43.8216 80.752 43.9986 80.971 44.1306 81.229C44.2686 81.487 44.3376 81.802 44.3376 82.174C44.3376 82.6 44.2596 82.996 44.1036 83.362C43.9536 83.722 43.7286 84.034 43.4286 84.298C43.1346 84.562 42.7686 84.769 42.3306 84.919C41.8926 85.069 41.3916 85.144 40.8276 85.144C40.1976 85.144 39.6156 85.039 39.0816 84.829C38.5476 84.619 38.1006 84.352 37.7406 84.028L38.1546 83.353C38.2026 83.269 38.2626 83.206 38.3346 83.164C38.4066 83.116 38.5026 83.092 38.6226 83.092C38.7366 83.092 38.8536 83.134 38.9736 83.218C39.0936 83.302 39.2376 83.395 39.4056 83.497C39.5736 83.593 39.7776 83.683 40.0176 83.767C40.2576 83.845 40.5576 83.884 40.9176 83.884C41.2176 83.884 41.4786 83.848 41.7006 83.776C41.9226 83.698 42.1056 83.596 42.2496 83.47C42.3996 83.338 42.5106 83.188 42.5826 83.02C42.6546 82.852 42.6906 82.675 42.6906 82.489C42.6906 82.249 42.6216 82.051 42.4836 81.895C42.3516 81.733 42.1746 81.595 41.9526 81.481C41.7366 81.367 41.4876 81.268 41.2056 81.184C40.9236 81.1 40.6356 81.01 40.3416 80.914C40.0476 80.818 39.7596 80.707 39.4776 80.581C39.1956 80.455 38.9436 80.296 38.7216 80.104C38.5056 79.912 38.3286 79.678 38.1906 79.402C38.0586 79.126 37.9926 78.79 37.9926 78.394C37.9926 78.04 38.0646 77.701 38.2086 77.377C38.3586 77.053 38.5716 76.768 38.8476 76.522C39.1296 76.276 39.4746 76.081 39.8826 75.937C40.2966 75.787 40.7676 75.712 41.2956 75.712C41.9016 75.712 42.4476 75.808 42.9336 76C43.4256 76.192 43.8456 76.456 44.1936 76.792L43.8066 77.431ZM52.2949 79.411C52.2949 79.063 52.2439 78.742 52.1419 78.448C52.0459 78.154 51.9019 77.899 51.7099 77.683C51.5179 77.467 51.2839 77.299 51.0079 77.179C50.7319 77.059 50.4139 76.999 50.0539 76.999C49.3159 76.999 48.7339 77.212 48.3079 77.638C47.8879 78.064 47.6209 78.655 47.5069 79.411H52.2949ZM53.7439 83.695C53.5279 83.947 53.2789 84.166 52.9969 84.352C52.7149 84.532 52.4149 84.679 52.0969 84.793C51.7789 84.907 51.4489 84.991 51.1069 85.045C50.7709 85.099 50.4379 85.126 50.1079 85.126C49.4779 85.126 48.8929 85.021 48.3529 84.811C47.8189 84.595 47.3539 84.283 46.9579 83.875C46.5679 83.461 46.2619 82.951 46.0399 82.345C45.8239 81.733 45.7159 81.031 45.7159 80.239C45.7159 79.603 45.8149 79.012 46.0129 78.466C46.2109 77.914 46.4929 77.434 46.8589 77.026C47.2309 76.618 47.6839 76.297 48.2179 76.063C48.7519 75.829 49.3519 75.712 50.0179 75.712C50.5759 75.712 51.0889 75.805 51.5569 75.991C52.0309 76.171 52.4389 76.435 52.7809 76.783C53.1229 77.131 53.3899 77.56 53.5819 78.07C53.7799 78.58 53.8789 79.162 53.8789 79.816C53.8789 80.086 53.8489 80.269 53.7889 80.365C53.7289 80.455 53.6179 80.5 53.4559 80.5H47.4619C47.4799 81.046 47.5579 81.523 47.6959 81.931C47.8339 82.333 48.0229 82.669 48.2629 82.939C48.5089 83.209 48.7999 83.41 49.1359 83.542C49.4719 83.674 49.8469 83.74 50.2609 83.74C50.6509 83.74 50.9869 83.695 51.2689 83.605C51.5569 83.515 51.8029 83.419 52.0069 83.317C52.2169 83.209 52.3909 83.11 52.5289 83.02C52.6729 82.93 52.7989 82.885 52.9069 82.885C53.0509 82.885 53.1619 82.939 53.2399 83.047L53.7439 83.695ZM57.4212 77.611C57.7152 77.011 58.0692 76.54 58.4832 76.198C58.8972 75.856 59.3952 75.685 59.9772 75.685C60.1752 75.685 60.3612 75.709 60.5352 75.757C60.7152 75.799 60.8712 75.865 61.0032 75.955L60.8862 77.278C60.8442 77.44 60.7452 77.521 60.5892 77.521C60.5052 77.521 60.3792 77.506 60.2112 77.476C60.0432 77.44 59.8632 77.422 59.6712 77.422C59.3892 77.422 59.1402 77.464 58.9242 77.548C58.7082 77.626 58.5132 77.746 58.3392 77.908C58.1712 78.064 58.0212 78.259 57.8892 78.493C57.7572 78.721 57.6342 78.982 57.5202 79.276V85H55.7652V75.856H56.7732C56.9652 75.856 57.0942 75.892 57.1602 75.964C57.2322 76.03 57.2832 76.15 57.3132 76.324L57.4212 77.611ZM70.295 75.856L66.587 85H65.003L61.295 75.856H62.744C62.882 75.856 62.996 75.889 63.086 75.955C63.176 76.021 63.236 76.105 63.266 76.207L65.453 81.823C65.531 82.057 65.597 82.291 65.651 82.525C65.711 82.753 65.765 82.981 65.813 83.209C65.861 82.981 65.915 82.753 65.975 82.525C66.035 82.297 66.107 82.063 66.191 81.823L68.405 76.207C68.441 76.105 68.504 76.021 68.594 75.955C68.684 75.889 68.792 75.856 68.918 75.856H70.295ZM73.527 75.856V85H71.772V75.856H73.527ZM73.86 73.03C73.86 73.192 73.827 73.348 73.761 73.498C73.695 73.642 73.605 73.771 73.491 73.885C73.383 73.993 73.254 74.08 73.104 74.146C72.954 74.206 72.798 74.236 72.636 74.236C72.474 74.236 72.321 74.206 72.177 74.146C72.033 74.08 71.904 73.993 71.79 73.885C71.682 73.771 71.595 73.642 71.529 73.498C71.469 73.348 71.439 73.192 71.439 73.03C71.439 72.862 71.469 72.706 71.529 72.562C71.595 72.412 71.682 72.283 71.79 72.175C71.904 72.061 72.033 71.974 72.177 71.914C72.321 71.848 72.474 71.815 72.636 71.815C72.798 71.815 72.954 71.848 73.104 71.914C73.254 71.974 73.383 72.061 73.491 72.175C73.605 72.283 73.695 72.412 73.761 72.562C73.827 72.706 73.86 72.862 73.86 73.03ZM82.476 77.566C82.422 77.632 82.368 77.686 82.314 77.728C82.266 77.764 82.194 77.782 82.098 77.782C82.002 77.782 81.9 77.746 81.792 77.674C81.69 77.596 81.558 77.515 81.396 77.431C81.24 77.341 81.048 77.26 80.82 77.188C80.598 77.11 80.322 77.071 79.992 77.071C79.56 77.071 79.179 77.149 78.849 77.305C78.519 77.461 78.243 77.683 78.021 77.971C77.805 78.259 77.64 78.61 77.526 79.024C77.412 79.438 77.355 79.903 77.355 80.419C77.355 80.953 77.415 81.43 77.535 81.85C77.655 82.264 77.826 82.615 78.048 82.903C78.27 83.185 78.54 83.401 78.858 83.551C79.176 83.695 79.53 83.767 79.92 83.767C80.298 83.767 80.61 83.722 80.856 83.632C81.102 83.536 81.306 83.434 81.468 83.326C81.63 83.218 81.765 83.119 81.873 83.029C81.981 82.933 82.092 82.885 82.206 82.885C82.35 82.885 82.461 82.939 82.539 83.047L83.043 83.695C82.833 83.953 82.596 84.172 82.332 84.352C82.074 84.532 81.798 84.679 81.504 84.793C81.21 84.907 80.901 84.991 80.577 85.045C80.259 85.099 79.935 85.126 79.605 85.126C79.035 85.126 78.501 85.021 78.003 84.811C77.511 84.601 77.082 84.295 76.716 83.893C76.356 83.491 76.071 82.999 75.861 82.417C75.651 81.829 75.546 81.163 75.546 80.419C75.546 79.741 75.639 79.114 75.825 78.538C76.017 77.962 76.296 77.467 76.662 77.053C77.034 76.633 77.49 76.306 78.03 76.072C78.57 75.832 79.188 75.712 79.884 75.712C80.538 75.712 81.114 75.817 81.612 76.027C82.11 76.237 82.554 76.534 82.944 76.918L82.476 77.566ZM90.58 79.411C90.58 79.063 90.529 78.742 90.427 78.448C90.331 78.154 90.187 77.899 89.995 77.683C89.803 77.467 89.569 77.299 89.293 77.179C89.017 77.059 88.699 76.999 88.339 76.999C87.601 76.999 87.019 77.212 86.593 77.638C86.173 78.064 85.906 78.655 85.792 79.411H90.58ZM92.029 83.695C91.813 83.947 91.564 84.166 91.282 84.352C91 84.532 90.7 84.679 90.382 84.793C90.064 84.907 89.734 84.991 89.392 85.045C89.056 85.099 88.723 85.126 88.393 85.126C87.763 85.126 87.178 85.021 86.638 84.811C86.104 84.595 85.639 84.283 85.243 83.875C84.853 83.461 84.547 82.951 84.325 82.345C84.109 81.733 84.001 81.031 84.001 80.239C84.001 79.603 84.1 79.012 84.298 78.466C84.496 77.914 84.778 77.434 85.144 77.026C85.516 76.618 85.969 76.297 86.503 76.063C87.037 75.829 87.637 75.712 88.303 75.712C88.861 75.712 89.374 75.805 89.842 75.991C90.316 76.171 90.724 76.435 91.066 76.783C91.408 77.131 91.675 77.56 91.867 78.07C92.065 78.58 92.164 79.162 92.164 79.816C92.164 80.086 92.134 80.269 92.074 80.365C92.014 80.455 91.903 80.5 91.741 80.5H85.747C85.765 81.046 85.843 81.523 85.981 81.931C86.119 82.333 86.308 82.669 86.548 82.939C86.794 83.209 87.085 83.41 87.421 83.542C87.757 83.674 88.132 83.74 88.546 83.74C88.936 83.74 89.272 83.695 89.554 83.605C89.842 83.515 90.088 83.419 90.292 83.317C90.502 83.209 90.676 83.11 90.814 83.02C90.958 82.93 91.084 82.885 91.192 82.885C91.336 82.885 91.447 82.939 91.525 83.047L92.029 83.695Z" fill="#21212F"/>
<path d="M35.56 31.56C39.06 30.01 44.65 28 50 28C44.65 28 39.06 25.99 35.56 24.44C34.01 20.94 32 15.35 32 10C32 15.35 29.99 20.94 28.44 24.44C24.94 25.99 19.35 28 14 28C19.35 28 24.94 30.01 28.44 31.56C29.99 35.06 32 40.65 32 46C32 40.65 34.01 35.06 35.56 31.56Z" fill="#FFFDFD"/>
<path d="M113.566 54.5664C116.097 53.4513 120.133 52 124 52C120.142 52 116.097 50.5487 113.566 49.4336C112.451 46.9027 111 42.8673 111 39C111 42.8584 109.549 46.9027 108.434 49.4336C105.903 50.5487 101.867 52 98 52C101.858 52 105.903 53.4513 108.434 54.5664C109.549 57.0973 111 61.1327 111 65C111 61.1416 112.451 57.0973 113.566 54.5664Z" fill="#FFFDFD"/>
<path d="M55.3762 112.376C57.7129 111.347 61.4356 110 65 110C61.4356 110 57.7129 108.653 55.3762 107.624C54.3465 105.287 53 101.564 53 98C53 101.564 51.6535 105.287 50.6238 107.624C48.2871 108.653 44.5644 110 41 110C44.5644 110 48.2871 111.347 50.6238 112.376C51.6535 114.713 53 118.436 53 122C53 118.436 54.3465 114.713 55.3762 112.376Z" fill="#FFFDFD"/>
</svg>
