<svg width="80" height="80" viewBox="0 0 80 80" fill="none" xmlns="http://www.w3.org/2000/svg">
<rect width="80" height="80" rx="40" fill="#F2F2F2"/>
<path d="M39.2751 33.1754L28.6551 44.3214C28.4778 44.5074 28.3789 44.7545 28.3789 45.0114C28.3789 45.2684 28.4778 45.5155 28.6551 45.7014L28.6671 45.7134C28.753 45.8039 28.8565 45.8759 28.9712 45.9252C29.0858 45.9744 29.2093 45.9998 29.3341 45.9998C29.4589 45.9998 29.5824 45.9744 29.697 45.9252C29.8117 45.8759 29.9152 45.8039 30.0011 45.7134L40.0011 35.2174L49.9971 45.7134C50.083 45.8039 50.1865 45.8759 50.3012 45.9252C50.4158 45.9744 50.5393 45.9998 50.6641 45.9998C50.7889 45.9998 50.9124 45.9744 51.027 45.9252C51.1417 45.8759 51.2452 45.8039 51.3311 45.7134L51.3431 45.7014C51.5204 45.5155 51.6193 45.2684 51.6193 45.0114C51.6193 44.7545 51.5204 44.5074 51.3431 44.3214L40.7231 33.1754C40.6297 33.0774 40.5174 32.9994 40.3929 32.946C40.2685 32.8927 40.1345 32.8652 39.9991 32.8652C39.8637 32.8652 39.7297 32.8927 39.6053 32.946C39.4808 32.9994 39.3685 33.0774 39.2751 33.1754Z" fill="#21212F"/>
</svg>
